<svg xmlns="http://www.w3.org/2000/svg" width="240" height="272"><style>.text{fill:#384257;font-family:Inter,&quot;Open Sauce Two&quot;,&quot;Open Sauce&quot;,&quot;Helvetica Neue&quot;,Helvetica,Arial,sans-serif;font-size:12px;font-style:normal;font-weight:400;line-height:1.5em}</style><rect width="240" height="272" fill="#FFF" stroke="#CDD0D5" rx="8" ry="8"/><svg xmlns="http://www.w3.org/2000/svg" width="88" height="32" x="16" y="16" fill="none" viewBox="0 0 395 140"><path fill="#06132D" d="M7.9 56.43a10.77 10.77 0 0 1 5.39-14.24l71.17-32.1a10.77 10.77 0 0 1 14.25 5.4l32.09 71.18c2.44 5.42.03 11.8-5.4 14.24l-71.17 32.1a10.77 10.77 0 0 1-14.25-5.4z"/><path fill="#53B18A" d="M7.9 56.43c-.82-1.8-1.1-3.7-.9-5.53l14.7-3.01a22.8 22.8 0 0 1-1.1-6.37 24 24 0 0 1 .14-2.7c1.28-11.25 10.4-19.97 21.48-19.97a20.87 20.87 0 0 1 15.21 6.56c2.85 2.87 8 2.87 22.96 2.87 10.43 0 19.98 3.6 27.84 9.54.32.24.62.5.9.79a24 24 0 0 1 1.3 1.44l.5.57c4.27 4.84 14.92 9.49 25.61 10.53v13.47a32.3 32.3 0 0 1-8.43 16.09 48 48 0 0 1-6.68 5.73 7.9 7.9 0 0 1-5.4 1.05 113 113 0 0 0-16.11-1.34c-31.07 0-53.76 17.2-55.45 46.4a10.72 10.72 0 0 1-4.49-4.94z"/><mask id="a" width="126" height="125" x="6" y="9" maskUnits="userSpaceOnUse" style="mask-type:alpha"><path fill="#031E3D" d="M7.9 56.43a10.77 10.77 0 0 1 5.39-14.24L84.46 10.1a10.77 10.77 0 0 1 14.25 5.4l32.09 71.17c2.44 5.42.03 11.8-5.4 14.24l-71.17 32.1a10.77 10.77 0 0 1-14.25-5.4z"/></mask><g mask="url(#a)"><path fill="#66C0EE" d="m26.66 98.05 17.71 39.27v-1.25c0-30.88 22.6-49.4 54.21-49.9-27.14.24-52.08 4.64-71.92 11.88"/><path fill="#1F60E0" d="M97.2 86.2c-26.88.64-50.82 8.06-67.1 19.47l14.27 31.65v-1.25c0-30.43 21.95-48.85 52.83-49.87"/><path fill="#4321B1" d="M87.46 87.14c-23.02 3.41-42.11 15.38-51.53 31.47l8.44 18.71v-1.25c0-27.12 17.44-44.7 43.1-48.93Z"/></g><path fill="#4321B1" d="M20.9 48.06c10.09-1.55 23.5-2.63 38.55-3-4.6-2.98-6.08-8.1-7.52-13.05-1.67-5.8-3.3-11.4-9.78-13.16-12.68-.26-21.7 9.97-21.7 24.23 0 1.65.15 3.33.45 4.98m115.7 16.56s3.44-.67 2.32-10.92c-.17-1.53-1.13-2.74-2.32-2.92a10 10 0 0 0-1.46-.13c-2.46 0-3.5.22-4.89 1.59l-3.76 3.66a.84.84 0 0 0 .03 1.24c4.66 4.09 8.75 7.48 10.08 7.48"/><path fill="#fff" fill-rule="evenodd" d="M101.45 51.4c2.09-.1 3.72-1.6 3.8-3.42.08-2.09-1.93-3.7-4.3-3.6-1.97.1-2.2.14-8.43 1.63-.38.09-.48.52-.18.73 6.92 4.76 7.02 4.76 9.11 4.65Z" clip-rule="evenodd"/><path fill="#06132D" d="M197.85 74.74h-16.4v17.65a1.14 1.14 0 0 1-1.15 1.14h-7.16A1.15 1.15 0 0 1 172 92.4V47.7a1.14 1.14 0 0 1 1.14-1.11h29.6a1.14 1.14 0 0 1 1.15 1.14v6.44a1.14 1.14 0 0 1-1.14 1.14h-21.3v10.73h16.4a1.14 1.14 0 0 1 1.14 1.14v6.44a1.15 1.15 0 0 1-1.14 1.12m37.38-28.97c3.15-.04 6.27.5 9.21 1.6 2.48.91 4.75 2.3 6.67 4.1a22.3 22.3 0 0 1 4.19 5.77 25.5 25.5 0 0 1 2.37 6.43 30.3 30.3 0 0 1 0 12.7 25.2 25.2 0 0 1-2.37 6.46 22.4 22.4 0 0 1-4.19 5.77 19.25 19.25 0 0 1-6.67 4.05 25.6 25.6 0 0 1-9.2 1.58c-3.17.04-6.32-.49-9.29-1.58a19.2 19.2 0 0 1-6.67-4.05 23 23 0 0 1-4.29-5.77 24.6 24.6 0 0 1-2.41-6.46 30.9 30.9 0 0 1 0-12.7c.5-2.24 1.31-4.41 2.41-6.43a23 23 0 0 1 4.3-5.77c1.93-1.8 4.2-3.19 6.67-4.1 2.97-1.1 6.1-1.65 9.27-1.6m0 39.69c2.03.03 4.04-.41 5.88-1.29a11.1 11.1 0 0 0 3.95-3.04 15.7 15.7 0 0 0 2.3-4.1c.51-1.3.9-2.63 1.14-4q.255-1.53.27-3.09c0-1.03-.1-2.06-.27-3.08a20.5 20.5 0 0 0-1.14-3.95 15.7 15.7 0 0 0-2.25-4.04 10.8 10.8 0 0 0-4-3.02 13.5 13.5 0 0 0-5.88-1.17c-2.08-.04-4.14.39-6.03 1.24-1.54.66-2.9 1.67-3.98 2.95a16.7 16.7 0 0 0-2.26 4.06 17.6 17.6 0 0 0-1.14 3.96 20.4 20.4 0 0 0 0 6.17c.23 1.36.61 2.69 1.14 3.96a16.4 16.4 0 0 0 2.28 4.1 11 11 0 0 0 3.99 3.04 13.6 13.6 0 0 0 6 1.24zm41.56-26.42c.02.71.23 1.41.63 2.01a5.7 5.7 0 0 0 2.08 1.65c.97.51 1.8.9 2.48 1.17q1.02.405 3.42 1.2l3.28 1.15c.62.22 1.66.63 3.11 1.24 1.12.43 2.2.97 3.21 1.6q1.035.705 2.58 1.95c.9.68 1.67 1.54 2.25 2.51a11.93 11.93 0 0 1 1.67 7.04 12.88 12.88 0 0 1-5.09 9.65c-3.44 2.64-7.69 4-12.02 3.82a37.14 37.14 0 0 1-17.15-4.19 1.02 1.02 0 0 1-.53-.67 1.18 1.18 0 0 1 0-.86l3.09-5.84a1.13 1.13 0 0 1 .64-.6 1.07 1.07 0 0 1 .86 0 30.4 30.4 0 0 0 12.56 3.35c1.8.07 3.58-.35 5.15-1.21a4.58 4.58 0 0 0 2.36-3.24 3.73 3.73 0 0 0-1.6-3.86 19.7 19.7 0 0 0-5.88-2.68 59 59 0 0 1-9.64-3.54c-4.65-2.5-6.98-6.23-6.98-11.18a12.58 12.58 0 0 1 4.19-9.98 16.1 16.1 0 0 1 10.98-3.69 40 40 0 0 1 16.12 3.82 1.03 1.03 0 0 1 .53 1.53l-2.48 5.84a1.14 1.14 0 0 1-1.54.67 33 33 0 0 0-11.92-3.02c-4.1 0-6.22 1.45-6.36 4.36m43.01 0c.03.72.27 1.42.67 2.01.55.7 1.27 1.27 2.08 1.65.98.51 1.8.9 2.49 1.17q1.02.405 3.42 1.2l3.28 1.15c.62.22 1.66.63 3.1 1.24 1.13.43 2.2.97 3.22 1.6q1.035.705 2.58 1.95c.9.68 1.67 1.54 2.25 2.51.52.99.92 2.03 1.2 3.11.34 1.28.46 2.6.36 3.93a12.9 12.9 0 0 1-5.1 9.65 18.54 18.54 0 0 1-11.98 3.82 37.1 37.1 0 0 1-17.15-4.19 1.01 1.01 0 0 1-.54-.67 1.18 1.18 0 0 1 0-.86l3.09-5.84a1.14 1.14 0 0 1 .67-.57 1.07 1.07 0 0 1 .87 0 30.4 30.4 0 0 0 12.56 3.35 9.95 9.95 0 0 0 5.12-1.2 4.58 4.58 0 0 0 2.37-3.28 3.74 3.74 0 0 0-1.6-3.86 19.8 19.8 0 0 0-5.85-2.68 59 59 0 0 1-9.65-3.54c-4.65-2.5-6.97-6.23-6.97-11.18a12.58 12.58 0 0 1 4.18-9.98 16.1 16.1 0 0 1 10.99-3.69 40 40 0 0 1 16.16 3.82 1.03 1.03 0 0 1 .53 1.53l-2.49 5.84a1.16 1.16 0 0 1-1.08.76c-.15 0-.3-.03-.45-.1a33 33 0 0 0-11.96-3c-4.12 0-6.24 1.44-6.37 4.35m54.34-12.44 20.62 45.8a.88.88 0 0 1 0 .76.66.66 0 0 1-.61.38h-8.37a1.48 1.48 0 0 1-1.58-1.08l-4.05-9.91h-14.67l-4 9.85a1.57 1.57 0 0 1-1.6 1.08h-8.5a.65.65 0 0 1-.6-.38.93.93 0 0 1-.08-.77l20.5-45.74a1.76 1.76 0 0 1 1.4-.6 1.7 1.7 0 0 1 1.54.61m-1.4 17.89-4.19 10.53h8.38z"/></svg><text x="16" y="56" class="text"> 
    <tspan dy="1em">
      docker-pure-ftpd@2300e6fd605a74babe...
    </tspan>
  </text><g transform="translate(16 84)"><svg xmlns="http://www.w3.org/2000/svg" width="16" height="16" fill="#289E6D" viewBox="0 0 512 512"><!--!Font Awesome Free 6.6.0 by @fontawesome - https://fontawesome.com License - https://fontawesome.com/license/free Copyright 2024 Fonticons, Inc.--><path d="M256 512a256 256 0 1 0 0-512 256 256 0 1 0 0 512m113-303L241 337c-9.4 9.4-24.6 9.4-33.9 0l-64-64c-9.4-9.4-9.4-24.6 0-33.9s24.6-9.4 33.9 0l47 47L335 175c9.4-9.4 24.6-9.4 33.9 0s9.4 24.6 0 33.9z"/></svg><text x="20" y="12" fill="#289E6D" style="font-family:Inter,&quot;Open Sauce Two&quot;,&quot;Open Sauce&quot;,&quot;Helvetica Neue&quot;,Helvetica,Arial,sans-serif;font-size:12px;font-style:normal;font-weight:600;line-height:1.5em">
        <tspan>No issues found</tspan>
      </text></g><text x="16" y="114" class="text">
      
      
      
      
      
      
      
        <tspan x="16" dy="1.5em">
          • 2 Obligations from 1 License
        </tspan>
      
      
        <tspan x="16" dy="1.5em">
          • No dependencies found.
        </tspan>
      
    </text><a target="_blank" transform="translate(0 222)"><rect width="240" height="50" fill="#289E6D" rx="8" ry="8"/><rect width="240" height="25" fill="#289E6D" rx="0" ry="0"/><rect width="240" height="50" fill="#289E6D" rx="8" ry="8"/><text x="24" y="30" class="text" style="fill:#fff;font-weight:500">
        <tspan>View details on FOSSA</tspan>
      </text><svg xmlns="http://www.w3.org/2000/svg" width="16" height="16" x="200" y="17" fill="#fff" viewBox="0 0 448 512"><!--!Font Awesome Free 6.6.0 by @fontawesome - https://fontawesome.com License - https://fontawesome.com/license/free Copyright 2024 Fonticons, Inc.--><path d="M438.6 278.6c12.5-12.5 12.5-32.8 0-45.3l-160-160c-12.5-12.5-32.8-12.5-45.3 0s-12.5 32.8 0 45.3L338.8 224H32c-17.7 0-32 14.3-32 32s14.3 32 32 32h306.7L233.4 393.4c-12.5 12.5-12.5 32.8 0 45.3s32.8 12.5 45.3 0l160-160z"/></svg></a></svg>