<?xml version="1.0" encoding="UTF-8"?>
<svg id="Vrstva_2" xmlns="http://www.w3.org/2000/svg" viewBox="0 0 80 64">
  <defs>
    <style>
      .cls-1 {
        fill: none;
      }

      .cls-2 {
        fill: #26313c;
      }
    </style>
  </defs>
  <g id="Vrstva_1-2" data-name="Vrstva_1">
    <g>
      <rect class="cls-1" width="80" height="64"/>
      <g>
        <path class="cls-2" d="M70.78,26.94l-.03-.24-.23-.06c-1.47-.4-4.61-1.35-7.44-2.22v-10.21c0-1.11-.91-2.02-2.02-2.02H11.11c-1.11,0-2.02.91-2.02,2.02v30.23c0,1.11.91,2.02,2.02,2.02h37.77c1.96,2.43,4.66,4.4,8.4,5.35l.09.02.09-.02c15.64-3.79,13.35-24.65,13.32-24.86ZM57.48,22.68l-.11-.03-.11.03c-.06.02-3.51,1.1-6.95,2.15H9.81v-5.69h52.54v5.05c-2.63-.81-4.83-1.5-4.87-1.51ZM11.11,12.9h49.94c.72,0,1.3.58,1.3,1.3v4.22H9.81v-4.22c0-.72.58-1.3,1.3-1.3ZM11.11,45.73c-.72,0-1.3-.58-1.3-1.3v-18.88h38.13c-1.53.46-2.88.86-3.71,1.09l-.24.07-.03.25c-.01.15-1.02,11.29,4.38,18.78H11.11ZM57.37,51.08c-13.66-3.54-12.87-21.5-12.71-23.82,3.08-.86,11.65-3.53,12.71-3.86,1.06.33,9.63,3.01,12.71,3.86.2,2.3,1.33,20.34-12.71,23.82Z"/>
        <polygon class="cls-2" points="56.53 43.02 51.45 37.8 50.93 38.3 56.63 44.17 65.87 30.21 65.27 29.82 56.53 43.02"/>
        <rect class="cls-2" x="13.85" y="33.57" width="11.22" height=".72"/>
        <rect class="cls-2" x="13.85" y="36.87" width="5.61" height=".72"/>
      </g>
    </g>
  </g>
</svg>