<svg width="64" height="64" viewBox="0 0 64 64" fill="none" xmlns="http://www.w3.org/2000/svg">
<path d="M56.0145 44.6428H7.12594C6.84675 44.6428 6.57029 44.7013 6.31236 44.8156C6.05442 44.9298 5.82005 45.0974 5.62264 45.3085C5.42523 45.5195 5.26863 45.77 5.1618 46.0458C5.05497 46.3215 4.99999 46.6172 5 46.9157V56.0088C4.99999 56.3073 5.05497 56.6027 5.1618 56.8785C5.26863 57.1542 5.42523 57.4049 5.62264 57.616C5.82005 57.8271 6.05442 57.9944 6.31236 58.1086C6.57029 58.2229 6.84675 58.2817 7.12594 58.2817H56.0145" stroke="#2FA477" stroke-width="2.5" stroke-linecap="round" stroke-linejoin="round"/>
<path d="M11.3788 44.6431L11.3788 53.7299L14.5681 51.4623L17.7575 53.7354L17.7575 44.6483" stroke="#2FA477" stroke-width="2.5" stroke-linecap="round" stroke-linejoin="round"/>
<path d="M8.20349 25.3369H57.0932C57.3724 25.3369 57.6488 25.3956 57.9068 25.5097C58.1647 25.6238 58.3991 25.791 58.5965 26.0018C58.7939 26.2127 58.9505 26.4629 59.0573 26.7383C59.1642 27.0138 59.2192 27.3091 59.2192 27.6072V36.6904C59.2192 36.9885 59.1642 37.2838 59.0574 37.5592C58.9505 37.8347 58.7939 38.0849 58.5965 38.2957C58.3991 38.5066 58.1647 38.674 57.9068 38.7881C57.6488 38.9022 57.3724 38.9609 57.0932 38.9609H8.20349" stroke="#2FA477" stroke-width="2.5" stroke-linecap="round" stroke-linejoin="round"/>
<path d="M52.8402 25.3369V34.4141L49.6508 32.149L46.4614 34.4196V25.3424" stroke="#2FA477" stroke-width="2.5" stroke-linecap="round" stroke-linejoin="round"/>
<path d="M56.0293 6H7.14071C6.86152 6 6.58506 6.05882 6.32713 6.17304C6.06919 6.28727 5.83482 6.45463 5.63741 6.66569C5.44 6.87675 5.2834 7.12719 5.17657 7.40295C5.06974 7.67872 5.01476 7.97441 5.01477 8.27289V17.366C5.01476 17.6645 5.06974 17.9599 5.17657 18.2357C5.2834 18.5114 5.44 18.7621 5.63741 18.9732C5.83482 19.1843 6.06919 19.3516 6.32713 19.4658C6.58506 19.5801 6.86152 19.6389 7.14071 19.6389H56.0293" stroke="#2FA477" stroke-width="2.5" stroke-linecap="round" stroke-linejoin="round"/>
</svg>
