<svg width="96" height="96" viewBox="0 0 96 96" fill="none" xmlns="http://www.w3.org/2000/svg">
<path opacity="0.5" fill-rule="evenodd" clip-rule="evenodd" d="M52.3381 52.3374H45.9766C41.3454 52.3374 37.5911 56.0917 37.5911 60.7229V68.5302C37.5911 74.918 42.7695 80.0964 49.1574 80.0964C55.5452 80.0964 60.7236 74.918 60.7236 68.5302V60.7229C60.7236 56.0917 56.9693 52.3374 52.3381 52.3374ZM45.9769 57.5427H52.3383C54.095 57.5427 55.519 58.9667 55.519 60.7234V68.5306C55.519 72.0439 52.6709 74.8921 49.1576 74.8921C45.6443 74.8921 42.7962 72.0439 42.7962 68.5306V60.7234C42.7962 58.9667 44.2202 57.5427 45.9769 57.5427Z" fill="#091E42"/>
<path fill-rule="evenodd" clip-rule="evenodd" d="M19.374 54.9397L74.5001 70.9958C76.7205 71.6425 78.9403 69.9771 78.9403 67.6644V20.1059C78.9403 17.666 76.4887 15.9881 74.2143 16.8714L19.374 38.1686V54.9397Z" fill="#091E42"/>
<path opacity="0.5" d="M19.3739 34.4097C20.7701 34.4097 21.9095 35.5092 21.9735 36.8896L21.9763 37.0121V56.0964C21.9763 57.5337 20.8112 58.6988 19.3739 58.6988C17.9777 58.6988 16.8383 57.5993 16.7743 56.2189L16.7715 56.0964V37.0121C16.7715 35.5748 17.9366 34.4097 19.3739 34.4097Z" fill="#091E42"/>
</svg>
