<svg width="40" height="40" viewBox="0 0 40 40" fill="none" xmlns="http://www.w3.org/2000/svg">
    <path
        d="M13.2901 2.59963C9.76196 1.97753 6.39756 4.33331 5.77547 7.8614L2.59963 25.8724C1.97753 29.4005 4.33331 32.7649 7.8614 33.387L17.2984 35.051C17.4663 35.0806 17.5919 34.9 17.5056 34.7529L8.6031 19.5702C8.23237 18.9837 8.23758 17.8421 8.66605 17.5701C8.7642 17.507 9.05577 17.2464 9.05577 17.2464L9.55404 16.7015L9.63586 16.6117C10.0981 16.1036 10.5157 15.6445 11.8355 14.9838L12.1195 14.8849C14.0554 14.2803 15.1318 14.324 16.2083 14.3677C17.2853 14.4114 18.3624 14.4551 20.3001 13.8498C21.8904 13.3531 23.3368 12.3777 24.1429 11.766C24.5008 11.4944 25.0292 11.5737 25.2671 11.9548L31.013 21.1558C31.1917 21.442 31.147 21.812 30.8859 22.0257C30.2652 22.5334 29.0107 23.4283 27.3439 23.9489C25.408 24.5535 24.3036 24.5273 23.1991 24.5011C22.0942 24.4748 20.9891 24.4485 19.0513 25.0538C17.345 25.5868 16.6641 26.2904 16.4372 26.5941C16.3902 26.6569 16.3659 26.8017 16.4037 26.8704C16.8601 27.7013 19.315 32.0216 21.2235 35.3759C21.3708 35.6347 21.6255 35.814 21.9188 35.8657L25.8724 36.5629C29.4005 37.185 32.7649 34.8292 33.387 31.3011L36.5629 13.2901C37.185 9.76196 34.8292 6.39756 31.3011 5.77547L13.2901 2.59963Z"
        fill="url(#paint0_linear)" />
    <path
        d="M20.8081 16.3429C19.1788 16.768 18.1916 16.737 17.2045 16.7061C16.2177 16.6751 15.2311 16.6442 13.6035 17.0688C12.6597 17.3425 12.1151 17.823 11.5965 18.436C11.5415 18.5009 11.5351 18.5939 11.5794 18.6666L14.7307 23.833C14.7951 23.9386 14.9397 23.9624 15.0377 23.8869C15.4717 23.5527 16.6346 22.7383 18.1085 22.3537C19.9445 21.8747 21.0435 21.8854 22.2006 21.8966C23.0968 21.9053 24.0279 21.9143 25.3634 21.6965C26.2592 21.5504 26.9905 21.161 27.3981 20.902C27.6054 20.7702 27.6498 20.4989 27.5166 20.2926L24.3397 15.375C24.1911 15.145 23.8787 15.0807 23.6405 15.2155C23.1179 15.5113 22.1361 15.9964 20.8081 16.3429Z"
        fill="url(#paint1_linear)" />
    <defs>
        <linearGradient id="paint0_linear" x1="8.54646" y1="2.5" x2="29.7256" y2="35.2842"
            gradientUnits="userSpaceOnUse">
            <stop stop-color="#FFC100" />
            <stop offset="1" stop-color="#E66B35" />
        </linearGradient>
        <linearGradient id="paint1_linear" x1="8.54646" y1="2.5" x2="29.7256" y2="35.2842"
            gradientUnits="userSpaceOnUse">
            <stop stop-color="#FFC100" />
            <stop offset="1" stop-color="#E66B35" />
        </linearGradient>
    </defs>
</svg>