<?xml version="1.0" encoding="UTF-8"?>
<svg id="Vrstva_2" xmlns="http://www.w3.org/2000/svg" viewBox="0 0 80 64">
  <defs>
    <style>
      .cls-1 {
        fill: none;
      }

      .cls-2 {
        fill: #26313c;
      }
    </style>
  </defs>
  <g id="Vrstva_1-2" data-name="Vrstva_1">
    <g>
      <rect class="cls-1" width="80" height="64"/>
      <g>
        <path class="cls-2" d="M50.16,12c-7.83,0-14.62,4.52-17.9,11.09h-13.91v.72h13.56c-1.09,2.41-1.71,5.07-1.75,7.86H9.83v.72h20.34c.04,1.94.35,3.81.9,5.57h-12.71v.72h12.96c.65,1.82,1.55,3.51,2.66,5.05H13.99v.72h20.54c3.67,4.6,9.31,7.55,15.63,7.55,11.03,0,20-8.97,20-20s-8.97-20-20-20ZM50.16,51.28c-10.63,0-19.28-8.65-19.28-19.28s8.65-19.28,19.28-19.28,19.28,8.65,19.28,19.28-8.65,19.28-19.28,19.28Z"/>
        <polygon class="cls-2" points="50.52 17.13 49.8 17.13 49.8 32.59 60.34 32.59 60.34 31.86 50.52 31.86 50.52 17.13"/>
      </g>
    </g>
  </g>
</svg>