<svg width="64" height="64" viewBox="0 0 64 64" fill="none" xmlns="http://www.w3.org/2000/svg">
<g clip-path="url(#clip0_72_5)">
<g clip-path="url(#clip1_72_5)">
<path d="M26 20.6667C26 24.0521 28.6667 26.7604 32 26.7604C35.3333 26.7604 38 24.0521 38 20.6667C38 17.2812 35.3333 14.5729 32 14.5729C28.6667 14.5729 26 17.2812 26 20.6667ZM35.3333 20.6667C35.3333 22.5625 33.8667 24.0521 32 24.0521C30.1333 24.0521 28.6667 22.5625 28.6667 20.6667C28.6667 18.7708 30.1333 17.2812 32 17.2812C33.8667 17.2812 35.3333 18.7708 35.3333 20.6667Z" fill="#2FA477"/>
<path d="M62.6667 28.3854H46.9333V12.1354C46.9333 11.7292 46.8 11.3229 46.4 11.0521L32.8 0.489567C32.2667 0.0833168 31.6 0.0833168 31.2 0.489567L17.6 11.0521C17.3333 11.3229 17.0667 11.7292 17.0667 12.1354V28.3854H1.33333C0.533333 28.3854 0 28.9271 0 29.7396V61.4271C0 62.2396 0.533333 62.7812 1.33333 62.7812H62.6667C63.4667 62.7812 64 62.2396 64 61.4271V29.7396C64 28.9271 63.4667 28.3854 62.6667 28.3854ZM2.66667 31.0937H17.0667V60.0729H2.66667V31.0937ZM28.6667 60.0729V48.6979H35.3333V60.0729H28.6667ZM44.2667 60.0729H38V47.3437C38 46.5312 37.4667 45.9896 36.6667 45.9896H27.3333C26.5333 45.9896 26 46.5312 26 47.3437V60.0729H19.7333V12.8125L32 3.1979L44.2667 12.8125V60.0729ZM61.3333 60.0729H46.9333V31.0937H61.3333V60.0729Z" fill="#2FA477"/>
<path d="M51.6 37.4583H56.6667C57.4667 37.4583 58 36.9166 58 36.1041C58 35.2916 57.4667 34.75 56.6667 34.75H51.6C50.8 34.75 50.2667 35.2916 50.2667 36.1041C50.2667 36.9166 50.8 37.4583 51.6 37.4583ZM51.6 43.8229H56.6667C57.4667 43.8229 58 43.2812 58 42.4687C58 41.6562 57.4667 41.1146 56.6667 41.1146H51.6C50.8 41.1146 50.2667 41.6562 50.2667 42.4687C50.2667 43.2812 50.8 43.8229 51.6 43.8229ZM51.6 50.0521H56.6667C57.4667 50.0521 58 49.5104 58 48.6979C58 47.8854 57.4667 47.3437 56.6667 47.3437H51.6C50.8 47.3437 50.2667 47.8854 50.2667 48.6979C50.2667 49.5104 50.8 50.0521 51.6 50.0521ZM51.6 56.4166H56.6667C57.4667 56.4166 58 55.875 58 55.0625C58 54.25 57.4667 53.7083 56.6667 53.7083H51.6C50.8 53.7083 50.2667 54.25 50.2667 55.0625C50.2667 55.875 50.8 56.4166 51.6 56.4166ZM7.33333 37.4583H12.4C13.2 37.4583 13.7333 36.9166 13.7333 36.1041C13.7333 35.2916 13.2 34.75 12.4 34.75H7.33333C6.53333 34.75 6 35.2916 6 36.1041C6 36.9166 6.53333 37.4583 7.33333 37.4583ZM12.4 41.1146H7.33333C6.53333 41.1146 6 41.6562 6 42.4687C6 43.2812 6.53333 43.8229 7.33333 43.8229H12.4C13.2 43.8229 13.7333 43.2812 13.7333 42.4687C13.7333 41.6562 13.2 41.1146 12.4 41.1146ZM12.4 47.3437H7.33333C6.53333 47.3437 6 47.8854 6 48.6979C6 49.5104 6.53333 50.0521 7.33333 50.0521H12.4C13.2 50.0521 13.7333 49.5104 13.7333 48.6979C13.7333 47.8854 13.2 47.3437 12.4 47.3437ZM12.4 53.7083H7.33333C6.53333 53.7083 6 54.25 6 55.0625C6 55.875 6.53333 56.4166 7.33333 56.4166H12.4C13.2 56.4166 13.7333 55.875 13.7333 55.0625C13.7333 54.25 13.2 53.7083 12.4 53.7083ZM23.7333 33.2604C23.7333 34.0729 24.2667 34.6146 25.0667 34.6146H38.8C39.6 34.6146 40.1333 34.0729 40.1333 33.2604C40.1333 32.4479 39.6 31.9062 38.8 31.9062H25.0667C24.4 31.9062 23.7333 32.4479 23.7333 33.2604ZM38.9333 38.5416H25.0667C24.2667 38.5416 23.7333 39.0833 23.7333 39.8958C23.7333 40.7083 24.2667 41.25 25.0667 41.25H38.8C39.6 41.25 40.1333 40.7083 40.1333 39.8958C40.1333 39.0833 39.6 38.5416 38.9333 38.5416V38.5416Z" fill="#2FA477"/>
</g>
</g>
<defs>
<clipPath id="clip0_72_5">
<rect width="64" height="64" fill="white"/>
</clipPath>
<clipPath id="clip1_72_5">
<rect width="64" height="65" fill="white" transform="translate(0 -1)"/>
</clipPath>
</defs>
</svg>
