<svg xmlns="http://www.w3.org/2000/svg" width="57" height="61">
  <path fill="#3c060c" d="M52.996 58.22c-.035.723-.308.998-.987 1-46.876.804-38.651.193-48.507.003-.417 0-.735-.161-.878-.553-.14-.384.01-.694.376-.932.224-.39.59-.345.914-.35 1.362-.019 2.724-.03 4.084.003.588.015.985-.1 1.152-.735.213-.664.717-1.083 1.233-1.512.065-.03.118-.007.138-.028.044-.047.015.015-.06-.044a.886.886 0 0 1-.137-.137c-.382-.46-.717-.912-1.047-1.412-1.117-1.795-1.35-3.828-1.369-5.902a.415.415 0 0 0-.1-.229c-.758-.676-1.328-1.417-1.341-2.497-.078-1.34.517-2.306 1.551-3.084.106-.067.19-.097.298-.15.374-.032.228-.408.34-.61.278-1.314 1.27-2.239 1.868-3.407.133-.23-.051-.281-.205-.335-2.397-.615-4.17-2.173-6.012-3.677-.142-.022-2.219-2.145-3.199-3.591-.031-.013-.901-1.255-.53-2.148.257-.619.223-1.115-.099-1.674-.15-.26-.06-.6.013-.941.206-1.302 2.284-.488 2.397-2.079-.194-2.825.62-5.35 2.305-7.599.3-.398.398-.7.133-1.155-.345-.592-.46-1.277-.65-1.968-.436-.496-.545-9.007 4.951-12.005 1.11-.238 1.82.497 1.832.529.418.682.507 1.428.669 2.157.576 2.585 2.218 4.16 4.813 4.581 2.277.37 4.555.726 6.73 1.54.268.1.417.054.502-.237.454-1.554 1.19-2.984 1.981-4.387.482-.854.847-1.754 1.145-2.684.48-1.503 1.8-2.026 3.148-1.2 1.094.669 1.873 1.65 2.515 2.741 1.804 2.845 2.235 6.68 1.858 9.616.148.06 4.314-3.244 8.818-3.028.664.03 1.16.335 1.328 1.01.059.235.171.256.368.268 1.998.122 3.937.526 5.7 1.496 2.83 1.556 4.746 3.854 5.438 7.066.168.785.114 1.585.014 2.38-.03.24-.058.482-.086.77-.166.046-.25-.071-.35-.22-.599-1.078-1.436-1.895-2.386-2.654-.05-.027-.071-.038-.121-.067-.595-.428-1.205-.832-1.801-1.258-.162-.128-.381-.25-.315-.502.07-.261.302-.315.58-.324.874.067 1.65.342 2.46.743-.394-.954-.959-1.727-1.622-2.426-2.15-2.27-4.802-3.36-7.923-3.397-1.253-.01-2.5.17-3.7.531-.235.07-.56.25-.709-.033-.124-.235.183-.415.342-.59.43-.472.946-.832 1.557-1.134-3.087.495-5.677 1.915-8.045 3.88-.936.85-1.734 1.76-2.26 2.89-.197.423-.235.816-.088 1.268.563 1.1.532 2.25.512 3.447-.015.419.106.693.588.758.058.013.08.017.137.027.179.05.305.135.475.195a1.348 1.348 0 0 1 .267.117c.13.062.257.128.383.196.038.022.053.031.089.055.034.025.048.036.1.08.076.07.15.143.223.216.05.052.062.066.093.101.03.037.042.053.07.093.06.095.11.162.162.266a.67.67 0 0 1 .04.129c.018.22.014.406.01.626a.957.957 0 0 1-.018.137c-.055.181-.148.31-.195.493-.014.04-.03.081-.048.12-.205.267-.05.456.092.679a.704.704 0 0 1 .052.129c.038.398.021.763.02 1.163-.005.058-.007.08-.016.136-.025.095-.05.154-.083.242-.014.047-.02.066-.037.111a1.785 1.785 0 0 1-.12.243c-.057.1-.11.203-.16.307a1.65 1.65 0 0 1-.117.182c-.053.07-.102.145-.145.222l-.081.123a5.234 5.234 0 0 1-.08.128.952.952 0 0 1-.074.103l-.098.113c-.053.063-.072.09-.104.138a1.571 1.571 0 0 1-.222.282l-.106.113c-.049.06-.084.097-.127.162l-.057.086-.077.102c-.05.067-.07.094-.103.142a1.17 1.17 0 0 1-.06.08l-.1.107c-.077.092-.159.18-.246.263l-.304.308-.191.203-.11.112-.114.118a7.206 7.206 0 0 1-.179.186c-.115.112-.189.181-.273.285-.05.058-.08.09-.137.145-1.178 1.28-2.59 2.162-4.125 2.87-.514.236-.516.257-.259.75.262.5.64.894 1.074 1.247 1.85 1.503 3.421 3.24 4.454 5.416 1.38 2.909 1.913 5.951 1.472 9.156-.18 1.307-.55 2.538-1.239 3.669-.145.236-.328.442-.53.708 2.504.219 4.478-.925 6.388-2.188.014-.13-.047-.157-.101-.19-.691-.434-.732-.851-.074-1.354.673-.514 1.34-1.031 1.91-1.66.482-.531.919-1.095 1.192-1.809.223-.488.461-.926.697-1.366.09-.17.207-.353.444-.292.218.056.215.253.212.47a3.71 3.71 0 0 0-.167 1.09c-.005.69-.187 1.343-.48 2.021.798-.817 1.335-1.713 1.605-2.784.152-.6.113-1.119-.3-1.632-.094-.394.004-.765-.095-1.163a.683.683 0 0 1 .004-.23c.145-.242.165-.488.236-.716.078-.25.211-.352.493-.21l.115.06c.044.028.06.04.12.092.08.07.147.152.22.228.032.036.064.07.11.066.055-.041.061-.077.073-.145.148-.726-.143-1.322-.444-1.945a.451.451 0 0 1-.13-.242c.08-.336-.096-.554-.266-.81a.647.647 0 0 1-.062-.133c-.051-.523.024-1.007.057-1.488.065-.948-.154-1.82-.555-2.7-.118-.162-.082-.348-.221-.495a.487.487 0 0 1-.129-.23c-.012-.179-.017-.325-.129-.474a1.053 1.053 0 0 1-.068-.102c-.094-.13-.131-.288-.195-.428.047-.124-.065-.209-.095-.305a.72.72 0 0 1-.087-.156c.02-.316-.19-.543-.295-.803a.427.427 0 0 1-.132-.29c-.047-.468-.34-.876-.567-1.289a.831.831 0 0 1-.056-.205c-.203-.572-.355-1.123-.522-1.708a1.317 1.317 0 0 1-.063-.208c-.063-.169-.066-.35-.098-.524a12.278 12.278 0 0 1 0-3.344c.005-.067.007-.093.014-.158.131-.513.32-1.005.508-1.499.176-.34.303-.67.528-.982l.061-.106c.08-.12.126-.163.228-.32a1.644 1.644 0 0 1 .19-.218l.092-.092c.043-.042.068-.066.11-.11.036-.04.07-.082.1-.126l.13-.198c.425-.449.9-.79 1.405-1.146.224-.129.352-.163.596-.305.05-.03.07-.04.124-.063.523-.223 1.042-.331 1.594-.462 1.303-.252 2.391.133 3.486.791.892.714 1.4 1.615 1.292 2.796-.041.446-.224.815-.58 1.086-.268.206-.574.226-.878.093-.291-.128-.394-.388-.375-.682.119-1.813-1.233-2.564-2.987-2.151-.526.123-1.001.385-1.49.696-1.57 1.052-2.244 2.546-2.377 4.345-.055 3.299 1.372 6.403 2.557 9.415.46.846.7 1.739.955 2.621.302 1.042.517 2.106.519 3.2.02.738-.078 1.475-.07 2.081.041 1.527-.973 3.904-.988 3.916-.867 2.179-1.62 2.78-3.202 4.025-1.236 1.357-3.003 2.333-4.374 3.391 7.6 0-1.018-.008 13.521-.033.449 0 .916-.01 1.26.427.057.07.09.113.104.196z"/>
  <path fill="#877676" d="M46.811 59.227c.17.075.348.057.423.256.01.618-.033.584-.595.814-13.726-.015-26.082-.023-40.356-.003-.228-.005-.41-.089-.504-.312-.093-.22-.004-.37.172-.501.043-.032.049-.114.072-.208 6.226-.043 19.582-.132 40.788-.046Z"/>
  <path fill="#3c060c" d="M48.07 34.097c-1.036-.322-1.822-1.099-2.616-1.845-1.208-1.49-1.606-3.203-1.35-5.074.095-.689.456-1.28.916-1.848.746-.059 1.165.42 1 1.1-.307 1.271-.268 2.514.291 3.717.515 1.107 1.34 1.906 2.428 2.442.146.072.298.131.466.24.14.155.299.195.453.234.273.07.467-.03.456-.323-.03-.808.278-1.502.694-2.201a.708.708 0 0 1 .057-.122c.08-.115.191-.156.241-.293.018-.049.027-.068.05-.116a.668.668 0 0 1 .254-.283c.145-.066.258-.12.284-.3a.674.674 0 0 1 .322-.434.915.915 0 0 1 .13-.062c.23-.05.366-.186.516-.302.459-.358.57-.317.712.291a.442.442 0 0 1-.065.27c-.337.532-.33.709.036 1.05a.38.38 0 0 1 .033.197c-.192.406-.642.605-1.006.84-.668.417-.71 1.052-.734 1.733-.382 1.116-.527 1.152-1.338 1.444-1.15.136-1.177.027-2.23-.355z"/>
  <path fill="#430609" d="M53.322 30.347c-.497-.317-.532-.555-.16-1.193.207.148.124.34.107.526.304-.278.575-.58.822-.951.906-1.166 1.12-2.464.93-3.854a14.815 14.815 0 0 0-.335-1.77c-.07-.267-.133-.54-.002-.848.334-.171.47.079.592.265.5.764.961 1.547.78 2.56-.232 2.095-1.23 3.714-2.569 5.293a.219.219 0 0 1-.165-.028z" style="fill:#3c060c;fill-opacity:1"/>
  <path fill="#f7c9b6" d="M56.064 25.092c.011-1.136-.588-2.038-1.273-2.937-.364-.204-.473-.508-.469-.897.284-.18.395.046.536.19.418.426.69.986 1.246 1.324.102.115.171.223.27.348a26.703 26.703 0 0 1-.31 1.972z"/>
  <path fill="#f05232" d="M34.808 29.342c.008-.03.012-.071.022-.09.057-.057.054-.116.08-.193.009-.027.013-.02.009-.018.21-.46.077-.934.026-1.429-.029-.024-.02-.023-.023-.02-.087-.233-.256-.454-.121-.77.012-.04.02-.025.014-.03.154-.116.136-.3.187-.493.004-.036-.005-.065.003-.077.198-.246.08-.5.031-.765-.027-.017-.043-.042-.039-.056.009-.133-.053-.222-.15-.326-.029-.018-.023-.025-.022-.02a.21.21 0 0 0-.075-.09c-.02-.014-.013-.018-.015-.015a.308.308 0 0 0-.084-.083c-.02-.013-.012-.017-.014-.014a.367.367 0 0 0-.085-.083c-.022-.012-.014-.015-.015-.011a.232.232 0 0 0-.088-.084c-.024-.008-.014-.009-.015-.004-.024-.06-.086-.066-.168-.092-.027-.012-.018-.021-.021-.015-.034-.052-.093-.057-.173-.083-.025-.013-.017-.024-.021-.018-.037-.05-.096-.054-.176-.078-.026-.011-.021-.023-.024-.017-.124-.128-.297-.13-.49-.177-.036-.006-.067-.003-.08-.012-.026-.02-.036-.034-.05-.04-.771-.33-.79-.332-.73-1.228.025-.356-.208-.737.112-1.098a1.97 1.97 0 0 1 .147-.167c.414-.522.46-1.15.676-1.748.023-.097.05-.158.093-.246a1.22 1.22 0 0 1 .06-.111c.027-.044.038-.062.083-.13.082-.139.135-.225.158-.357a.61.61 0 0 1 .121-.215c.148-.1.2-.234.278-.384a.773.773 0 0 1 .07-.098c.09-.088.182-.135.22-.267a.839.839 0 0 1 .056-.109.87.87 0 0 1 .078-.096.838.838 0 0 1 .094-.081.505.505 0 0 0 .267-.313.933.933 0 0 1 .212-.283l.12-.118c.045-.047.072-.073.12-.12a1.075 1.075 0 0 1 .177-.151.574.574 0 0 0 .214-.194c.025-.042.035-.059.062-.1a2.907 2.907 0 0 1 .286-.308c.052-.05.065-.062.115-.114a1.46 1.46 0 0 0 .105-.126c.045-.06.056-.076.086-.114a.761.761 0 0 1 .228-.188c.118-.052.226-.054.31-.169a.822.822 0 0 1 .08-.101.69.69 0 0 1 .107-.084.542.542 0 0 1 .132-.049c.23-.01.366.065.4.308a.466.466 0 0 1-.057.199 1.51 1.51 0 0 1-.095.132c-.061.082-.079.115-.081.177.02.036.033.048.072.07a.79.79 0 0 0 .543-.281.518.518 0 0 1 .105-.085.707.707 0 0 1 .26-.066c.206-.023.428.057.495-.246.02-.05.029-.07.056-.118.057-.081.11-.122.18-.195a.64.64 0 0 1 .11-.076c.414-.072.722-.287 1.056-.522a.628.628 0 0 1 .118-.067c.277-.057.539-.02.753-.211.09-.08.264-.143.363-.066.352.275.45-.074.658-.247a.327.327 0 0 1 .193-.038c.14.022.239.25.378-.006a.31.31 0 0 1 .302-.095c.167.072.188.235.297.324.18-.082.173-.3.351-.407a.383.383 0 0 1 .283-.01c.449.328.81.66.639 1.266-.05.173.126.195.253.218.4.075.785.176 1.088.478.16.159.34.12.54.045.655-.251.842-.18 1.195.442.07.121.181.18.278.263.58.5.555 1.131-.082 1.528-.251.156-.21.38-.22.597-.024.48.066.981-.318 1.417-.372.198-.754.13-1.116.197-.508.093-1.006.208-1.516.425-.172.06-.301.124-.465.196-.24.096-.436.205-.66.332-.334.165-.621.338-.877.618a.704.704 0 0 1-.116.084c-2.175 1.922-3.174 4.325-3.25 7.174-.062 2.405.63 4.616 1.552 6.786.542 1.275 1.239 2.47 1.879 3.736l.108.195c.227.562.443 1.088.717 1.588.214.388.367.795.451 1.265.02.03.023.025.02.027.126.226.27.442.317.739a.616.616 0 0 0 .06.216c.298.68.584 1.337.547 2.117-.03.14-.053.242-.114.357-.062-.009-.08-.035-.11-.083-.019-.016-.017-.023-.02-.024-.018-.019-.031-.037-.067-.079-.024-.024-.024-.022-.023-.023a1.232 1.232 0 0 1-.082-.085c-.014-.02-.016-.013-.013-.014a.513.513 0 0 1-.084-.084c-.015-.02-.016-.013-.013-.014a.651.651 0 0 1-.085-.084c-.014-.02-.015-.013-.012-.015-.085-.071-.157-.16-.245-.23-.245-.195-.374-.134-.396.18-.016.223-.056.445-.068.703-.021.078-.035.123-.045.205.058.39-.03.74-.037 1.134-.042.409-.14.762-.28 1.102-.09.222-.202.441-.524.459-.03-.094-.015-.174-.01-.255.006-.099.001-.209-.119-.232-.125-.024-.152.097-.195.178-.241.457-.48.915-.733 1.404-.777 1.254-2.026 1.837-3.243 2.443a8.846 8.846 0 0 1-2.501.796c-.505.083-.681-.07-.539-.534.878-2.855.35-5.59-.667-8.29-.165-.44-.39-.859-.454-1.37a.333.333 0 0 1 .063-.136c.39-.137.564.222.899.322a6.024 6.024 0 0 0-.656-2.356c-.788-1.568-1.682-3.08-2.427-4.671-.345-.737-.672-1.48-.858-2.277-.047-.205-.117-.41.022-.644a.867.867 0 0 1 .105-.122c.114-.084.23-.13.286-.279.02-.023.018-.027.02-.027l.072-.068c.025-.022.026-.029.029-.028.056-.04.11-.08.171-.16.04-.053.06-.08.102-.121.037-.03.051-.047.09-.087l.023-.024c.022-.021.045-.043.081-.082.015-.017.017-.015.016-.016a.973.973 0 0 0 .081-.082c.015-.018.018-.015.016-.016a.733.733 0 0 0 .082-.083c.015-.018.017-.014.015-.015a.436.436 0 0 0 .081-.087c.012-.021.015-.013.01-.014a.29.29 0 0 0 .087-.085c.01-.022.014-.014.01-.015a.228.228 0 0 0 .086-.085c.009-.024.006-.015.004-.019.072-.034.119-.096.175-.183.005-.028.015-.025.01-.022.07-.01.074-.07.104-.15.015-.025.02-.024.018-.026a.309.309 0 0 0 .081-.086c.01-.022.01-.011.008-.016.092-.052.124-.147.188-.254.035-.05.05-.079.087-.12a.41.41 0 0 0 .109-.098c.012-.021.013-.013.009-.014a.241.241 0 0 0 .086-.087c.009-.024.01-.014.005-.014.056-.026.064-.084.097-.158.02-.02.017-.026.02-.026l.077-.09c.012-.018.016-.012.012-.013a.273.273 0 0 0 .083-.099.772.772 0 0 1 .097-.176.887.887 0 0 0 .1-.103c.013-.021.014-.013.01-.013.05-.034.057-.092.086-.171.016-.024.02-.02.018-.022a.29.29 0 0 0 .08-.106c.007-.026.013-.062.023-.077.024-.032.038-.049.067-.095.015-.029.018-.02.013-.022.058-.03.062-.09.09-.172.012-.026.016-.02.012-.02.057-.035.058-.1.08-.188z"/>
  <path fill="#ef5335" d="M15.954 11.996c-.035-.537-.45-.732-.827-.92-.357-.177-.758-.264-1.14-.39-.987-.324-1.677-.937-1.916-2.015.186-.168.33-.059.442.05 1.183 1.15 2.7 1.561 4.235 1.948 1.462.367 2.942.673 4.343 1.26 1.357.567 2.622 1.277 3.746 2.232.415.353.469.342.68-.07.073-.301.1-.423.12-.541.043-.14.08-.247.071-.396-.012-.228.026-.413.133-.831.42-2.563 1.841-4.744 2.908-7.06.103-.233.177-.497.507-.584.427.261.289.7.315 1.031.1 1.245.057 2.496-.151 3.776a13.575 13.575 0 0 1-1.6 4.66c-.266.47-.593.898-1.07 1.18-.235.137-.266.277-.093.503 1.366 1.772 2.11 3.79 2.343 6.006.085.81.054 1.623.02 2.435-.009.21-.062.418-.216.628-.517.258-1.021.36-1.59.194-.246-.348-.168-.707-.166-1.096.034-.25.04-.459-.011-.702-.093-.27-.03-.342-.1-.539-.024-.091-.033-.152-.055-.242a4.114 4.114 0 0 0-.048-.177c-.04-.124-.091-.244-.137-.366-.575-1.464-1.452-2.637-2.915-3.215-1.959-.774-4.45-.116-5.765 1.684-1.248 1.709-1.49 3.56-.764 5.578.03.077.046.121.077.197l.057.13a1 1 0 0 1 .06.21.395.395 0 0 1-.077.283c-.72.224-1.388.517-2.145.601-.1-.067-.155-.13-.179-.207-.276-.895-1.03-1.115-1.814-1.216-.775-.1-1.55-.036-2.262.358-.127.07-.262.13-.45.07-.23-.3-.108-.587-.038-.863a11.35 11.35 0 0 0 .36-3.087 6.032 6.032 0 0 0-.642-2.578c-.717-1.43-1.918-1.497-3.27-1.033-.206.041-.372.107-.578.04-.076-.076-.084-.143-.073-.244.02-.119.075-.232.149-.375l.073-.136c.04-.074.075-.15.112-.224l.037-.094c.02-.057.033-.09.055-.147.033-.106.122-.178.182-.267.07-.084.13-.173.196-.259.071-.085.12-.185.18-.276a.769.769 0 0 1 .115-.204c.032-.038.046-.053.102-.111.082-.083.15-.177.205-.28 1.992-2.533 4.963-3.408 8.081-4.229.069-.024.108-.035.188-.08z" style="fill:#f05232;fill-opacity:1"/>
  <path fill="#fef3ea" d="M15.177 27.36c.6-.092 1.09-.428 1.66-.498.141-.017.28-.056.46-.09.423.213.771.474 1.036.834.464.633 1.078 1.147 1.782 1.404 1.152.42 2.404.646 3.561.075.738-.364 1.556-.666 2.13-1.302.488-.54.954-1.11.965-1.905.005-.325.03-.66.406-.84.534-.053 1.03-.114 1.566-.188.263-.2.504-.209.788-.038 1.11.234 2.191.42 3.207.86.678.294.7.349.31.954-.07.109-.14.217-.235.347-.185.158-.335.327-.537.384-.542.153-.777.54-.979 1.038-.453 1.12-1.262 1.988-2.163 2.773-.6.523-1.245.986-1.943 1.433a1.623 1.623 0 0 1-.23.137c-.11.046-.194.07-.295.138-.185.112-.346.2-.54.306-1.508.815-3.103 1.274-4.736 1.591-4.104.799-8.127.486-12.049-.983a15.461 15.461 0 0 1-3.558-1.913c-.659-.47-1.21-1.039-1.609-1.744-.156-.276-.333-.419-.666-.306-.264.09-.514.006-.773-.17-.22-.231-.406-.444-.62-.689.298-.013.523.184.805.016-.257-.418-.229-.84.031-1.257.135-.216.048-.396-.14-.548-.282-.23-.446-.548-.632-.853-.177-.29-.124-.467.194-.595.588-.235 1.187-.416 1.856-.49.146.062.219.15.243.265.316 1.496 1.274 2.539 2.424 3.448.436.344 1.514.321 2.018-.05.156-.116.299-.25.512-.34.363-.043.53-.233.565-.588a.771.771 0 0 1 .047-.205c.062-.123.127-.195.26-.237.053-.001.076-.003.084.007.56.685 1.067 1.412 1.768 1.978.224.18.055.416-.168.55-.417.25-.946.17-1.352-.189-.18-.16-.356-.518-.622-.26-.245.239-.037.555.14.79.521.685 1.551.942 2.332.544.388-.197.698-.197 1.092 0 .985.495 2.024.195 2.654-.71a1.06 1.06 0 0 0 .205-.437c.03-.18-.028-.32-.196-.403-.17-.085-.274.02-.374.134-.054.061-.099.13-.15.193-.347.432-.811.579-1.344.515-.299-.036-.582-.141-.697-.456-.112-.31.077-.53.28-.727.378-.368.65-.807.875-1.279.077-.161.144-.329.352-.425z"/>
  <path fill="#ba2e1f" d="M31.487 33.46c.124.977.521 1.869.928 2.753.767 1.671 1.722 3.245 2.535 4.892.399.806.597 1.672.679 2.619-.43-.122-.679-.444-1.052-.61.244.772.523 1.548.795 2.327.546 1.558.873 3.16.815 4.813-.032.935-.142 1.876-.493 2.763-.104.264-.073.353.245.293a11.41 11.41 0 0 0 5.374-2.584c.17-.145.312-.322.499-.492-.397 1.183-1.258 2.038-2.188 2.834-.333.285-.699.53-1.034.811-.168.14-.396.288-.311.559.085.27.32.392.581.47.114.034.302-.05.329.125.022.147-.153.191-.256.26-1.298.874-2.647 1.633-4.17 2.073-.884.256-1.761.182-2.765.198a6.202 6.202 0 0 0 1.49-2.405c.653-1.873.764-3.803.595-5.766-.148-1.7-.588-3.324-1.25-4.884-1.026-2.422-2.69-4.357-4.729-5.982-.562-.448-.954-1.011-1.292-1.628-.163-.3.02-.407.255-.502 1.243-.506 2.397-1.162 3.414-2.045.331-.287.65-.588 1.006-.893z" style="fill:#c02c1f;fill-opacity:1"/>
  <path fill="#ba2d1f" d="M44.675 20.576c.844-.499 1.75-.597 2.716-.63.32-.209.636-.16.94-.136 2.66.205 4.978 2.061 5.812 4.597a7.808 7.808 0 0 1 .32 3.557c-.04.297-.209.546-.27.872-.292.442-.588.825-1.044 1.066-.128-.264.078-.46.048-.718.024-.089.048-.139.07-.218-.002-.427-.158-.8-.146-1.303-.374.507-.497 1.045-.98 1.358-.026.022-.022.026-.022.024a.911.911 0 0 1-.078.082c-.08.086-.147.154-.219.25-.075.194-.225.286-.368.427-.055.03-.08.048-.106.096-.03.044-.052.067-.089.107l-.017.017c-.084.116-.133.256-.276.366-.023.02-.018.025-.02.022-.465.767-.834 1.563-.79 2.498.012.25-.152.34-.392.26-.168-.057-.351-.062-.54-.178-1.694-.666-2.842-1.807-3.351-3.53-.29-.98-.323-1.996-.027-2.975.148-.489.082-.764-.378-.955-.103-.043-.194-.115-.322-.179a1.35 1.35 0 0 1-.15-.817c.864-.604 1.776-.968 2.839-.876 1.176.1 2.06 1.14 1.907 2.315-.037.279-.037.54.236.673.303.147.594.091.847-.156.535-.52.602-1.637.127-2.459-.73-1.26-1.844-1.873-3.283-1.925-.244-.009-.488-.001-.777-.006-.388-.286-.794-.476-1.1-.825-.159-.182-.5-.055-.788-.122a.571.571 0 0 1-.133-.061c-.138-.159-.27-.286-.196-.518z" style="fill:#c02c1f;fill-opacity:1"/>
  <path fill="#ef5234" d="M27.628 55.642c-.66-1.373-1.925-1.584-3.193-1.785-.176-.027-.358-.015-.58-.027-.922-.248-1.592-.782-2.156-1.522a1.507 1.507 0 0 1-.081-.348c.58-1.72.923-3.515 2.355-4.774.146-.128.32-.22.477-.388.109-.107.211-.162.34-.239.184-.092.345-.158.51-.282a.88.88 0 0 1 .118-.055 1.02 1.02 0 0 0 .414-.164c.473-.124.854-.352 1.236-.65.548-.017.969.297 1.483.443.215.01.335.122.454.235 1.457 1.39 2.424 3.053 2.725 5.06.274 1.83-1.04 4.342-3.5 4.668-.21.027-.427.073-.602-.172z"/>
  <path fill="#fef3ea" d="M10.34 51.832c-.666-1.215-.847-2.505-.872-3.83-.003-.2.057-.29.277-.293.19-.004.428-.016.562-.125.513-.42.855-.114 1.234.209.559.476 1.214.809 1.845 1.176.221.128.412.13.639.018.789-.389 1.571-.782 2.18-1.441.09-.096.17-.204.328-.118 1.155.634 2.421.77 3.725.797-.46 1.71-.447 3.39.096 5.092-.095.267-.311.358-.516.45-2.521 1.147-4.99.94-7.408-.308-.783-.405-1.513-.887-2.09-1.627z" style="fill:#fce6dd;fill-opacity:1"/>
  <path fill="#eaaf93" d="M2.71 29.67c.386-.018.795.138 1.16-.161.109-.09.169-.002.213.098.667 1.505 1.963 2.344 3.325 3.096 2.087 1.152 4.34 1.79 6.696 2.112 2.485.34 4.959.277 7.41-.227 1.577-.323 3.11-.809 4.595-1.535.303.378.368.814.346 1.28.553-.159.975-.704 1.637-.426-1.872 1.244-3.916 2.091-6.113 2.582-.789.176-.968.808-.404 1.421.001.052-.02.075-.081.121-1.264.154-2.489.114-3.712.045a13.157 13.157 0 0 1-1.393-.164c-.222-.036-.451-.055-.663-.25-.493-1.267-1.129-1.658-2.453-1.487-.723.093-1.38-.152-2.042-.36-3.509-1.099-6.311-3.19-8.522-6.144Z"/>
  <path fill="#fce6dd" d="M36.824 15.748c-.082.066-.143.11-.218.18a.58.58 0 0 1-.099.113c-.02.015-.013.016-.013.012a.594.594 0 0 1-.085.086c-.02.014-.013.015-.013.012a.521.521 0 0 1-.085.085c-.02.014-.013.014-.014.01 0-.003-.033.033-.054.045a.39.39 0 0 0-.073.063c-.016.018-.042.059-.062.072-.021.012-.013.015-.012.01a.206.206 0 0 1-.083.09c-.024.01-.015.01-.018.005a2.954 2.954 0 0 1-.37.375c-.028.015-.018.02-.02.015-.015.014-.027.033-.07.067-.191.094-.37.09-.538.128-.394.087-.423.161-.213.57a.22.22 0 0 1-.032.195c-.026.025-.02.029-.02.025a.306.306 0 0 1-.075.088l-.017.018c-.082.116-.133.254-.268.369-.021.022-.025.022-.024.024-.122.126-.149.307-.281.46a.689.689 0 0 0-.122.163c-.036.159-.138.265-.188.415-.033.011-.023.016-.023.01.004.031-.007.062-.057.101-.022.015-.013.018-.017.015-.025.037-.046.077-.09.144a.676.676 0 0 1-.098.1.304.304 0 0 1-.136.038c-.301-.09-.26-.275-.19-.474.227-.637.435-1.277.366-1.972-.021-.212.003-.463.229-.548.43-.162.463-.49.44-.865a.997.997 0 0 1 .062-.37c1.483-1.43 3.228-2.382 5.073-3.173a10.51 10.51 0 0 1 3.588-.838c-.876.516-1.77 1.005-2.462 1.992 2.857-.996 5.618-1.107 8.358-.085 2.76 1.03 4.79 2.858 5.949 5.597-.8-.523-1.706-.706-2.632-.942-.323-.062-.518-.267-.723-.443-.802-.688-1.742-1.108-2.704-1.522-1.116-.48-2.327-.518-3.464-.874-.109-.034-.296.03-.205-.23a.523.523 0 0 1 .22-.159l.116-.047c.086-.027.143-.04.227-.068.044-.017.062-.024.107-.039.08-.027.136-.04.216-.07l.11-.042.117-.04a3.4 3.4 0 0 1 .187-.062.877.877 0 0 1 .14-.023 10.5 10.5 0 0 1 .906.009c.182.048.326.096.518.082.306.046.559.152.863.197.303.14.631.157.793.34-.185-.189-.525-.223-.856-.358-.625-.122-1.098-.521-1.695-.644-.758-.156-1.506-.368-2.285-.312-.325.023-.624-.199-.985-.047a.506.506 0 0 1-.233.04c-.452-.053-.835.085-1.256.203-.585.156-1.114.382-1.711.5-.035.014-.028.01-.032.008a3.474 3.474 0 0 1-1.145.578c-.033.012-.022.01-.027.008-.034.08-.103.122-.201.15-.028-.012-.05-.006-.055.004.055.11-.042.147-.111.222-.08.045-.137.066-.22.104a1.49 1.49 0 0 1-.11.056 2.794 2.794 0 0 0-.346.148c-.027.017-.02.02-.022.017-.185.22-.428.343-.737.406-.034-.007-.044-.02-.052-.017-.081-.099-.043-.209-.006-.35.025-.033.018-.033.02-.03a.759.759 0 0 1 .074-.086c.04-.044.066-.07.1-.123.14-.407.417-.673.716-.92-.345.2-.651.466-1.064.615-.027.02-.025.021-.025.02a.637.637 0 0 1-.09.08c-.02.011-.012.013-.014.009a.916.916 0 0 1-.35.285z"/>
  <path fill="#bd2e21" d="M27.601 55.652c.785.128 1.488-.124 2.103-.548 1.93-1.333 2.35-3.52 1.402-5.694a10.261 10.261 0 0 0-2.504-3.525c.807-.745.779-1.02-.191-1.577-.426-.857-.79-1.712-1.353-2.456-.53-.699-1.014-1.434-1.65-2.047a5.386 5.386 0 0 0-2.197-1.313c-.345-.105-.747-.13-.975-.514a85.14 85.14 0 0 1 2.826-.73c.201-.05.315.06.368.23.348 1.124 1.237 1.805 2.078 2.517 2.977 2.52 4.71 5.69 5.1 9.591.189 1.897.032 3.736-.8 5.466-.601 1.247-1.477 2.217-3 2.406-.657-.101-1.016-.529-1.318-1.045.066-.26.137-.484.111-.761zm1.977-30.834a4.896 4.896 0 0 1-.754.026c.194-1.717.1-3.416-.369-5.068-.418-1.475-1.057-2.865-2.092-4.032-.178-.2-.24-.287.075-.434.868-.402 1.286-1.208 1.654-2.027.52-1.156.946-2.346 1.173-3.64.03-.046.055-.053.112-.039.223.323.159.652.109.97-.267 1.69-.585 3.366-1.21 4.97-.084.213-.232.465.081.64.314.176.56.078.763-.192.316-.421.522-.9.701-1.39.348-.949.595-1.927.772-2.921.158-.888.153-.889.75-1.521-.494-.088-.511-.462-.47-.82.063-.56.004-1.137.245-1.7.448-.025.564.31.69.597.41.929.624 1.916.741 2.917.091.77.15 1.542.05 2.328a6.213 6.213 0 0 1-.475 1.765c-.021.037-.022.03-.02.03.004 0-.031.032-.033.056-.43.71-.862 1.396-1.289 2.085-.09.144-.171.26-.312.053-.135-.2-.255-.478-.554-.24-.267.213-.432.467-.228.843.53.98.848 2.034 1.06 3.124.155.806.098 1.618.07 2.429-.013.398-.343.56-.622.753-.2.138-.402.272-.618.438z" style="fill:#c02c1f;fill-opacity:1"/>
  <path fill="#ea5738" d="M22.201 37.939c.245.215.531.25.79.318 1.394.369 2.456 1.194 3.311 2.327.682.903 1.38 1.794 1.851 2.836.114.251.23.5.238.823-2.274-.98-4.333-.584-6.22.976-.355.294-.613.673-.953 1.021-.324.213-.654.27-1.003.27-1.094.004-2.18-.019-3.15-.635-.138-.088-.257-.199-.433-.304a.355.355 0 0 1-.072-.082c-.018-.04-.026-.061-.06-.103-.2-.21-.225-.447-.232-.723.29-.49.773-.468 1.258-.544.27.025.496.027.765-.006.405-.03.77-.009 1.173-.013.19.016.338.059.524 0 .1-.033.169-.045.27-.068l.194-.042c.094-.022.157-.03.251-.042a.72.72 0 0 0 .24-.055c.126-.042.226-.068.351-.115.214-.052.376-.146.568-.248.046-.027.065-.037.114-.06.187-.086.346-.156.514-.277.042-.034.06-.047.104-.078a1.26 1.26 0 0 0 .218-.143.939.939 0 0 1 .109-.076c.889-.708 1.57-1.527 1.877-2.62a6.973 6.973 0 0 1-1.944 1.66c-.08-.33-.257-.434-.567-.417-.382.02-.765.013-1.18.104-.187-.165-.124-.34-.066-.509.3-.87.473-1.755.357-2.68a.624.624 0 0 1 .108-.456c.025-.033.058-.034.075-.036.204-.004.391-.006.62-.003z"/>
  <path fill="#ee5336" d="M46.381 14.682a.213.213 0 0 1-.074.06c-.018.005-.061-.013-.084-.01a.55.55 0 0 0-.135.027.36.36 0 0 1-.11.027c-.088.08-.181.037-.278.081l-.024.02c-.07.069-.165.037-.265.086-.02.026-.029.014-.023.02-.046.031-.104.039-.177.078-.234.325.087.178.14.187 1.81.299 3.586.688 5.193 1.637.564.333 1.049.753 1.53 1.23a.297.297 0 0 1-.176.081c-.145.016-.317.012-.368.175-.066.208.137.268.26.354.555.389 1.115.77 1.686 1.183a.458.458 0 0 0 .098.129c.021.016.012.015.013.01.17.217.436.35.57.643.038.063.058.1.094.162.068.115.12.203.135.337.12.313.242.595.37.907-.046.871.313 1.644.417 2.462.197 1.543.118 3.006-.973 4.282.03-.752.204-1.51.174-2.295-.123-3.22-2.286-5.995-5.593-6.511-.421-.066-.837-.065-1.301-.097.226-.523.137-1.082.15-1.63.004-.21-.031-.455.267-.489.268-.03.543-.114.486-.41-.06-.318-.018-.753-.472-.87-.19-.048-.252-.155-.285-.337-.078-.439-.478-.615-.856-.348-.392.277-.624.205-.933-.155-.246-.286-.67-.35-1.07-.336-.171.006-.435.022-.263-.271.291-.496.114-.822-.317-1.094-.035-.022-.043-.084-.069-.161.877-.197 1.731-.003 2.58.196.25.058.509.102.75.201.161.067.359.095.336.379-.048.09-.095.115-.198.109-.41-.17-.798-.06-1.205-.05z" style="fill:#f05232;fill-opacity:1"/>
  <path fill="#c02c1f" d="M44.867 21.059c.286-.02.544-.017.803-.02.173-.002.324.036.4.21.123.284.293.49.642.501.142.005.127.162.135.31-.042.046-.084.054-.158.061-.617-.023-1.146.163-1.67.464-.021.026-.028.02-.024.022-.107.064-.25.049-.37.17a.878.878 0 0 1-.185.124c-.669.165-1.081.626-1.476 1.144a.574.574 0 0 1-.111.2c-.037.032-.048.05-.084.086-.042.047-.06.075-.1.114a1.106 1.106 0 0 0-.101.097c-.014.018-.017.013-.014.014a.482.482 0 0 0-.083.085c-.013.02-.017.013-.013.014a.296.296 0 0 0-.084.101c-.01.026-.012.062-.02.078a.603.603 0 0 1-.073.088l-.023.024a1.074 1.074 0 0 0-.08.086c-.014.019-.014.012-.011.014-.32.267-.48.624-.58 1.047a1.06 1.06 0 0 1-.086.297c-.238.364-.396.724-.392 1.17-.017.029-.02.022-.017.024-.143.162-.116.37-.12.556-.027.997-.122 1.996.096 3.022.034.067.04.1.04.158.002.087.026.147.05.236.025.068.034.11.044.182-.118.69.281 1.194.526 1.776a.636.636 0 0 1 .059.178c-.151.484-.097.852.318 1.175.202.157.33.478.271.744-.101.458.05.733.478.933.111.31.152.597.158.89.004.209.052.39.316.47a.58.58 0 0 1 .114.082c.132.26.02.384-.216.453.153.058.305.015.462.104.06.05.084.088.115.16.03.117.048.202.095.316.013.057.016.08.023.14.033.42-.13.666-.548.756a.64.64 0 0 1-.141-.014.578.578 0 0 1-.225-.134c-.045-.024-.064-.03-.11-.051-.674-1.047-1.23-2.129-1.742-3.231-.74-1.594-1.379-3.232-1.662-4.975-.51-3.144-.051-6.086 1.987-8.645.34-.426.723-.835 1.227-1.143.249.215.062.434.007.644.952-.054 1.59-.587 2.153-1.307z"/>
  <path fill="#fde2d7" d="M25.945 12.308a3.28 3.28 0 0 1-.023.302c-.067.154-.058.32-.088.483-.082.131-.08.245-.081.392-.004.14-.007.247-.02.391a.509.509 0 0 1-.059.142c-.013.103-.01.187-.03.264-.124.469-.243.517-.622.216-.688-.545-1.377-1.085-2.135-1.536-1.916-1.142-4.053-1.653-6.186-2.158-1.682-.398-3.283-.927-4.585-2.171-.4-.603-.339-1.193.023-1.808 1.504 1.784 3.569 2.29 5.716 2.592 1.901.267 3.78.598 5.494 1.537.515.282.998.602 1.483 1.03.087-.678.29-1.334.519-1.952.05-.211.104-.389.181-.59.395-.134.462.173.446.378-.053.674.275 1.35-.026 2.02-.058.13.011.286-.007.468z" style="fill:#f9d8c8;fill-opacity:1"/>
  <path fill="#ea5738" d="M10.313 2.372c.32.51.248 1.085.389 1.611.004.016 0 .034.005.049.365 1.038.205 1.986-.233 3.006-.522 1.215-.285 2.496.303 3.675.183.367.123.517-.25.677a14.744 14.744 0 0 0-3.187 1.836c-.295-.159-.298-.45-.357-.712-.039-.172-.012-.356-.106-.562-.16-1.64-.081-3.042 1.083-5.664.283-.638.613-1.256.997-1.883l.062-.119c.035-.066.058-.101.097-.161.107-.136.184-.29.276-.435l.092-.159c.297-.398.376-.906.829-1.16Z" style="fill:#f05232;fill-opacity:1"/>
  <path fill="#eaaf93" d="M10.312 51.843c.15-.056.236.052.329.14 2.533 2.403 6.541 3.16 9.682 1.375.254.462.431.953.726 1.383.114.166.103.276-.053.403-.556.452-.921 1.042-1.181 1.7-.063.158-.14.233-.316.232-2.982-.024-7.54-1.384-9.187-5.233z"/>
  <path fill="#ebab8e" d="M28.144 33.92c-.59-.014-1.057.197-1.458.567-.123.114-.25.157-.395.08-.16-.085-.11-.203-.031-.325a.455.455 0 0 0-.014-.547c-.128-.175-.094-.371-.102-.605.143-.131.286-.222.46-.322.099-.083.194-.046.296-.095.021-.024.025-.018.02-.018a.369.369 0 0 0 .086-.085c.976-.681 1.935-1.343 2.747-2.197.725-.762 1.314-1.605 1.644-2.612.04-.124.056-.234.21-.293.375-.146.74-.32 1.145-.477.006.223-.04.43.019.664.081.32.023.638-.183.921-.079.108-.26.217-.153.37.079.113.242.015.368.012.097-.003.194-.011.328-.018-.293.659-.766 1.222-1.247 1.768-1.087 1.234-2.223 2.423-3.74 3.213z"/>
  <path fill="#f3e2d6" d="M6.534 18.28c-.019.02-.04.045-.04.06a.173.173 0 0 1-.05.136c-.019.02-.04.05-.042.068a.483.483 0 0 1-.059.17c-.089.193-.03.378-.104.58-.267.506-.69.874-.894 1.425-.27.53-.403 1.063-.509 1.607-.041.21-.058.484-.435.396-.178-3.733 1.333-6.615 4.36-8.713 1.975-1.367 4.252-1.852 6.584-2.143a1.02 1.02 0 0 1 .61.087c.04.01.04 0 .036-.001-.004-.002.018.03.017.048-.112.306-.385.286-.615.33-2.27.423-4.39 1.19-6.19 2.69-.498.415-1.019.81-1.425 1.365-.017.069-.033.102-.086.139-.027.01-.018.01-.019.005-.008.03-.025.06-.074.096-.022.013-.014.015-.015.01a.261.261 0 0 1-.076.088.97.97 0 0 0-.125.148c-.025.107-.09.159-.162.24-.022.02-.042.039-.041.053-.01.103-.104.135-.153.235-.017.026-.024.028-.023.031-.041.042-.064.094-.108.166-.028.044-.044.062-.071.116-.072.055-.063.114-.095.18-.015.021-.02.023-.02.026-.045.04-.047.097-.08.17l-.017.021c-.042.042-.048.097-.08.17z" style="fill:#f9d8c8;fill-opacity:1"/>
  <path fill="#fef3ea" d="M21.487 37.942c.225 1.247.068 2.448-.42 3.642-.653.182-1.319.168-1.983.196-.286.013-.39-.065-.431-.356-.227-1.6-1.146-2.667-2.603-3.307-.18-.079-.435-.101-.365-.447 1.91.303 3.833.31 5.802.272z" style="fill:#fce6dd;fill-opacity:1"/>
  <path fill="#ea5738" d="M32.131 15.267c-.038-.62.229-1.204.29-1.838.136-1.38-.073-2.701-.402-4.02-.156-.627-.311-1.259-.826-1.747-.272-.145-.246-.387-.248-.603-.005-.56-.017-1.12-.07-1.717.014-.16.057-.276.047-.432a3.85 3.85 0 0 0-.02-.131.74.74 0 0 0-.092-.315.693.693 0 0 1-.063-.353c.077-.233.1-.48.447-.382.033.022.029.025.03.023.04.044.045.104.094.17.026.015.016.018.016.013a.201.201 0 0 0 .071.094c.02.015.014.016.016.013.049.084.106.166.174.274.02.023.018.024.019.023.041.043.046.101.087.171.954 1.62 1.56 3.327 1.676 5.19.07 1.12.039 2.23-.18 3.336-.163.831-.485 1.573-1.066 2.231z" style="fill:#f05232;fill-opacity:1"/>
  <path fill="#fcf9f9" d="M4.362 22.744c.249-.032.271-.182.302-.38.09-.582.205-1.162.553-1.695.2-.19.354-.406.683-.27.141.203.05.365-.01.533-.564 1.59-.662 3.208-.257 4.845.17.69.553 1.282 1.006 1.823.18.215.407.373.66.495.726.349 1.319.187 1.777-.484.128-.187.186-.42.418-.576.543.047.643.16.635.7l-.001.205c-.145.274-.223.57-.559.695-.402.113-.557.52-.946.625-.986.265-1.779.026-2.482-.718-.558-.59-1.046-1.195-1.439-1.922-.234-.433-.29-.863-.426-1.335.193-.479.06-.942.086-1.394.022-.366-.003-.734 0-1.147z" style="fill:#f9f6f6;fill-opacity:1"/>
  <path fill="#f9d8c8" d="M25.963 12.315c-.179-.25-.243-.527-.011-.808.046-.056.093-.187.068-.213-.416-.432-.089-.946-.166-1.413-.03-.178-.04-.353-.262-.455.372-1.227.94-2.374 1.585-3.479.696-1.194 1.18-2.482 1.77-3.756.477.072.461.49.615.836.043.16.044.286.027.45-.02.132-.06.222-.075.354a1.088 1.088 0 0 1-.033.214c-.096.232-.082.471-.287.654-.533 1.187-1.128 2.305-1.714 3.427a17.154 17.154 0 0 0-1.517 4.19z"/>
  <path fill="#ca6149" d="M12.11 41.795c-.515.027-1 .045-1.485.046-.515 0-.587-.083-.467-.604.251-1.092.924-1.818 2.012-2.074.796-.187 1.612-.382 2.479-.115.904.537.93 1.23.073 1.8-.28.187-.29.488-.482.745-.375.155-.707.142-1.046-.097-.148-.143-.11-.318-.193-.476-.085.134-.023.278-.089.43-.21.275-.503.269-.801.345z"/>
  <path fill="#f3e2d6" d="M34.226 15.599c.189.297.107.627.114.948.003.16-.093.325-.235.337-.601.053-.471.487-.41.822.047.262.054.468-.113.68-.08.101-.146.237-.098.366.1.272-.012.465-.185.657-.156.172-.167.32.15.375-.045.662-.306 1.263-.552 1.902a.512.512 0 0 0-.11.125c-.235.066-.27-.12-.341-.297-.183-.586-.32-1.159-.566-1.68-.239-.507-.124-.926.093-1.378.534-1.112 1.299-2.04 2.253-2.857z" style="fill:#fce6dd;fill-opacity:1"/>
  <path fill="#fce6dd" d="M20.793 44.043c-.085.03-.146.045-.24.06a.233.233 0 0 0-.145.042c-.097.02-.17.03-.282.038-.18.001-.315.065-.49.06-.426.013-.822.02-1.264.02-.28-.055-.516-.023-.784-.016-.454.062-.866.142-1.278.364-.04-.797.573-1.372 1.482-1.401.826-.027 1.65.161 2.48.004.903-.17 1.75-.44 2.424-1.159.043-.033.057-.05.099-.084.028-.018.025-.03.031-.032.268-.178.501-.118.674.118.187.255-.034.404-.191.558a7.05 7.05 0 0 0-.351.38c-.024.032-.036.023-.03.026-.084.046-.18.079-.272.175-.017.026-.027.017-.02.02-.179.108-.412.125-.575.335a.17.17 0 0 1-.086.047c-.204.078-.403.107-.592.247-.133.06-.24.102-.38.143a.352.352 0 0 0-.21.055z"/>
  <path fill="#f7c9b6" d="M9.143 4.232c-.538 1.166-1.218 2.253-1.589 3.484-.144.478-.281.959-.436 1.473-.191.426-.436.703-.954.547.029-1.748.636-3.31 1.401-4.822.182-.36.415-.694.652-1.057.181-.097.3.003.335.111.103.32.322.299.591.264Z" style="fill:#f9d8c8;fill-opacity:1"/>
  <path fill="#fbcba7" d="M13.416 43.168c.577-.032 1.125-.031 1.674-.045.28-.007.347.072.2.33a2.759 2.759 0 0 0-.314 1.95c-.097.594-.359 1.034-.895 1.266-.694.3-1.385.006-1.625-.727.691-.392.776-1.032.822-1.695.025-.351-.073-.717.138-1.079z"/>
  <path fill="#862a19" d="M14.193 41.567c.037-.44.1-.757.6-.938.5-.18.522-.856.139-1.26a2.899 2.899 0 0 1-.232-.286c1.095.04 2.23.902 2.507 1.88.186.657.032.87-.65.875-.779.006-1.558 0-2.383-.006-.087-.097-.031-.165.019-.265z"/>
  <path fill="#f9d8c8" d="M24.564 46.797c-1.226.963-1.917 2.253-2.34 3.723a5.12 5.12 0 0 1-.591 1.367c-.412-2.126-.075-4.079 1.643-5.656.171.647.517.857 1.13.505.034-.02.092.014.158.061zm-1.234 10.73c-.518.028-1.004.021-1.49.04-.344.015-.34-.127-.21-.37.514-.97 1.314-1.537 2.398-1.684 1.18-.16 2.229.244 3.263.814-.146.31-.427.228-.671.205-.357-.034-.71-.09-1.07-.06-.696.056-1.35.216-1.832.779-.098.113-.231.177-.388.276z" style="fill:#fce6dd;fill-opacity:1"/>
  <path fill="#ea5738" d="M23.344 57.558c.417-.898 1.226-1.203 2.151-1.246.577-.027 1.157.037 1.778.048.085-.003.126.006.2.017.419.369.767.781 1.274 1.053-.193.09-.409.141-.64.14-1.572-.005-3.144-.003-4.763-.012zM10.776 44.616c.07.777-.243 1.382-.822 1.635-.604.263-1.073-.042-1.496-.412-.556-.486-.69-1.121-.399-1.82.707.211 1.419.247 2.123.331.206.025.425.048.594.266z"/>
  <path fill="#ba2e1f" d="M42.859 49.115c.58-.345.506-.972.74-1.487.082-.032.135-.018.2.042.453.356.553.79.459 1.32-.217 1.224-.798 2.252-1.634 3.149-.114.123-.24.251-.53.284.625-1.047.62-2.176.765-3.308z" style="fill:#c02c1f;fill-opacity:1"/>
  <path fill="#fde2d7" d="M24.614 46.813c-.232-.007-.395.09-.56.194-.476.3-.696.191-.74-.363-.009-.111-.002-.224-.005-.379 1.09-.957 2.33-1.225 3.747-.889-.162.53-.654.616-1.133.779-.165.032-.284.088-.434.15a.3.3 0 0 1-.085.037c-.18.072-.348.122-.504.264-.1.082-.18.14-.286.207zM13.4 43.133c.036.746.112 1.49-.142 2.208-.122.345-.315.592-.752.602-.299.022-.294-.2-.375-.386.17-.88-.065-1.652-.501-2.433.61 0 1.168 0 1.77.009z" style="fill:#fce6dd;fill-opacity:1"/>
  <path fill="#d89f68" d="M12.103 45.56c.205.02.212.222.342.363.708 1.126 1.944.825 2.356-.258a.705.705 0 0 1 .144-.215c.096.156.125.35.233.48.407.491.14.77-.277 1.033-1.278.809-.924.838-2.265-.004a1.953 1.953 0 0 1-.197-.141c-.55-.45-.582-.562-.336-1.257z"/>
  <path fill="#fbcba7" d="M6.12 9.75c.388-.055.695-.202.95-.52-.08.87-.086 1.752-.059 2.68-.02.79-.056.84-.626.847a7.503 7.503 0 0 1-.265-3.006Z" style="fill:#f9d8c8;fill-opacity:1"/>
  <path fill="#fce6dd" d="M10.803 44.613c-.648-.142-1.31-.178-1.972-.227-.28-.021-.555-.044-.718-.37.262-.77 1.05-1.058 1.787-.667.493.261.817.662.903 1.264z"/>
  <path fill="#ba2e1f" d="M12.653 56.705c.5.274.971.528 1.574.854l-3.094-.001c-.218 0-.237-.124-.166-.293.17-.4.469-.697.789-.977.128-.112.244-.044.353.03.174.118.344.244.544.387z" style="fill:#c02c1f;fill-opacity:1"/>
  <path fill="#f9d8c8" d="M9.165 4.253c-.412.429-.64.317-.725-.242-.008-.051-.084-.092-.162-.154.374-.66.842-1.254 1.436-1.732.257-.207.54-.29.624.226-.338.39-.47.87-.776 1.28a.575.575 0 0 0-.097.13c-.007.024-.015.062-.026.077l-.067.097c-.042.075-.065.123-.107.19a.851.851 0 0 0-.094.109c-.01.02-.008.017-.006.02z"/>
  <path fill="#430609" d="M43.114 39.762a.18.18 0 0 0 .085.032c.076.041.14.04.204.046.502.046.52.03.477-.47-.007-.08-.003-.16-.036-.27-.01-.032-.004-.063-.01-.077a.236.236 0 0 1-.092-.193.934.934 0 0 0-.024-.182c-.11-.1-.195-.18-.124-.376.42.355.474.896.615 1.4.267.954.066 1.911 0 2.911a47.61 47.61 0 0 1-1.253-2.777c.061-.073.098-.075.158-.044z"/>
  <path fill="#ba2e1f" d="M16.607 45.574c.04-.025.098-.035.136-.011 1.356.856 2.844.865 4.406.69-.063.263-.227.448-.526.46-.937.035-1.87.03-2.77-.294a2.842 2.842 0 0 1-1.246-.845z" style="fill:#c02c1f;fill-opacity:1"/>
  <path fill="#bd2e21" d="M21.673 52.317c.369.098.558.444.851.667.399.304.836.532 1.276.81-.274.084-.589.076-.836.202-.515.263-.7-.018-.85-.42a27.556 27.556 0 0 1-.44-1.259z" style="fill:#c02c1f;fill-opacity:1"/>
  <path fill="#ca6149" d="M29.53 3.08c-.253-.263-.25-.636-.524-.895.214-.317.476-.222.738-.046.604.406 1.07.944 1.474 1.58-.253-.004-.285.188-.347.398-.283-.03-.278-.277-.358-.458-.244-.55-.358-.624-.983-.578Z" style="fill:#f05232;fill-opacity:1"/>
  <path fill="#f9d8c8" d="M54.17 20.912c-.213-.301-.397-.545-.582-.824 1.096.612 1.879 1.56 2.545 2.656-.156.213-.253.105-.39-.02-.49-.444-.774-1.066-1.326-1.488a1.702 1.702 0 0 1-.246-.324z"/>
  <path fill="#ba2d1f" d="M42.879 36.513c-.748-.135-.754-.136-.634-.848.059-.345-.075-.615-.328-.81-.51-.393-.552-.57-.156-1.11.113.158.197.337.297.546.16.212.2.44.295.68.023.111.044.19.087.287.166.21.205.444.303.688.012.083.02.133.045.216.016.034.019.077.039.085.02.008.02.018.025.02.047.057.073.118.027.246z"/>
  <path fill="#ebab8e" d="M6.356 12.768c.464-.055.573-.373.628-.786.122.376.218.777.32 1.217-.583.635-.591.634-.859-.123a3.43 3.43 0 0 1-.09-.308z" style="fill:#f9d8c8;fill-opacity:1"/>
  <path fill="#d89f68" d="M13.907 38.023c-.204 0-.366.003-.528-.001-.076-.002-.176.015-.2-.087-.033-.144-.044-.297.085-.405.262-.218.567-.226.87-.126.18.06.297.22.253.418-.052.232-.262.196-.48.201z"/>
  <path fill="#ba2e1f" d="M14.16 41.537c.213.106.095.175-.012.268a46.81 46.81 0 0 1-2.023.015c.112-.287.454-.192.701-.364.101-.071.165-.141.3-.12.327.21.656.232 1.034.201z" style="fill:#c02c1f;fill-opacity:1"/>
  <path fill="#ca6149" d="M32.428 21.525c.11.066.202.178.323.3-.147.209-.29.392-.182.704.07.199.022.44-.029.665-.123.55-.05.649.527.78.083.02.153.042.194.161-.01.036-.027.04-.042.035-1.011-.261-.813-.065-.82-1-.004-.533.006-1.066.029-1.645z" style="fill:#f05232;fill-opacity:1"/>
  <path fill="#ba2d1f" d="M43.473 37.975c-.5.14-.676-.067-.633-.538.023-.258.003-.519.002-.823 0-.046.02-.066.031-.076.01-.01.055-.01.071.004.031.07.046.125.082.2.057.065.06.123.092.199.016.023.021.07.03.092.105.144.146.292.194.47a.98.98 0 0 0 .073.214c.07.08.092.148.058.258zm-.482-13.913c-.214-.373.192-.5.352-.641.284-.25.524-.674 1.046-.542-.441.407-.906.787-1.398 1.183zm-1.241 9.441c-.498-.295-.78-1.1-.574-1.71.21.543.392 1.108.574 1.71zm-.654-2.35c-.16.019-.205-.089-.204-.234l.004-3.05c0-.102.048-.186.165-.266-.072.72-.073 1.462-.08 2.206-.004.44.065.869.115 1.344z"/>
  <path fill="#430609" d="M43.82 46.216a1.508 1.508 0 0 1-.056-.515c.028-.242-.104-.612.169-.69.251-.072.392.28.57.503-.379-.193-.54-.024-.577.368-.01.108.016.23-.106.334zm1.325-.515c-.068-.685-.322-1.352-.538-2.066.474.575.634 1.272.538 2.066z"/>
  <path fill="#ba2d1f" d="M45.034 22.606c.378-.532.954-.591 1.595-.513-.501.188-1.03.348-1.595.513zm-3.419 3.498c-.155-.313.06-.767.52-1.053-.142.342-.319.686-.52 1.053z"/>
  <path fill="#ca6149" d="M34.918 27.633c.268.414.286.884.027 1.386.02-.432.04-.886-.027-1.386z" style="fill:#3c060c;fill-opacity:1"/>
  <path fill="#ba2d1f" d="M41.118 27.564c-.14-.423.002-.8.326-1.146-.078.369-.19.745-.326 1.146z"/>
  <path fill="#430609" d="M43.82 47.644c-.053.03-.107.016-.18-.02.02-.382.058-.742.107-1.143.14.34.042.733.074 1.163zm.723-4.273a4.775 4.775 0 0 1-.335-.711c.272.127.407.36.335.711zm-1.775-7.412c-.193-.154-.219-.393-.302-.645.264.106.291.366.302.645z"/>
  <path fill="#ca6149" d="M34.785 26.802c.066.224.103.468.138.753-.22-.182-.43-.408-.138-.753z" style="fill:#3c060c;fill-opacity:1"/>
  <path fill="#430609" d="M42.378 34.982c-.193-.147-.213-.385-.302-.627.268.097.292.353.302.627z"/>
  <path fill="#f9d8c8" d="M25.322 10.02C0 0 0 0 25.322 10.02Z"/>
  <path fill="#ca6149" d="M35.01 25.483c.198.186.288.425.033.709a5.437 5.437 0 0 1-.034-.71z" style="fill:#3c060c;fill-opacity:1"/>
  <path fill="#430609" d="M43.367 37.513c-.143-.087-.154-.25-.21-.425.227.032.212.225.21.425zm.086.499c-.005-.072-.012-.14-.018-.241.246.015.173.216.198.409.003.037-.003.042-.006.044-.144.05-.135-.061-.17-.172-.015-.03-.006-.035-.004-.04z"/>
  <path fill="#ca6149" d="M33.352 24.209c.152-.04.337-.084.482.131a1.848 1.848 0 0 1-.482-.131zm1.631 2.081c.04.154.093.343-.138.483.014-.143.065-.299.138-.483zm-3.104 6.776c.029.139 0 .266-.222.276.042-.088.118-.176.222-.276z" style="fill:#f05232;fill-opacity:1"/>
  <path fill="#ba2d1f" d="M44.636 22.797c-.01-.2.14-.195.326-.191a1.415 1.415 0 0 1-.326.19z"/>
  <path fill="#430609" d="M42.98 36.536c-.02.021-.06.01-.078 0a.786.786 0 0 1-.046-.235c.139-.002.21.066.124.235z"/>
  <path fill="#ca6149" d="M33.54 31.218c.023.1.026.215-.15.256a.683.683 0 0 1 .15-.256zm1.286-6.13c.162-.029.202.076.183.26a.851.851 0 0 1-.183-.26zm-1.709 6.675c.046.09.025.168-.123.196.01-.061.053-.123.123-.196zM31.61 4.308c-.1-.015-.168-.089-.186-.237.06.048.12.127.186.237zm.564 28.469c.016.075-.018.14-.133.172a.45.45 0 0 1 .133-.172zm-.835-28.869c-.033-.013-.071-.056-.111-.128.034.013.07.056.11.128zm3.457 25.426c.01.04-.004.1-.045.179-.01-.04.006-.1.045-.18z"/>
  <path fill="#430609" d="M44.891 45.973c.025.001.052.023.085.07-.072.057-.072-.003-.085-.07z"/>
  <path fill="#948b8d" d="M8.065 47.474c-.03-.013-.055-.052-.082-.114.027.013.057.05.082.114Z"/>
  <path fill="#ca6149" d="M31.718 4.5c-.03-.015-.065-.059-.101-.132.03.016.064.06.1.133z"/>
  <path fill="#430609" d="M43.135 36.935c-.029-.02-.058-.067-.088-.145.029.02.058.068.088.145z"/>
  <path fill="#ca6149" d="M33.938 30.73c.001.036-.022.087-.073.15-.002-.038.023-.087.073-.15zm.48-.694c.006.038-.012.093-.057.164-.007-.039.013-.093.057-.164zm.479-.986c.013.038.002.094-.033.167-.013-.038-.001-.094.033-.167zm-.192.49c.008.04-.01.096-.055.167-.009-.041.01-.096.055-.167zm-.45-4.948c.04-.007.096.012.165.058-.04.008-.094-.013-.165-.058z"/>
  <path fill="#ba2d1f" d="M41.178 31.55c-.028-.024-.055-.081-.079-.171.029.024.055.082.08.172z"/>
  <path fill="#ca6149" d="M33.244 31.597c.003.039-.019.092-.07.155-.006-.041.02-.091.07-.155zm.82-7.105c.038-.007.093.01.163.053-.038.008-.092-.01-.163-.053zm-.197-.095c.037-.008.093.007.164.048-.038.01-.093-.008-.164-.048zm.253 6.099c.007.018-.009.052-.05.098-.008-.019.01-.051.05-.098zm-.092.114c.018.024.002.052-.044.088-.007-.017.007-.047.044-.087z"/>
  <path fill="#968c8f" d="M45.822 49.832c.014.022.003.053-.028.1-.013-.02-.006-.055.028-.1z"/>
  <path fill="#ca6149" d="M34.32 30.218c.008.018-.008.047-.047.09-.007-.018.009-.049.048-.09zm-.496.674c.008.021-.01.052-.052.093-.008-.02.01-.051.052-.093zm-.091.104c.006.02-.011.05-.053.09-.007-.02.01-.05.053-.09zm-.393.489c.007.018-.009.047-.048.087-.007-.019.01-.048.048-.087zM31.422 4.02c-.02.005-.047-.017-.08-.065.02-.004.046.018.08.066z"/>
  <path fill="#ba2d1f" d="M42.765 24.343c-.008-.017.009-.04.048-.07.013.019-.001.043-.048.07z"/>
  <path fill="#948b8d" d="M46.139 59.234c.022.004-.009.034-.009.034s-.039-.006-.048-.018c-.01-.011.035-.02.057-.016z"/>
  <path fill="#ca6149" d="M34.609 29.727c.02.021.009.05-.033.086-.022-.02-.012-.05.033-.086zm-.1.178c.009.018-.006.052-.044.1-.01-.018.006-.051.044-.1z"/>
  <path fill="#968c8f" d="M45.35 50.912c.02.024.006.053-.037.093-.009-.018.001-.05.036-.093z"/>
  <path fill="#ea5738" d="M32.083 15.34c-.03-.01-.026-.032.015-.056.012-.007-.003.036-.015.055z"/>
  <path fill="#ebab8e" d="M33.173 28.947c.01-.005.017-.013.027-.018.002-.001.01.008.015.013-.008.005-.016.01-.036.007-.01-.01-.008-.004-.006-.002z"/>
  <path fill="#f9d8c8" d="M22.808 41.953c.007.031-.012.055-.061.08-.02-.009-.017-.027-.003-.068.012-.024.046-.013.064-.012z"/>
  <path fill="#ba2d1f" d="M42.186 25.042c-.013-.022.005-.049.052-.084.004.016-.013.044-.052.084z"/>
  <path fill="#ca6149" d="M34.738 24.976c.019-.005.046.016.082.06-.02.005-.047-.015-.082-.06z"/>
  <path fill="#ba2d1f" d="M42.28 24.938c-.011-.02.006-.044.049-.076.016.022 0 .048-.05.076z"/>
  <path fill="#ca6149" d="M34.642 24.877c.017-.005.045.014.083.056-.018.005-.045-.014-.083-.056zm-.102-.095c.019-.006.047.012.087.054-.019.006-.048-.012-.087-.054zm-2.557 8.185c.012.023-.006.047-.052.075-.016-.024 0-.05.052-.075z"/>
  <path fill="#ba2d1f" d="M42.387 24.768c-.006-.017.011-.05.052-.098.007.018-.011.05-.052.098z"/>
  <path fill="#ca6149" d="M34.435 24.692c.02-.008.05.008.092.049-.02.008-.05-.008-.092-.05z"/>
  <path fill="#f9d8c8" d="M53.594 20.036c-.027.009-.057-.013-.097-.06.025-.009.06.01.097.06z"/>
  <path fill="#ba2d1f" d="M42.482 24.654c-.005-.018.013-.046.054-.085.005.017-.012.046-.054.085zm.094-.102c-.012-.022.005-.048.052-.082.014.021-.003.05-.052.082z"/>
  <path fill="#430609" d="M42.842 36.246c-.014.007-.03-.004-.038-.036.001-.014.032.025.038.036z"/>
  <path fill="#ca6149" d="M32.757 32.17c.006.019-.01.048-.051.088-.006-.018.01-.048.051-.088z"/>
  <path fill="#430609" d="M44.807 45.863c.025-.014.05.005.073.06-.022.009-.045-.012-.073-.06zm-.094-.102c.017-.003.046.015.08.06-.018.004-.044-.016-.08-.06zm-.097-.097c.017-.005.046.014.084.057-.018.005-.046-.015-.084-.057zm-.098-.099c.018-.004.046.015.084.058-.018.005-.045-.015-.084-.058z"/>
  <path fill="#ca6149" d="M32.851 32.07c.007.02-.011.048-.054.088-.006-.02.012-.05.054-.088z"/>
  <path fill="#ba2e1f" d="M16.479 45.389c.028-.014.051.006.069.06-.03.014-.052-.006-.07-.06z"/>
  <path fill="#ca6149" d="M32.946 31.968c.007.02-.01.05-.053.09-.007-.02.01-.05.053-.09zm-.283.306c.015.024-.003.052-.054.083-.005-.018.013-.045.054-.083zm-.097.099c.015.024-.004.051-.054.082-.005-.017.013-.045.054-.082zm-.096.099c.014.024-.005.05-.054.081-.005-.017.013-.044.053-.081zm-.097.098c.014.023-.003.05-.05.08-.018-.023-.002-.05.05-.08z"/>
  <path fill="#430609" d="M52.152 29.043c.224-.48.576-.908.757-1.432.03-.088.088-.19.202-.178.145.014.166.147.168.256.009.387.004.774-.006 1.205-.15-.466-.153-.468-.54-.115-.158.142-.324.256-.581.264zm-2.95 3.96c.261-.02.546.219.774.09.234-.131.081-.471.119-.717.108-.712.336-1.369.82-1.952-.005.52-.467.88-.544 1.408-.03.202-.106.4-.107.613-.005.875-.235 1.002-1.062.558zm2.265-3.181c.01-.18.14-.29.319-.402.076.238-.064.348-.32.402zm-.489.585c-.004-.15.097-.256.236-.368.03.16.007.318-.236.368zm.286-.393c-.003-.016.014-.043.054-.082.012.021-.006.048-.054.082zm.783-.879c-.015-.022.002-.05.052-.083.012.022-.006.048-.052.083z" style="fill:#3c060c;fill-opacity:1"/>
  <path fill="#ba2d1f" d="M44.869 21.015c.05.4-.01.71-.489.717-.058 0-.155.035-.168.074-.259.832-1.118.47-1.617.817-.067.046-.162.069-.201-.03-.017-.043.013-.137.052-.165.22-.159.253-.398.295-.674 0-.038.001-.034.001-.035.287-.199.649-.297.863-.649.23-.109.385-.299.656-.332.289-.072.407.152.608.277z" style="fill:#c02c1f;fill-opacity:1"/>
  <path fill="#ca6149" d="M47.744 14.714c.011-.338-.233-.383-.45-.44-1.014-.265-2.026-.538-3.135-.463h-.302c-.095.061-.155.05-.22-.03 1.485-.206 2.915.06 4.311.565.265.096.442.39.806.356.097.066.118.131.066.237-.293-.03-.56-.086-.864-.149-.08-.05-.137-.049-.212-.076zm-10.433.661c.394-.425.895-.733 1.469-.94-.363.388-.752.743-1.095 1.181-.005-.22-.151-.254-.374-.241z" style="fill:#f05232;fill-opacity:1"/>
  <path fill="#ee5336" d="M40.525 14.583c.448-.314 1.013-.413 1.588-.585.082-.03.13-.04.213-.008-.037.166-.108.308-.172.453-.114.26-.241.373-.388.027-.12-.28-.367-.141-.43-.053-.221.313-.503.177-.811.166zm.715.41c.11.09.275.157.155.275-.147.144-.354.238-.572.15-.12-.049-.217-.156-.204-.302.014-.155.128-.213.27-.224a.468.468 0 0 1 .351.1z"/>
  <path fill="#ca6149" d="M32.903 21.706c.166-.613.368-1.23.576-1.88.005-.036.003-.039.051-.043-.07.668-.253 1.32-.627 1.923z" style="fill:#f05232;fill-opacity:1"/>
  <path fill="#ee5336" d="M43.597 13.743c.08.024.126.045.198.068a.325.325 0 0 1-.023.19c-.08.166-.054.462-.289.452-.222-.01-.2-.288-.248-.505.025-.1.075-.13.163-.162a.876.876 0 0 1 .199-.043zm-1.037 1.622c-.22-.04-.374-.14-.23-.326.097-.126.22-.29.421-.287.078.001.085.09.087.152.008.198.022.403-.277.461z"/>
  <path fill="#c02c1f" d="M43.594 21.056c0 .5-.413.553-.815.663.158-.317.483-.469.815-.663z"/>
  <path fill="#ee5336" d="M39.35 15.168c.282-.288.674-.437 1.098-.595-.218.4-.596.576-1.098.595zm1.002.284c-.058.219-.125.376-.364.247-.104-.056-.217-.15-.115-.252.132-.132.31-.32.479.005zm-1.536.033c.076-.063.134-.103.215-.153.232.45.011.568-.448.528-.098-.1-.045-.173.035-.273.021-.026.025-.019.021-.02.046-.036.103-.044.177-.082z"/>
  <path fill="#ca6149" d="M43.389 13.766c.02.083-.03.124-.129.14-.11.02-.193.034-.3.072-.115.11-.22.134-.374.055a.515.515 0 0 0-.197-.022 2.59 2.59 0 0 1-.204-.01c.348-.172.762-.184 1.204-.235z" style="fill:#f05232;fill-opacity:1"/>
  <path fill="#c02c1f" d="M44.89 21.006c-.238.07-.37-.113-.564-.253.082-.078.194-.139.338-.204.096.138.159.28.226.457z"/>
  <path fill="#ca6149" d="M37.502 16.281a5.51 5.51 0 0 1 .715-.419c-.079.353-.352.452-.715.42zm-2.742 1.623c-.021-.036-.008-.074.016-.14-.017-.205.085-.295.296-.343.055.245-.04.414-.312.483zm.873-.982c.036-.162.156-.279.33-.385.031.213-.09.333-.33.385z" style="fill:#f05232;fill-opacity:1"/>
  <path fill="#ee5336" d="M42.556 14.043c.098-.036.201-.038.343-.04.031.101.064.232-.076.267-.15.038-.222-.063-.267-.227z" style="fill:#f05232;fill-opacity:1"/>
  <path fill="#ca6149" d="M34.385 18.398c-.01-.15.114-.242.228-.372.03.158.001.31-.228.372zm-.31.482c.05-.143.135-.292.247-.457-.024.155-.025.352-.247.458zm4.533-3.313a.642.642 0 0 1-.053.264.766.766 0 0 1-.272.03c.035-.142.173-.205.325-.294zm-1.77.201c.023-.142.155-.21.302-.3.03.19-.08.281-.302.3zm.617.114c.014.086.003.19-.005.33-.283-.059-.077-.19.005-.33zm-3.698 3.561a1.25 1.25 0 0 1 .156-.37c.043.132-.012.256-.156.37z" style="fill:#f05232;fill-opacity:1"/>
  <path fill="#ee5336" d="M39.119 15.315c.024-.064.08-.11.164-.157.027.104.006.193-.164.157z"/>
  <path fill="#ca6149" d="M33.537 19.702a.47.47 0 0 1 .097-.123c.01.044-.002.1-.035.178-.02.021-.028.016-.032.013a.088.088 0 0 1-.03-.068zm2.975-3.654c-.006-.02.013-.05.057-.087.006.02-.013.049-.057.087zm-.099.097c-.005-.02.013-.05.057-.087.006.02-.013.049-.057.087zm-.098.097c-.006-.02.013-.05.057-.087.006.02-.013.049-.057.087zm-.093.053c-.012-.04.006-.043.05-.049.01.027-.005.057-.05.049zm-.111.138c-.021-.012-.018-.03-.01-.072.006-.025.046-.044.066-.035.02.01.031.022.037.028a.242.242 0 0 1-.093.079zm-.096.097c-.007-.022.012-.052.058-.09.006.022-.013.051-.058.09zm1.175-1.07c-.003-.02.017-.048.063-.082.005.021-.016.047-.062.082zm.355.316c.008.018-.006.048-.045.088-.018-.024-.002-.052.045-.088z"/>
  <path fill="#430609" d="M42.873 39.723c-.003-.022.026-.01.041-.01.033.01.05.022.047.057l-.019.022c-.033 0-.055-.016-.069-.07z"/>
  <path fill="#ca6149" d="M33.679 19.559c-.013-.02-.002-.053.033-.099.012.02.001.053-.033.099zm1.857-2.584c-.015-.042.002-.046.044-.055.012.028 0 .06-.044.055zm-.014.064c-.009.034-.029.059-.086.062-.021-.037-.01-.057.035-.078.034-.002.046.01.051.016zm-.097.097c-.01.035-.029.06-.086.064-.02-.035-.008-.053.037-.077.032-.006.044.007.05.013zm-.096.099c-.01.034-.03.059-.087.062-.02-.036-.007-.054.039-.075.033-.004.043.007.048.013zm-.1.097c-.008.034-.027.058-.07.09-.02.012-.028.006-.032.002-.016-.045-.006-.08.058-.107.03 0 .04.01.044.015zm-.566.669c-.007-.017.008-.048.047-.089.008.019-.009.048-.047.09z"/>
  <path fill="#f9f6f6" d="M27.209 25c-.156.216-.28.42-.275.65.022 1.163-.572 1.953-1.475 2.596-.326.232-.56.595-1.035.526-.05-.007-.121.047-.165.09-.904.882-2.01.759-3.09.554-.385-.073-.802.02-1.172-.242-.63-.444-1.355-.782-1.766-1.465-.228-.378-.722-.448-.886-.908a2.019 2.019 0 0 1-.001-.236.201.201 0 0 0-.056-.132.197.197 0 0 1-.038-.08.346.346 0 0 0-.05-.106c-1.404-3.168.282-7.259 4.026-7.906 2.139-.37 4.128.648 5.265 2.77.137.257.232.535.348.839a.223.223 0 0 0 .052.14.718.718 0 0 1 .04.177c.01.047.023.062.042.105.024.102.041.176.057.287a.31.31 0 0 0 .052.214c.025.095.035.168.043.277-.002.25-.003.462.066.696.089.387.013.748.018 1.154z"/>
  <path fill="#39060c" d="M15.184 27.327a.958.958 0 0 0-.164.297 4.389 4.389 0 0 1-1.138 1.736c-.31.298-.17.47.104.629.512.296 1.296.1 1.652-.389.17-.233.288-.63.697-.366.38.246.32.592.131.942-.604 1.121-2.072 1.515-3.147.82-.225-.146-.359-.146-.584-.004-.965.607-2.241.295-2.848-.67-.051-.082-.108-.169-.129-.26-.057-.256-.122-.544.168-.695.273-.144.482-.002.664.229.423.536.81.617 1.345.343.29-.148.323-.26.031-.448-.716-.461-1.22-1.106-1.587-1.901-.45-.412-.437-.684.064-1.164.142.016.22-.043.304-.093 1.129-.666 2.302-.672 3.498-.215.54.206.905.56.94 1.209z"/>
  <path fill="#f9f6f6" d="M10.475 26.372c-.165.39-.48.717-.132 1.165a.826.826 0 0 1-.19.221c-.141-.247-.18-.573-.574-.659-.217-.163-.197-.382-.205-.591a6.622 6.622 0 0 1 .191-1.979c.278-1.052.218-2.127.169-3.195-.023-.49-.195-.952-.44-1.381-.352-.613-.98-.87-1.66-.666-.496.147-.91.419-1.24.82-.112.136-.205.297-.425.353-.278-.055-.458.09-.69.182.13-.5.452-.9.827-1.303.11-.325.36-.425.649-.528.943-.475 1.862-.653 2.775-.01.498.352.773.863.996 1.41.71 1.737.538 3.499.145 5.266-.063.285-.134.568-.196.895z"/>
  <path fill="#ca6149" d="M29.205 4.736c.02-.228.076-.444.161-.685.238.044.27.231.286.405.099 1.112.246 2.223.125 3.342-.042.388.005.78-.067 1.166-.04.22-.048.456-.268.645-.064.011-.086.007-.14-.001.136-1.17.213-2.341.154-3.516-.023-.45.004-.92-.251-1.356z" style="fill:#c02c1f;fill-opacity:1"/>
  <path fill="#d89f68" d="M6.746 18.788c-.169.16-.37.32-.597.502-.056-.186.041-.363.142-.571.04-.015.058-.002.06.038.109.24.237.014.395.031z" style="fill:#f05232;fill-opacity:1"/>
  <path fill="#fef3ea" d="M27.22 23.831c-.267-.128-.189-.367-.122-.622.168.16.105.379.122.622z"/>
  <path fill="#f9d8c8" d="M25.77 13.49c-.135-.1-.16-.225.024-.354a.925.925 0 0 1-.024.354Z"/>
  <path fill="#fef3ea" d="M27.1 22.868c-.09.006-.179-.016-.092-.155.046.032.071.08.093.155z"/>
  <path fill="#ca6149" d="M7.232 17.125c.008-.062.05-.13.118-.214.036.082.02.167-.118.214zm-.194.285a.593.593 0 0 1 .115-.216c.028.076-.016.146-.115.216Zm-.132.202a.358.358 0 0 1 .08-.168.358.358 0 0 1-.08.168zm-.169.287c-.002-.032.017-.077.058-.138.002.032-.017.078-.058.138Zm-.101.193c-.005-.036.012-.088.054-.156.006.036-.012.088-.054.156Zm-.096.192c-.008-.038.008-.091.05-.16.008.038-.01.091-.05.16zm-.182.479c-.021.022-.03-.025-.037-.048a.261.261 0 0 1 .06-.137c.014.044.007.104-.023.185zm1.156-2.033c-.007-.018.008-.048.047-.088.008.019-.008.048-.047.088Zm.178-.205c-.01-.021.009-.053.051-.097.009.02-.008.054-.051.097zm-.09.105c-.01-.021.006-.053.047-.095.01.02-.007.052-.047.095z"/>
  <path fill="#3c060c" d="M16.011 12.012c-.002.01-.017-.025-.02-.043z"/>
  <path fill="#fef3ea" d="M26.907 22.087c-.03.006-.05-.02-.064-.077.02 0 .042.025.064.077zm.077.294c-.024.005-.039-.017-.05-.063.024-.007.042.013.05.063zm-9.71 4.059c.022-.002.043.024.068.074-.02 0-.044-.024-.068-.074zm-.09-.197c.028-.008.047.015.063.067-.029.012-.051-.01-.063-.067z"/>
  <path fill="#f9f6f6" d="M9.58 28.655c.136-.222.31-.446.515-.676.005.328-.086.615-.516.676z"/>
  <path fill="#eaaf93" d="M26.89 32.65c-.017.087-.099.106-.222.108a.717.717 0 0 1 .221-.109zm.109-.09c.004.018-.016.046-.059.086-.004-.017.016-.045.059-.085z"/>
  <path fill="#f05232" d="M34.545 43.11a.935.935 0 0 0-.034-.036.077.077 0 0 1 .028.026c.005.012.006.011.006.01z"/>
  <path fill="#f7c9b6" d="M24.91 46.625c.013-.24.204-.266.437-.284-.11.095-.257.187-.437.284zm.584-.301c.044-.143.167-.192.357-.171a1.388 1.388 0 0 1-.357.17z"/>
  <path fill="#f3e2d6" d="M35.224 17.294c-.034.042-.06.061-.093.103-.105.117-.202.21-.322.321-.184-.095-.462-.139-.425-.39.042-.286.338-.31.562-.368.151-.039.317-.018.518-.024.04 0 .042.043.04.064-.033.03-.059.047-.088.095a.244.244 0 0 0-.095.1c-.043.03-.069.048-.097.1z"/>
  <path fill="#d89f68" d="M48.826 14.984c-.031-.082-.03-.145-.033-.24.335.101.68.218.915.555a44.79 44.79 0 0 1-.882-.315z" style="fill:#f05232;fill-opacity:1"/>
  <path fill="#d89f68" d="M46.188 14.782c-.023-.004-.02-.045-.018-.065.065-.038.164.073.018.065z"/>
  <path fill="#430609" d="M29.515 4.818a7.088 7.088 0 0 0-.097-.758.397.397 0 0 1-.024-.164c.028-.113.016-.24.092-.788.385-.343.71-.304.968.085.179.27.266.58.382.918.074.207.11.415.166.624.048.114.034.222.053.343.02.852.058 1.668.101 2.53-.04.69-.087 1.336-.136 1.982-.02.258-.014.473.352.336.109-.042.234-.018.293.106.065.135-.038.244-.13.277-.742.267-.68.94-.8 1.528-.29 1.417-.607 2.826-1.355 4.09-.364.615-.657.695-1.212.391-.2-.109-.28-.227-.182-.467 1.674-4.843 1.695-8.655 1.529-11.033z"/>
  <path fill="#f9d8c8" d="M22.966 43.02c-.045-.193.099-.313.206-.448.103-.128.364-.183.274-.395-.089-.208-.322-.24-.576-.24.216-.343.608-.523.916-.805.402-.369.746-.79 1.109-1.253.174.82-.728 2.262-1.929 3.141zm-.895.55c-.014-.346.275-.301.533-.354-.095.19-.319.238-.533.355zm-.681.294c.056-.253.273-.257.524-.265-.106.155-.308.192-.524.265zm-3.793.404c.187-.143.43-.09.7-.032a5.06 5.06 0 0 1-.7.032zm2.045-.011c.102-.082.24-.156.426-.097-.104.107-.248.105-.426.097zm3.028-1.039c-.03-.146.053-.205.23-.197-.01.106-.1.155-.23.197zm-1.873.842c-.005-.09.023-.17.156-.091-.032.045-.08.07-.156.092zm-.386.099c.002-.02.031-.038.087-.056-.003.02-.032.04-.087.056z" style="fill:#fce6dd;fill-opacity:1"/>
  <path fill="#ba2d1f" d="M43.83 39.11c.03-.001.068.036.077.08.057.276.347.598.15.806-.21.222-.516-.093-.81-.176.419-.01.558-.284.583-.71zm-.393-1.052c.052.02.098.076.166.15.047.127.072.235.102.377-.172.029-.35.04-.523.016-.146-.02-.306-.105-.276-.27.03-.166.179-.064.276-.04.174.044.235-.044.255-.233zm-.465 1.732c-.033.002-.04-.038-.042-.058.07-.113.139-.138.202.02-.04.03-.083.033-.16.038zm.75-.973c.05.033.077.083.105.162-.09.007-.208.006-.105-.162z" style="fill:#c02c1f;fill-opacity:1"/>
  <path fill="#39060c" d="M5.925 20.488c.194-.275.358-.542.578-.75 1.001-.947 2.685-1.183 3.24.836.321 1.165.272 2.36.076 3.534-.16.962-.378 1.91-.276 2.94-.009.059-.024.07-.028.084-.58 1.69-2.127 1.703-3.138.433-.697-.876-1.059-1.876-1.14-2.994-.084-1.13.063-2.232.325-3.323.061-.255.237-.484.363-.76Z"/>
  <path fill="#862a19" d="M12.05 39.874c.445-.14.159.194.21.3.05.104.049.32-.192.267-.136-.031-.303-.09-.245-.283.03-.098.133-.174.226-.284zm1.916.06c.03.083.06.168.03.202-.117.136-.14.43-.374.365-.154-.043-.086-.293-.08-.439.013-.295.247-.135.424-.128zm-.802 1.386a.797.797 0 0 1-.271.127c-.042-.044-.045-.095-.064-.138-.087-.195-.098-.375.08-.53.052-.046.112-.075.169-.022.163.151.182.332.086.563zm-1.862-.512c.134-.035.305-.104.365.09.037.123.046.259-.026.376-.048.08-.145.088-.215.05-.209-.11-.086-.316-.124-.516zm.002-.042-.037-.024s.026.005.03.017c.003.011.005.008.007.007z"/>
  <path fill="#39060c" d="M20.325 28.146c-1.806-1.058-2.72-2.986-2.443-5.053.178-1.332.638-2.514 1.75-3.342 1.549-1.152 3.518-1.104 5.02.192 2.912 2.51 1.747 7.064-1.044 8.27-1.102.476-2.174.436-3.283-.067z"/>
  <path fill="#f3e2d6" d="M12.919 26.557c.233.033.426.056.616.092.06.012.113.06.232.126-.736.368-1.431.231-2.136.05.371-.294.813-.265 1.288-.268z" style="fill:#f9d8c8;fill-opacity:1"/>
  <path fill="#fcf9f9" d="M9.528 21.615c-.048 1.069-1.09 1.645-2.016 1.166-.493-.256-.75-.644-.702-1.217.047-.547.303-.965.799-1.186.995-.444 1.814.078 1.919 1.237zm11.261-.602c.358-.847.93-1.16 1.836-1.041.691.09 1.299.671 1.372 1.31.097.849-.548 1.595-1.455 1.685-.837.083-1.71-.593-1.77-1.378-.013-.178.004-.358.017-.576z" style="fill:#f9f6f6;fill-opacity:1"/>
</svg>
