<svg width="96" height="96" viewBox="0 0 96 96" fill="none" xmlns="http://www.w3.org/2000/svg">
<path fill-rule="evenodd" clip-rule="evenodd" d="M24.8682 19.373V62.1682H72.6145C75.5195 62.1682 77.1384 58.8119 75.3302 56.5384L64.5069 42.9306C63.5013 41.6662 63.5013 39.8751 64.5069 38.6107L75.3302 25.0029C77.1384 22.7293 75.5195 19.373 72.6145 19.373H24.8682Z" fill="#091E42"/>
<path opacity="0.5" d="M24.8682 76.0476C24.8682 77.4849 23.703 78.65 22.2658 78.65C20.8695 78.65 19.7301 77.5505 19.6662 76.1701L19.6633 76.0476L19.6633 19.3729C19.6633 17.9356 20.8285 16.7705 22.2658 16.7705C23.662 16.7705 24.8014 17.87 24.8653 19.2504L24.8682 19.3729L24.8682 76.0476Z" fill="#091E42"/>
</svg>
