<?xml version="1.0" encoding="utf-8"?>
<svg version="1.1" id="Layer_1" xmlns="http://www.w3.org/2000/svg" xmlns:xlink="http://www.w3.org/1999/xlink" x="0px" y="0px"
	 viewBox="0 0 702.7 171.6" style="enable-background:new 0 0 702.7 171.6;" xml:space="preserve">
<style type="text/css">
	.st0{fill:#fff;}
</style>
<g>
	<polygon class="st0" points="229.6,64.2 229.6,144.3 249,144.3 249,110.3 288,110.3 288,98.3 249,98.3 249,76.2 290.9,76.2
		290.9,64.2 	"/>
	<path class="st0" d="M403,76.7h-18.7l-9.6,13.9c-2.8,4.1-4.6,7.1-7,11.3h-0.3c-2.4-3.8-4.5-7.1-7.4-11.3l-9.7-13.9h-18.7l25.5,33.4
		l-26.6,34.2h18.7l8.9-13.4c3.6-5.2,6-8.8,8.1-12.7h0.4c2.5,3.9,5,7.5,8.9,12.7l9.7,13.4l0,0h18.9l-27.2-34.6L403,76.7z"/>
	<rect x="304.8" y="76.7" class="st0" width="16.3" height="67.6"/>
	<path class="st0" d="M486.5,87.9c0-7.5-4.1-13.8-10.4-17.7c-6.8-4.3-17.2-6.5-31.3-6.5c-13.1,0-22.7,0.7-29.6,1.7v79h19.2v-30.2
		c2.5,0.4,5.8,0.5,9.4,0.5c13.7,0,25.8-2.7,33.5-8.6C483.4,101.8,486.5,95.5,486.5,87.9z M443.9,103.2c-3.9,0-7.1-0.1-9.4-0.6l0,0
		V75.5c2-0.4,5.8-0.7,11.2-0.7c13.4,0,21.6,4.8,21.6,13.7C467.2,97.8,458.3,103.2,443.9,103.2z"/>
	<polygon class="st0" points="634.7,76.1 634.7,86.4 660.4,86.4 660.4,143.8 676.8,143.8 676.8,86.4 702.8,86.4 702.8,76.1 	"/>
	<path class="st0" d="M508.9,76.1L480,143.8h17l7.8-19.2h28.6l8.2,19.2h17.7L530,76.1H508.9z M507.4,115.3l7-16.7
		c1.6-4,2.9-8.7,4.3-12.7h0.3c1.3,3.9,2.8,8.5,4.5,12.7l7.1,16.7H507.4z"/>
	<path class="st0" d="M613.2,111.9v-0.3c8.4-2.3,16.3-8.2,16.3-17c0-5.7-2.8-10.4-7.8-13.6c-6-3.8-14.8-5.4-27.8-5.4
		c-9.5,0-18.7,0.6-24.9,1.4l0,0v66.8h16.3V116h8.3c9.4,0.2,13.6,3,16.2,11.9c2.5,8.4,4.7,14,6,16h17c-1.9-2.6-4.3-10.4-7.1-18.9
		C623.5,118.4,619.6,113.7,613.2,111.9z M595.1,106.9h-9.8V85.5c1.6-0.3,4.9-0.6,10.2-0.6c10.7,0,17.7,3.4,17.7,10.8
		C613.2,102.5,606.2,106.9,595.1,106.9z"/>
	<path class="st0" d="M143.8,91.6l-49.3-39l40.4-51c-26.2-5.8-54.6,3.2-72.3,25.7c-17.8,22.4-20.1,52.2-8.4,76.3L0,172h80.2
		l23.3-29.4c26.2,5.8,54.6-3.2,72.4-25.7s20.1-52.2,8.4-76.4L143.8,91.6z"/>
</g>
</svg>

