<?xml version="1.0" encoding="UTF-8" standalone="no"?>
<svg xmlns="http://www.w3.org/2000/svg" xmlns:xlink="http://www.w3.org/1999/xlink" width="48" height="48">
  <defs>
    <linearGradient id="d">
      <stop offset="0" stop-color="#ff2c2c"/>
      <stop offset="1" stop-color="#ff2c2c" stop-opacity="0"/>
    </linearGradient>
    <linearGradient id="c">
      <stop offset="0" stop-color="#c40b0b"/>
      <stop offset="1" stop-color="#c40b0b" stop-opacity="0"/>
    </linearGradient>
    <linearGradient id="b">
      <stop offset="0" stop-color="#a80000"/>
      <stop offset="1" stop-color="#a80000" stop-opacity="0"/>
    </linearGradient>
    <linearGradient id="a">
      <stop offset="0" stop-color="#fff"/>
      <stop offset="1" stop-color="#fff" stop-opacity="0"/>
    </linearGradient>
    <linearGradient id="e">
      <stop offset="0"/>
      <stop offset="1" stop-opacity="0"/>
    </linearGradient>
    <linearGradient xlink:href="#a" id="n" x1="5.9649176" x2="52.854097" y1="26.048164" y2="26.048164" gradientUnits="userSpaceOnUse"/>
    <linearGradient xlink:href="#a" id="m" x1="5.9649176" x2="52.854097" y1="26.048164" y2="26.048164" gradientUnits="userSpaceOnUse"/>
    <linearGradient xlink:href="#b" id="j" x1="34.738556" x2="38.275887" y1="39.375267" y2="24.437765" gradientUnits="userSpaceOnUse"/>
    <linearGradient xlink:href="#b" id="h" x1="12.077039" x2="11.622002" y1="12.831583" y2="19.556236" gradientUnits="userSpaceOnUse"/>
    <linearGradient xlink:href="#c" id="g" x1="12.077039" x2="11.622002" y1="12.831583" y2="19.556236" gradientUnits="userSpaceOnUse"/>
    <linearGradient xlink:href="#c" id="i" x1="34.738556" x2="38.275887" y1="39.375267" y2="24.437765" gradientUnits="userSpaceOnUse"/>
    <linearGradient xlink:href="#d" id="l" x1="29.994246" x2="79.009102" y1="23.949776" y2="65.776352" gradientUnits="userSpaceOnUse"/>
    <linearGradient xlink:href="#d" id="k" x1="24.852146" x2="102.35034" y1="21.575163" y2="88.133217" gradientUnits="userSpaceOnUse"/>
    <radialGradient xlink:href="#e" id="f" cx="24.837126" cy="36.421127" r="15.644737" fx="24.837126" fy="36.421127" gradientTransform="matrix(1 0 0 .53672 0 16.87306)" gradientUnits="userSpaceOnUse"/>
  </defs>
  <ellipse cx="24.837126" cy="36.421127" fill="url(#f)" fill-rule="evenodd" color="#000" opacity=".38333333" overflow="visible" rx="15.644737" ry="8.3968935" style="marker:none" transform="matrix(-1.48974 0 0 -1.00125 61.20865 75.2819)"/>
  <path fill="url(#g)" stroke="url(#h)" stroke-width=".99999958" d="M20.152913 10.409904s-8.9375-.625-6.1875 9.875H6.2779132s.5-11.875 13.8749998-9.875z" color="#000" display="block" opacity=".97000002" overflow="visible" style="marker:none"/>
  <path fill="url(#i)" stroke="url(#j)" stroke-width=".99999958" d="M28.375 33.4375s8.9375.625 6.1875-9.875h7.775888c0 1.502602-.588388 11.875-13.963388 9.875z" color="#000" display="block" opacity=".97000002" overflow="visible" style="marker:none"/>
  <g opacity=".97000002">
    <path fill="url(#k)" stroke="#b10000" stroke-width="1.31916928" d="M44.306783 50.229694c18.514714-14.410835 5.357804-36.81799-21.844372-37.732044l-.348568-9.3461022L7.6245439 20.496754 22.714328 33.219189l-.251917-9.88122c18.82976.998977 32.981627 14.071729 21.844372 26.891725z" color="#000" display="block" overflow="visible" style="marker:none" transform="matrix(-.57905 -.48923 -.48923 .57905 56.91585 13.37137)"/>
    <path fill="url(#l)" stroke="#b10000" stroke-width="1.31916928" d="M44.306783 50.229694c18.514714-14.410835 5.357804-36.81799-21.844372-37.732044l-.062979-9.4286203L7.793943 20.424005l14.668468 12.582344v-9.66838c18.82976.998977 32.981627 14.071729 21.844372 26.891725z" color="#000" display="block" opacity="1" style="marker:none" transform="matrix(.57905 .48923 .48923 -.57905 -7.921023 30.53599)"/>
  </g>
  <g opacity=".5">
    <path fill="none" stroke="url(#m)" stroke-width="1.50208926" d="M51.090265 45.943705c9.1202-15.21975-4.458651-33.742575-31.605207-33.995126l.028406-8.2452956L6.5341979 19.296639 19.367661 30.26876l.05562-9.006878c17.527815-.223909 35.195185 10.103372 31.666984 24.681823z" color="#000" display="block" opacity="1" overflow="visible" style="marker:none" transform="matrix(.50854 .42965 .42965 -.50854 -3.973188 30.54119)"/>
  </g>
  <g opacity=".5">
    <path fill="none" stroke="url(#n)" stroke-width="1.50208926" d="M51.389927 46.505946c9.1202-15.21975-4.339164-34.073587-31.761445-34.436191l-.285658-8.0190346L6.3413093 19.379475 19.809059 30.764589l-.181765-9.453243c18.244937.381972 34.783881 10.925246 31.762633 25.1946z" color="#000" display="block" opacity="1" overflow="visible" style="marker:none" transform="matrix(-.50854 -.42965 -.42965 .50854 53.049 13.36548)"/>
  </g>
  <path fill="#fff" d="m7.0625 38.1875.0625-14.875 12.9375-.375-4.388873 5.178817 3.867225 2.373199c-3 2.25-4.549548 2.422128-5.549548 4.984628l-2.816858-2.110272L7.0625 38.1875ZM6.8125 16.5C10.405935 6.0587275 23.256282 10.355393 27 12c4.175307.211475 5.674736-2.835004 9-3C21.950264-.7899963 7.1875 2.5 6.8125 16.5Z" color="#000" opacity=".27222224" overflow="visible" style="marker:none"/>
</svg>