<svg width="133" height="34" viewBox="0 0 133 34" fill="none" xmlns="http://www.w3.org/2000/svg">
<g clip-path="url(#clip0_9414_7739)">
<path d="M30.0615 28.9127V15.7295H33.055V26.1381H37.8234V28.9123L30.0615 28.9127Z" fill="#2C3C69"/>
<path d="M47.6872 24.3876C47.6872 24.5119 47.6872 24.6361 47.6872 24.7604C47.6872 24.8846 47.6813 25.0022 47.6699 25.1142H41.3876C41.4107 25.3749 41.4833 25.6108 41.6053 25.8219C41.7273 26.0331 41.8839 26.2157 42.0749 26.3714C42.2664 26.5267 42.481 26.6476 42.7191 26.7341C42.9565 26.8214 43.2033 26.8646 43.4587 26.8646C43.911 26.8646 44.2943 26.7748 44.6074 26.5947C44.9209 26.4146 45.1759 26.1821 45.3732 25.8962L47.3573 27.2369C46.9512 27.8699 46.4149 28.3573 45.7475 28.6985C45.0802 29.0394 44.3053 29.2106 43.4241 29.2106C42.7741 29.2106 42.1593 29.1015 41.5794 28.8849C40.9992 28.6675 40.4919 28.3514 40.0564 27.935C39.6217 27.5194 39.2792 27.0073 39.0297 26.3991C38.7801 25.7909 38.6558 25.0958 38.6558 24.3134C38.6558 23.5565 38.7774 22.8702 39.021 22.2561C39.2647 21.642 39.5954 21.1203 40.0132 20.6921C40.4307 20.2636 40.9234 19.9316 41.4927 19.6956C42.0608 19.4602 42.676 19.3418 43.337 19.3418C43.975 19.3418 44.5611 19.4568 45.0947 19.6864C45.6283 19.916 46.0865 20.248 46.4698 20.6825C46.8527 21.1169 47.1509 21.6446 47.3659 22.2654C47.5801 22.8858 47.6872 23.5939 47.6872 24.3876ZM45.0594 23.2144C45.0594 22.7305 44.9174 22.3145 44.6329 21.9669C44.3485 21.6198 43.922 21.4456 43.3539 21.4456C43.0754 21.4456 42.8203 21.4922 42.5881 21.5854C42.3558 21.6786 42.1534 21.8057 41.9788 21.9669C41.805 22.1285 41.6657 22.3178 41.5614 22.5353C41.457 22.7527 41.3989 22.9794 41.3876 23.2144H45.0594Z" fill="#2C3C69"/>
<path d="M52.2488 21.9116V25.4631C52.2488 25.8992 52.3272 26.2258 52.4842 26.4445C52.6403 26.6628 52.9216 26.7711 53.3281 26.7711C53.467 26.7711 53.6149 26.7593 53.7718 26.7337C53.9283 26.7089 54.0586 26.672 54.1633 26.622L54.1983 28.8564C54.0009 28.9307 53.7514 28.9957 53.4501 29.052C53.148 29.1078 52.8467 29.1355 52.545 29.1355C51.9647 29.1355 51.4771 29.0574 51.0828 28.9021C50.6881 28.7468 50.3719 28.5227 50.1345 28.2297C49.8964 27.9375 49.7253 27.5892 49.6209 27.1845C49.5162 26.7803 49.4644 26.3291 49.4644 25.8312V21.9116H48.072V19.6399H49.4467V17.2007H52.2488V19.6399H54.285V21.9116H52.2488Z" fill="#2C3C69"/>
<path d="M63.5228 22.3769C63.2905 22.1414 63.0183 21.9429 62.7048 21.7813C62.3917 21.6201 62.061 21.5391 61.713 21.5391C61.4458 21.5391 61.1994 21.5953 60.9734 21.7065C60.7471 21.8186 60.6341 22.0113 60.6341 22.2837C60.6341 22.5444 60.7584 22.7303 61.008 22.8424C61.2575 22.9545 61.6608 23.0783 62.2175 23.2147C62.5424 23.2894 62.8704 23.3952 63.2011 23.5316C63.5318 23.6681 63.8304 23.8481 64.0972 24.0714C64.364 24.2947 64.5786 24.568 64.7414 24.8908C64.9034 25.2136 64.985 25.5985 64.985 26.0451C64.985 26.629 64.8748 27.1218 64.6543 27.5252C64.4338 27.9285 64.1466 28.2543 63.7927 28.5028C63.4388 28.7513 63.0414 28.9309 62.6008 29.0426C62.1598 29.1547 61.7189 29.2101 61.2783 29.2101C60.5701 29.2101 59.8773 29.0892 59.1981 28.847C58.5198 28.6052 57.9541 28.248 57.5017 27.7762L59.1028 25.97C59.3574 26.268 59.6709 26.5165 60.0424 26.7146C60.4136 26.9136 60.8083 27.0126 61.2261 27.0126C61.4584 27.0126 61.6875 26.9535 61.9135 26.8355C62.1398 26.718 62.2528 26.5098 62.2528 26.2122C62.2528 25.9263 62.1139 25.7156 61.8354 25.5788C61.5568 25.4424 61.1221 25.2996 60.5301 25.1502C60.2284 25.0759 59.9267 24.9768 59.625 24.8526C59.3229 24.7284 59.0534 24.5613 58.816 24.3497C58.5783 24.139 58.3837 23.8784 58.233 23.5677C58.0824 23.258 58.007 22.8852 58.007 22.4508C58.007 21.8921 58.1169 21.4173 58.3378 21.0261C58.5583 20.6349 58.8423 20.3159 59.1907 20.0674C59.5387 19.8189 59.9244 19.6363 60.3477 19.518C60.771 19.3996 61.1916 19.3408 61.6098 19.3408C62.2591 19.3408 62.8943 19.45 63.515 19.6665C64.1356 19.884 64.661 20.2097 65.0902 20.6442L63.5228 22.3769Z" fill="#2C3C69"/>
<path d="M70.4492 28.9127V15.7295H78.7329V18.4109H73.3207V20.9059H78.4371V23.4567H73.3207V26.1939H79.0464V28.9127H70.4492Z" fill="#2C3C69"/>
<path d="M86.578 28.9128V23.8481C86.578 23.5874 86.5572 23.3393 86.5171 23.1034C86.4763 22.8675 86.4097 22.6598 86.3167 22.4797C86.2237 22.3 86.0934 22.1569 85.9251 22.0511C85.7568 21.9462 85.545 21.8929 85.2899 21.8929C85.0349 21.8929 84.8113 21.9462 84.6198 22.0511C84.4288 22.1569 84.2687 22.303 84.1412 22.4889C84.0137 22.6749 83.918 22.8894 83.8544 23.1311C83.7905 23.3733 83.7587 23.6248 83.7587 23.8854V28.9128H80.8872V19.6401H83.6543V20.9249H83.6892C83.794 20.7264 83.9297 20.5312 84.0984 20.3389C84.2664 20.1463 84.4641 19.9817 84.6901 19.8453C84.9164 19.7089 85.1628 19.5968 85.43 19.5099C85.6968 19.4235 85.9808 19.3794 86.2825 19.3794C86.8628 19.3794 87.3556 19.4915 87.762 19.7148C88.1685 19.9381 88.4957 20.2269 88.7456 20.5803C88.9951 20.9342 89.1748 21.3409 89.285 21.7997C89.3949 22.2593 89.4502 22.7185 89.4502 23.1777V28.9124L86.578 28.9128Z" fill="#2C3C69"/>
<path d="M96.7938 22.6373C96.631 22.414 96.4105 22.2343 96.1323 22.0975C95.8538 21.9611 95.5689 21.8926 95.2794 21.8926C94.9773 21.8926 94.705 21.9577 94.4614 22.0882C94.2177 22.2188 94.009 22.393 93.8348 22.6096C93.661 22.827 93.5241 23.0784 93.4256 23.3639C93.3272 23.6497 93.2777 23.9532 93.2777 24.2764C93.2777 24.5992 93.324 24.9031 93.417 25.1885C93.5096 25.4744 93.6457 25.7258 93.8258 25.9428C94.0055 26.1603 94.2201 26.3311 94.47 26.4549C94.7195 26.5792 95.0008 26.6409 95.3139 26.6409C95.6035 26.6409 95.891 26.5821 96.1751 26.4642C96.4591 26.3462 96.6886 26.1754 96.8624 25.9521L98.4463 28.0189C98.0865 28.3913 97.622 28.683 97.0539 28.8941C96.4854 29.1048 95.882 29.2106 95.2441 29.2106C94.5595 29.2106 93.9204 29.0985 93.3268 28.8752C92.7336 28.6519 92.218 28.3258 91.7806 27.8976C91.3427 27.4695 90.9987 26.9515 90.7476 26.3433C90.4965 25.7351 90.3713 25.0462 90.3713 24.2764C90.3713 23.5192 90.4965 22.8362 90.7476 22.228C90.9987 21.6202 91.3427 21.1014 91.7806 20.6733C92.218 20.2447 92.7339 19.916 93.3268 19.6864C93.9204 19.4568 94.5536 19.3418 95.2268 19.3418C95.5399 19.3418 95.8502 19.3729 96.1578 19.4354C96.465 19.4971 96.7608 19.5815 97.0453 19.6868C97.3297 19.7922 97.5906 19.9227 97.8284 20.078C98.0661 20.2334 98.2725 20.4038 98.4463 20.5901L96.7938 22.6373Z" fill="#2C3C69"/>
<path d="M105.157 22.1535C105.03 22.1161 104.905 22.0918 104.783 22.0792C104.662 22.0666 104.542 22.0603 104.427 22.0603C104.044 22.0603 103.722 22.135 103.461 22.2832C103.2 22.4318 102.991 22.611 102.834 22.8217C102.678 23.032 102.564 23.2612 102.495 23.5089C102.425 23.7565 102.39 23.9727 102.39 24.1586V28.9123H99.5361V19.6509H102.286V20.9916H102.321C102.541 20.5164 102.854 20.129 103.261 19.8289C103.667 19.5288 104.137 19.3789 104.671 19.3789C104.786 19.3789 104.9 19.3856 105.01 19.3978C105.12 19.41 105.21 19.4289 105.28 19.4536L105.157 22.1535Z" fill="#2C3C69"/>
<path d="M111.863 30.309C111.689 30.793 111.494 31.2245 111.28 31.6031C111.065 31.9813 110.81 32.3041 110.514 32.5715C110.219 32.8384 109.87 33.0395 109.47 33.1763C109.07 33.3128 108.597 33.3812 108.052 33.3812C107.785 33.3812 107.509 33.3623 107.226 33.3249C106.941 33.2876 106.694 33.238 106.486 33.1763L106.799 30.607C106.938 30.6561 107.092 30.6969 107.26 30.7279C107.428 30.7586 107.582 30.7741 107.721 30.7741C108.162 30.7741 108.481 30.6654 108.679 30.4484C108.876 30.2309 109.044 29.9241 109.183 29.527L109.462 28.7639L105.842 19.6401H109.009L110.941 25.5985H110.993L112.716 19.6401H115.744L111.863 30.309Z" fill="#2C3C69"/>
<path d="M126.132 24.2393C126.132 24.8849 126.039 25.5057 125.853 26.1013C125.667 26.6974 125.398 27.2216 125.044 27.6746C124.691 28.1279 124.258 28.491 123.748 28.7642C123.237 29.0367 122.657 29.1739 122.007 29.1739C121.473 29.1739 120.969 29.0593 120.493 28.8297C120.017 28.6001 119.646 28.2866 119.379 27.8895H119.345V33.3824H116.49V19.6401H119.205V20.7759H119.258C119.525 20.4036 119.893 20.0779 120.363 19.7983C120.832 19.5192 121.386 19.3794 122.025 19.3794C122.651 19.3794 123.219 19.5099 123.73 19.7706C124.241 20.0313 124.673 20.3851 125.027 20.8317C125.381 21.2784 125.653 21.7972 125.845 22.3865C126.036 22.9763 126.132 23.5941 126.132 24.2393ZM123.365 24.2393C123.365 23.9413 123.322 23.65 123.235 23.3641C123.148 23.0787 123.02 22.8272 122.851 22.6098C122.683 22.3928 122.471 22.2161 122.216 22.0792C121.961 21.9424 121.665 21.8744 121.329 21.8744C121.004 21.8744 120.714 21.9428 120.459 22.0792C120.203 22.2157 119.985 22.3957 119.806 22.619C119.626 22.8424 119.487 23.0971 119.388 23.3822C119.289 23.668 119.24 23.9593 119.24 24.2573C119.24 24.5554 119.289 24.8471 119.388 25.1325C119.487 25.4184 119.626 25.6723 119.806 25.8956C119.985 26.1189 120.203 26.2994 120.459 26.4359C120.713 26.5723 121.004 26.6403 121.329 26.6403C121.665 26.6403 121.961 26.5723 122.216 26.4359C122.472 26.2994 122.683 26.1189 122.851 25.8956C123.02 25.6723 123.148 25.4146 123.235 25.1229C123.321 24.832 123.365 24.5373 123.365 24.2393Z" fill="#2C3C69"/>
<path d="M130.695 21.9116V25.4631C130.695 25.8992 130.773 26.2258 130.93 26.4445C131.086 26.6628 131.367 26.7711 131.774 26.7711C131.913 26.7711 132.061 26.7593 132.218 26.7337C132.374 26.7089 132.504 26.672 132.609 26.622L132.644 28.8564C132.447 28.9307 132.197 28.9957 131.896 29.052C131.594 29.1078 131.292 29.1355 130.991 29.1355C130.411 29.1355 129.923 29.0574 129.529 28.9021C129.134 28.7468 128.818 28.5227 128.58 28.2297C128.342 27.9375 128.171 27.5892 128.067 27.1845C127.962 26.7803 127.91 26.3291 127.91 25.8312V21.9116H126.518V19.6399H127.893V17.2007H130.695V19.6399H132.731V21.9116H130.695Z" fill="#2C3C69"/>
<path d="M56.8927 15.4766C56.0362 15.4766 55.3657 16.1368 55.3657 16.9801C55.3657 17.8683 55.9303 18.4648 56.7711 18.4648C56.8428 18.4648 56.9107 18.4576 56.9747 18.4438C56.8401 19.1011 56.2481 19.5729 55.6886 19.6674L55.5748 19.6867V21.1042L55.7223 21.0891C56.4011 21.0198 57.0716 20.6899 57.5628 20.1837C58.2031 19.5234 58.5416 18.5701 58.5416 17.4267C58.5416 16.2968 57.848 15.4766 56.8927 15.4766Z" fill="#2C3C69"/>
<path d="M18.2366 15.7695H15.0823V14.0368C15.0823 12.6529 14.0297 11.5271 12.7362 11.5271C11.4427 11.5271 10.3904 12.6533 10.3904 14.0368V15.7695H7.23608V14.0368C7.23608 10.7921 9.70345 8.15186 12.7366 8.15186C15.7697 8.15186 18.237 10.7917 18.237 14.0368V15.7695H18.2366Z" fill="#F9A11D"/>
<path d="M19.51 15.7695H5.96478C5.38648 15.7695 4.91333 16.2758 4.91333 16.8945V27.615C4.91333 28.2337 5.38648 28.7399 5.96478 28.7399H19.51C20.0883 28.7399 20.5614 28.2337 20.5614 27.615V16.8945C20.5614 16.2758 20.0883 15.7695 19.51 15.7695ZM13.4238 22.8084V24.2611C13.4238 24.6666 13.1162 24.9953 12.7376 24.9953C12.359 24.9953 12.0514 24.6662 12.0514 24.2611V22.8088C11.6292 22.5523 11.344 22.0683 11.344 21.5118C11.344 20.6882 11.9682 20.0208 12.7376 20.0208C13.5073 20.0208 14.1311 20.6886 14.1311 21.5118C14.1311 22.0679 13.8459 22.5519 13.4238 22.8084Z" fill="#2C3C69"/>
<path d="M4.59143 14.1711H1.32292C0.792883 14.1711 0.363281 13.7115 0.363281 13.1444C0.363281 12.5773 0.792883 12.1177 1.32292 12.1177H4.59143C5.12146 12.1177 5.55106 12.5773 5.55106 13.1444C5.55106 13.7115 5.12107 14.1711 4.59143 14.1711Z" fill="#F9A11D"/>
<path d="M6.8926 8.6701C6.67839 8.6701 6.46221 8.5937 6.2837 8.4363L3.69825 6.16165C3.28904 5.8015 3.2298 5.15467 3.56681 4.71644C3.90343 4.27864 4.50802 4.21526 4.91761 4.57541L7.50307 6.85005C7.91227 7.2102 7.97151 7.85704 7.6345 8.29526C7.445 8.54249 7.16998 8.6701 6.8926 8.6701Z" fill="#F9A11D"/>
<path d="M12.7355 6.25242C12.2055 6.25242 11.7759 5.79279 11.7759 5.2257V1.70103C11.7759 1.13395 12.2055 0.674316 12.7355 0.674316C13.2656 0.674316 13.6952 1.13395 13.6952 1.70103V5.2257C13.6952 5.79279 13.2656 6.25242 12.7355 6.25242Z" fill="#F9A11D"/>
<path d="M18.5803 8.6701C18.3029 8.6701 18.0283 8.54249 17.8384 8.29526C17.5018 7.85746 17.5606 7.2102 17.9698 6.85005L20.5553 4.57541C20.9649 4.21526 21.5694 4.27864 21.9061 4.71644C22.2427 5.15425 22.1838 5.8015 21.7746 6.16165L19.1892 8.4363C19.0107 8.5937 18.7949 8.6701 18.5803 8.6701Z" fill="#F9A11D"/>
<path d="M24.1507 14.1711H20.8512C20.3212 14.1711 19.8916 13.7115 19.8916 13.1444C19.8916 12.5773 20.3212 12.1177 20.8512 12.1177H24.1507C24.6808 12.1177 25.1104 12.5773 25.1104 13.1444C25.1104 13.7115 24.6808 14.1711 24.1507 14.1711Z" fill="#F9A11D"/>
</g>
<defs>
<clipPath id="clip0_9414_7739">
<rect width="133" height="34" fill="white"/>
</clipPath>
</defs>
</svg>
