<?xml version="1.0" encoding="utf-8"?>
<!-- Generator: Adobe Illustrator 27.8.1, SVG Export Plug-In . SVG Version: 6.00 Build 0)  -->
<svg version="1.1" id="Layer_1" xmlns="http://www.w3.org/2000/svg" xmlns:xlink="http://www.w3.org/1999/xlink" x="0px" y="0px"
	 viewBox="0 0 158.5 88.4" enable-background="new 0 0 158.5 88.4" xml:space="preserve">
<g>
	<path fill="#642882" d="M75,76.3v-75H0v19c0.6,0.2,1.3,0.2,1.9-0.9c1-1.9,2.7-3.1,4.6-3.1c3.1,0,5.6,3.3,5.6,7.5s-2.5,7.5-5.6,7.5
		c-1.9,0-3.5-1.2-4.5-3c-0.7-1.1-1.4-1.2-2-1v49.1h49.1c0.2,0.6,0.1,1.4-1,2c-1.8,1-3,2.6-3,4.5c0,3.1,3.3,5.6,7.5,5.6
		S60,86,60,82.9c0-1.9-1.2-3.6-3.1-4.6c-1-0.6-1.1-1.3-0.9-1.9H75z"/>
	<g>
		<path fill="#FFFFFF" d="M14.2,63.6l-0.2,1c0,0.3-0.2,0.4-0.3,0.6c-0.2,0.1-0.4,0.2-0.8,0.2h-0.5L12,67.3h0.9
			c0.3,0,0.4,0.1,0.6,0.2c0.1,0.2,0.1,0.4,0.1,0.8l-0.1,0.8h-1.6l-0.6,3.3H10c-0.1,0-0.2,0-0.3-0.1c-0.1-0.1-0.2-0.1-0.3-0.2
			c-0.1-0.1-0.1-0.2-0.1-0.3s0-0.2,0-0.4l0.4-2.2H8.3l-0.4,2.4c0,0.2-0.1,0.3-0.2,0.4c-0.1,0.1-0.2,0.2-0.3,0.3
			c-0.1,0.1-0.2,0.1-0.3,0.2c-0.1,0-0.3,0-0.4,0H5.6l0.6-3.3H5.5c-0.3,0-0.4-0.1-0.6-0.2c-0.1-0.2-0.1-0.4-0.1-0.8L5,67.3h1.5
			l0.3-1.9H5.1l0.2-1c0-0.3,0.2-0.4,0.3-0.6s0.4-0.2,0.8-0.2H7l0.4-2.4c0-0.3,0.2-0.5,0.4-0.6c0.2-0.1,0.4-0.2,0.7-0.2h1.2l-0.6,3.2
			h1.4l0.6-3.2h1.1c0.1,0,0.3,0,0.4,0.1c0.1,0,0.2,0.1,0.3,0.2s0.1,0.2,0.2,0.3c0,0.1,0,0.2,0,0.3l-0.4,2.4H14.2z M10.2,65.4H8.9
			l-0.3,1.9h1.4L10.2,65.4z"/>
		<path fill="#FFFFFF" d="M21.7,62.8c-0.1,0.1-0.2,0.2-0.3,0.3c-0.1,0.1-0.2,0.1-0.4,0.1c-0.1,0-0.3,0-0.4-0.1
			c-0.1-0.1-0.3-0.2-0.5-0.3c-0.2-0.1-0.4-0.2-0.6-0.3c-0.2-0.1-0.5-0.1-0.8-0.1c-0.5,0-0.9,0.1-1.2,0.3s-0.4,0.5-0.4,0.9
			c0,0.2,0.1,0.4,0.2,0.6c0.2,0.2,0.4,0.3,0.6,0.4c0.3,0.1,0.5,0.2,0.9,0.3c0.3,0.1,0.7,0.2,1,0.3c0.3,0.1,0.7,0.3,1,0.4
			c0.3,0.2,0.6,0.4,0.9,0.6c0.2,0.2,0.5,0.5,0.6,0.9c0.2,0.4,0.2,0.8,0.2,1.3c0,0.6-0.1,1.1-0.3,1.6c-0.2,0.5-0.5,0.9-0.8,1.3
			c-0.4,0.4-0.8,0.6-1.4,0.8c-0.5,0.2-1.1,0.3-1.8,0.3c-0.4,0-0.8,0-1.1-0.1s-0.8-0.2-1.1-0.3c-0.4-0.1-0.7-0.3-1-0.5
			c-0.3-0.2-0.6-0.4-0.8-0.6l0.8-1.3c0.1-0.1,0.2-0.2,0.3-0.2c0.1-0.1,0.2-0.1,0.4-0.1c0.2,0,0.3,0.1,0.5,0.2
			c0.2,0.1,0.4,0.2,0.6,0.3c0.2,0.1,0.5,0.2,0.7,0.3s0.6,0.2,1,0.2c0.5,0,0.9-0.1,1.2-0.3s0.4-0.6,0.4-1.1c0-0.3-0.1-0.5-0.2-0.7
			c-0.2-0.2-0.4-0.3-0.6-0.4c-0.2-0.1-0.5-0.2-0.9-0.3c-0.3-0.1-0.6-0.2-1-0.3c-0.3-0.1-0.7-0.2-1-0.4c-0.3-0.2-0.6-0.4-0.9-0.6
			s-0.5-0.6-0.6-1c-0.2-0.4-0.2-0.9-0.2-1.4c0-0.5,0.1-0.9,0.3-1.3c0.2-0.4,0.4-0.8,0.8-1.1c0.4-0.3,0.8-0.6,1.3-0.8
			c0.5-0.2,1.1-0.3,1.8-0.3c0.4,0,0.7,0,1.1,0.1c0.3,0.1,0.7,0.1,1,0.3c0.3,0.1,0.6,0.2,0.9,0.4c0.3,0.2,0.5,0.3,0.7,0.5L21.7,62.8z
			"/>
		<path fill="#FFFFFF" d="M26.1,64.6c0.3-0.3,0.6-0.5,1-0.6c0.4-0.2,0.8-0.2,1.3-0.2c0.5,0,0.9,0.1,1.2,0.2c0.4,0.2,0.7,0.4,0.9,0.7
			c0.2,0.3,0.4,0.6,0.6,1c0.1,0.4,0.2,0.8,0.2,1.3v5.4h-2.6V67c0-0.4-0.1-0.7-0.3-1s-0.5-0.4-0.8-0.4c-0.3,0-0.5,0.1-0.8,0.2
			c-0.2,0.1-0.5,0.3-0.7,0.5v6.1h-2.6V60h2.6V64.6z"/>
		<path fill="#FFFFFF" d="M34.6,68.6c0.1,0.7,0.3,1.2,0.7,1.6c0.4,0.3,0.8,0.5,1.4,0.5c0.3,0,0.6,0,0.8-0.1c0.2-0.1,0.4-0.2,0.6-0.2
			c0.2-0.1,0.3-0.2,0.5-0.2c0.1-0.1,0.3-0.1,0.4-0.1c0.2,0,0.4,0.1,0.5,0.2l0.7,0.9c-0.3,0.3-0.5,0.5-0.9,0.7
			c-0.3,0.2-0.6,0.3-0.9,0.4c-0.3,0.1-0.6,0.2-1,0.2c-0.3,0-0.6,0.1-0.9,0.1c-0.6,0-1.2-0.1-1.7-0.3s-1-0.5-1.4-0.9
			c-0.4-0.4-0.7-0.9-0.9-1.4c-0.2-0.6-0.3-1.2-0.3-2c0-0.6,0.1-1.1,0.3-1.6c0.2-0.5,0.5-1,0.8-1.3c0.4-0.4,0.8-0.7,1.3-0.9
			c0.5-0.2,1.1-0.3,1.8-0.3c0.6,0,1.1,0.1,1.6,0.3c0.5,0.2,0.9,0.4,1.2,0.8c0.3,0.3,0.6,0.7,0.8,1.2c0.2,0.5,0.3,1,0.3,1.7
			c0,0.2,0,0.3,0,0.5s0,0.2-0.1,0.3c0,0.1-0.1,0.1-0.2,0.1c-0.1,0-0.2,0-0.3,0H34.6z M37.8,67.1c0-0.2,0-0.4-0.1-0.6
			c-0.1-0.2-0.1-0.4-0.3-0.5c-0.1-0.2-0.3-0.3-0.5-0.4s-0.4-0.1-0.7-0.1c-0.5,0-0.9,0.1-1.1,0.4c-0.3,0.3-0.5,0.7-0.5,1.2H37.8z"/>
		<path fill="#FFFFFF" d="M48,62.8c-0.1,0.1-0.2,0.2-0.3,0.3c-0.1,0.1-0.2,0.1-0.4,0.1c-0.1,0-0.3,0-0.4-0.1
			c-0.1-0.1-0.3-0.2-0.5-0.3c-0.2-0.1-0.4-0.2-0.6-0.3c-0.2-0.1-0.5-0.1-0.8-0.1c-0.5,0-0.9,0.1-1.2,0.3s-0.4,0.5-0.4,0.9
			c0,0.2,0.1,0.4,0.2,0.6c0.2,0.2,0.4,0.3,0.6,0.4c0.3,0.1,0.5,0.2,0.9,0.3c0.3,0.1,0.7,0.2,1,0.3c0.3,0.1,0.7,0.3,1,0.4
			c0.3,0.2,0.6,0.4,0.9,0.6c0.2,0.2,0.5,0.5,0.6,0.9c0.2,0.4,0.2,0.8,0.2,1.3c0,0.6-0.1,1.1-0.3,1.6c-0.2,0.5-0.5,0.9-0.8,1.3
			c-0.4,0.4-0.8,0.6-1.4,0.8c-0.5,0.2-1.1,0.3-1.8,0.3c-0.4,0-0.8,0-1.1-0.1s-0.8-0.2-1.1-0.3c-0.4-0.1-0.7-0.3-1-0.5
			c-0.3-0.2-0.6-0.4-0.8-0.6l0.8-1.3c0.1-0.1,0.2-0.2,0.3-0.2c0.1-0.1,0.2-0.1,0.4-0.1c0.2,0,0.3,0.1,0.5,0.2
			c0.2,0.1,0.4,0.2,0.6,0.3c0.2,0.1,0.5,0.2,0.7,0.3s0.6,0.2,1,0.2c0.5,0,0.9-0.1,1.2-0.3s0.4-0.6,0.4-1.1c0-0.3-0.1-0.5-0.2-0.7
			c-0.2-0.2-0.4-0.3-0.6-0.4c-0.2-0.1-0.5-0.2-0.9-0.3c-0.3-0.1-0.6-0.2-1-0.3c-0.3-0.1-0.7-0.2-1-0.4c-0.3-0.2-0.6-0.4-0.9-0.6
			s-0.5-0.6-0.6-1c-0.2-0.4-0.2-0.9-0.2-1.4c0-0.5,0.1-0.9,0.3-1.3c0.2-0.4,0.4-0.8,0.8-1.1c0.4-0.3,0.8-0.6,1.3-0.8
			c0.5-0.2,1.1-0.3,1.8-0.3c0.4,0,0.7,0,1.1,0.1c0.3,0.1,0.7,0.1,1,0.3c0.3,0.1,0.6,0.2,0.9,0.4c0.3,0.2,0.5,0.3,0.7,0.5L48,62.8z"
			/>
		<path fill="#FFFFFF" d="M49.5,65c0.5-0.5,1.1-0.8,1.7-1c0.6-0.2,1.3-0.3,2-0.3c0.5,0,1,0.1,1.4,0.3c0.4,0.2,0.8,0.4,1.1,0.7
			s0.5,0.7,0.7,1.1c0.2,0.4,0.2,0.9,0.2,1.4v5.3h-1.2c-0.2,0-0.4,0-0.5-0.1c-0.1-0.1-0.2-0.2-0.3-0.4l-0.2-0.5
			c-0.2,0.2-0.4,0.3-0.6,0.5s-0.4,0.3-0.6,0.4c-0.2,0.1-0.4,0.2-0.7,0.2s-0.5,0.1-0.8,0.1c-0.4,0-0.7-0.1-1.1-0.2s-0.6-0.3-0.8-0.5
			c-0.2-0.2-0.4-0.4-0.5-0.7c-0.1-0.3-0.2-0.6-0.2-1c0-0.3,0.1-0.6,0.2-0.9c0.2-0.3,0.4-0.6,0.8-0.9c0.4-0.3,0.9-0.5,1.5-0.7
			c0.6-0.2,1.5-0.3,2.4-0.3V67c0-0.5-0.1-0.9-0.3-1.1c-0.2-0.2-0.5-0.3-0.9-0.3c-0.3,0-0.5,0-0.7,0.1c-0.2,0.1-0.4,0.1-0.5,0.2
			c-0.2,0.1-0.3,0.2-0.4,0.2c-0.1,0.1-0.3,0.1-0.5,0.1c-0.2,0-0.3,0-0.4-0.1s-0.2-0.2-0.3-0.3L49.5,65z M54.1,68.9
			c-0.5,0-0.9,0.1-1.3,0.1c-0.3,0.1-0.6,0.1-0.8,0.2c-0.2,0.1-0.3,0.2-0.4,0.3c-0.1,0.1-0.1,0.3-0.1,0.4c0,0.3,0.1,0.5,0.2,0.6
			c0.2,0.1,0.4,0.2,0.7,0.2c0.3,0,0.6-0.1,0.9-0.2c0.2-0.1,0.5-0.3,0.8-0.6V68.9z"/>
		<path fill="#FFFFFF" d="M60.7,61.5c0,0.2,0,0.4-0.1,0.6c-0.1,0.2-0.2,0.3-0.3,0.5c-0.1,0.1-0.3,0.2-0.5,0.3
			c-0.2,0.1-0.4,0.1-0.6,0.1c-0.2,0-0.4,0-0.6-0.1c-0.2-0.1-0.3-0.2-0.5-0.3c-0.1-0.1-0.2-0.3-0.3-0.5c-0.1-0.2-0.1-0.4-0.1-0.6
			c0-0.2,0-0.4,0.1-0.6c0.1-0.2,0.2-0.3,0.3-0.5c0.1-0.1,0.3-0.2,0.5-0.3c0.2-0.1,0.4-0.1,0.6-0.1c0.2,0,0.4,0,0.6,0.1
			c0.2,0.1,0.4,0.2,0.5,0.3c0.1,0.1,0.3,0.3,0.3,0.5C60.6,61.1,60.7,61.3,60.7,61.5z M60.4,63.8v8.6h-2.6v-8.6H60.4z"/>
		<path fill="#FFFFFF" d="M69.5,60v12.3h-1.6c-0.3,0-0.5-0.1-0.6-0.4l-0.2-0.7c-0.2,0.2-0.3,0.3-0.5,0.5c-0.2,0.1-0.4,0.3-0.6,0.4
			c-0.2,0.1-0.5,0.2-0.7,0.2c-0.3,0.1-0.5,0.1-0.8,0.1c-0.4,0-0.9-0.1-1.2-0.3c-0.4-0.2-0.7-0.5-1-0.9c-0.3-0.4-0.5-0.8-0.6-1.4
			c-0.2-0.5-0.2-1.2-0.2-1.9c0-0.6,0.1-1.2,0.3-1.8c0.2-0.5,0.4-1,0.7-1.4s0.7-0.7,1.2-0.9c0.5-0.2,0.9-0.3,1.5-0.3
			c0.4,0,0.8,0.1,1.1,0.2c0.3,0.1,0.6,0.3,0.8,0.5V60H69.5z M66.9,66.1c-0.2-0.2-0.4-0.4-0.6-0.4c-0.2-0.1-0.5-0.1-0.7-0.1
			c-0.2,0-0.5,0-0.7,0.1c-0.2,0.1-0.4,0.2-0.5,0.4c-0.1,0.2-0.3,0.5-0.3,0.8C64,67.3,64,67.7,64,68.1c0,0.5,0,0.8,0.1,1.1
			c0.1,0.3,0.2,0.6,0.3,0.7c0.1,0.2,0.3,0.3,0.4,0.4c0.2,0.1,0.3,0.1,0.6,0.1c0.2,0,0.4,0,0.5-0.1c0.2,0,0.3-0.1,0.4-0.2
			c0.1-0.1,0.2-0.1,0.4-0.3c0.1-0.1,0.2-0.2,0.3-0.4V66.1z"/>
	</g>
	<path fill="#FF9600" d="M63.4,10.5c-8.2-8.2-21.4-8.2-29.5,0c-7.3,7.3-8.1,18.5-2.4,26.7l-2.9,2.9l-4.3-4.3l-5.4,5.4l4.3,4.3
		l-4.3,4.3l5.4,5.4l4.3-4.3l4.3,4.3l5.4-5.4l-4.3-4.3l2.9-2.9c8.1,5.5,19.2,4.6,26.4-2.6C71.6,31.9,71.6,18.7,63.4,10.5z M60.5,37.1
		c-6.5,6.5-17.1,6.5-23.7,0c-6.5-6.5-6.5-17.1,0-23.7c6.5-6.5,17.1-6.5,23.7,0C67.1,20,67.1,30.6,60.5,37.1z"/>
	<g>
		<g>
			<g>
				<g>
					<path fill="#FF3C82" d="M55,10.1H38.4c-0.9,0-1.7,0.8-1.7,1.7V26c0,0.9,0.8,1.7,1.7,1.7h1.3v3.7l3.4-3.7H55
						c0.9,0,1.7-0.8,1.7-1.7V11.8C56.6,10.8,55.9,10.1,55,10.1z"/>
				</g>
			</g>
			<path fill="#642882" d="M52.8,17.2c0.1,0,0.1-0.3,0.1-0.6c0-0.3,0-0.6-0.1-0.6c-0.9-0.2-1.9-0.3-2.8-0.4
				c-0.1-0.9-0.2-1.9-0.4-2.8c0-0.1-0.3-0.1-0.6-0.1s-0.6,0-0.6,0.1v0c-0.2,0.9-0.3,1.8-0.4,2.6c-1.1,0-2.2,0-3.3,0
				c-0.1-0.9-0.2-1.8-0.4-2.7c0-0.1-0.3-0.1-0.6-0.1c-0.3,0-0.6,0-0.6,0.1v0c-0.2,0.9-0.3,1.9-0.4,2.8c-0.9,0.1-1.9,0.2-2.8,0.4
				c-0.1,0-0.1,0.3-0.1,0.6c0,0.3,0,0.6,0.1,0.6h0c0.9,0.2,1.8,0.3,2.6,0.4c-0.1,1.1-0.1,2.2,0,3.3c-0.9,0.1-1.8,0.2-2.6,0.4
				c-0.1,0-0.1,0.3-0.1,0.6s0,0.6,0.1,0.6h0c0.9,0.2,1.9,0.3,2.8,0.4c0.1,0.9,0.2,1.9,0.4,2.8c0,0.1,0.3,0.1,0.6,0.1
				c0.3,0,0.6,0,0.6-0.1v0c0.2-0.9,0.3-1.8,0.4-2.6c1.1,0,2.2,0,3.3,0c0.1,0.9,0.2,1.8,0.4,2.6c0,0.1,0.3,0.1,0.6,0.1s0.6,0,0.6-0.1
				v0c0.2-0.9,0.3-1.9,0.4-2.8c0.9-0.1,1.9-0.2,2.8-0.4c0.1,0,0.1-0.3,0.1-0.6s0-0.6-0.1-0.6c-0.9-0.2-1.8-0.3-2.6-0.4
				c0.1-1.1,0.1-2.2,0-3.3C51.1,17.5,52,17.3,52.8,17.2L52.8,17.2z M47.8,20.7c-1,0-1.9,0-2.9,0c0-1,0-1.9,0-2.9c1,0,1.9,0,2.9,0
				C47.8,18.8,47.7,19.7,47.8,20.7z"/>
			<g>
				<g>
					<path fill="#FF9600" d="M58.4,18.7H44.5c-0.9,0-1.5,0.7-1.5,1.5v14.2c0,0.9,0.7,1.5,1.5,1.5h8.2l3.5,3.8V36h2.2
						c0.9,0,1.5-0.7,1.5-1.5V20.3C60,19.4,59.3,18.7,58.4,18.7z"/>
				</g>
			</g>
		</g>
		<path fill="#642882" d="M57.9,25.3c0.1,0,0.1-0.3,0.1-0.6c0-0.3,0-0.6-0.1-0.6c-0.9-0.2-1.9-0.3-2.8-0.4c-0.1-0.9-0.2-1.9-0.4-2.8
			c0-0.1-0.3-0.1-0.6-0.1s-0.6,0-0.6,0.1v0c-0.2,0.9-0.3,1.8-0.4,2.6c-1.1,0-2.2,0-3.3,0c-0.1-0.9-0.2-1.8-0.4-2.7
			c0-0.1-0.3-0.1-0.6-0.1c-0.3,0-0.6,0-0.6,0.1v0c-0.2,0.9-0.3,1.9-0.4,2.8C46.9,23.8,46,24,45,24.1c-0.1,0-0.1,0.3-0.1,0.6
			c0,0.3,0,0.6,0.1,0.6h0c0.9,0.2,1.8,0.3,2.6,0.4c-0.1,1.1-0.1,2.2,0,3.3c-0.9,0.1-1.8,0.2-2.6,0.4c-0.1,0-0.1,0.3-0.1,0.6
			s0,0.6,0.1,0.6h0c0.9,0.2,1.9,0.3,2.8,0.4c0.1,0.9,0.2,1.9,0.4,2.8c0,0.1,0.3,0.1,0.6,0.1c0.3,0,0.6,0,0.6-0.1v0
			c0.2-0.9,0.3-1.8,0.4-2.6c1.1,0,2.2,0,3.3,0c0.1,0.9,0.2,1.8,0.4,2.6c0,0.1,0.3,0.1,0.6,0.1s0.6,0,0.6-0.1v0
			c0.2-0.9,0.3-1.9,0.4-2.8c0.9-0.1,1.9-0.2,2.8-0.4c0.1,0,0.1-0.3,0.1-0.6s0-0.6-0.1-0.6c-0.9-0.2-1.8-0.3-2.6-0.4
			c0.1-1.1,0.1-2.2,0-3.3C56.2,25.6,57.1,25.4,57.9,25.3L57.9,25.3z M52.9,28.8c-1,0-1.9,0-2.9,0c0-1,0-1.9,0-2.9c1,0,1.9,0,2.9,0
			C52.9,26.9,52.8,27.8,52.9,28.8z"/>
	</g>
	<g>
		<path fill="#642882" d="M88.4,18.4L83.6,3.8c-0.2-0.7-0.7-1.4-1.5-1.4h-0.4c-0.2,0-0.3-0.1-0.3-0.2V1.5l0.1-0.1h7l0.1,0.1v0.6
			c0,0.2-0.1,0.2-0.3,0.2c-1.1,0-1.6,0.1-1.2,1.1l3.9,11.8l2.7-8.2c0.1-0.3,0.2-0.7,0.2-1.1c0-0.2,0-0.5-0.1-0.8l-0.6-1.8
			c-0.2-0.7-0.7-1.1-1.8-1.1h-0.1c-0.2,0-0.3-0.1-0.3-0.2V1.5l0.1-0.1h7.4l0.1,0.1v0.7c0,0.1-0.1,0.2-0.2,0.2c-1,0-1.9,0.1-1.4,1.6
			l3.7,11.5l4-11.9c0.3-1-0.3-1.2-1.6-1.2c-0.1,0-0.2-0.1-0.2-0.2V1.5l0.1-0.1h5.7l0.1,0v0.7c0,0.2-0.3,0.2-0.3,0.2h-0.3
			c-1.1,0-1.4,0.3-1.8,1.5l-4.7,14.3c-0.4,1.1-0.8,1.6-1.6,1.6c-1.2,0-1.5-0.5-1.8-1.4l-3-9.1c-0.1-0.2-0.1-0.4-0.2-0.4
			c0,0-0.1,0.1-0.1,0.3l-3.1,9.4c-0.3,0.8-0.9,1.2-1.6,1.2C89.1,19.7,88.7,19.2,88.4,18.4z"/>
		<path fill="#642882" d="M111.9,17.2c0,0.8,0.5,1,1.3,1.2l0.3,0.1c0.1,0,0.2,0.1,0.2,0.2v0.6l-0.1,0.1c0,0-2.2-0.1-3.3-0.1
			c-1,0-3.2,0.1-3.2,0.1l-0.1-0.1v-0.6c0-0.2,0.1-0.2,0.2-0.2l0.3-0.1c0.9-0.1,1.3-0.4,1.3-1.2v-6.8c0-1.4-0.2-1.7-0.6-1.7l-1.1-0.1
			L107,7.8c1.9-0.3,3.9-0.6,4.7-0.8c0.1,0,0.2,0,0.2,0.1c0,0-0.1,2-0.1,3.4V17.2z M110.3,1.9c0.9,0,1.7,0.7,1.7,1.7
			s-0.7,1.7-1.7,1.7c-0.9,0-1.7-0.7-1.7-1.7S109.4,1.9,110.3,1.9z"/>
		<path fill="#642882" d="M115.5,3.7c0-1.8-0.3-2-0.8-2l-0.9-0.1c-0.1,0-0.2-0.1-0.2-0.1l-0.1-0.8c1.1-0.1,4-0.4,4.7-0.7
			c0.2,0,0.4,0.1,0.4,0.3c0,0-0.1,1.1-0.1,2.9v9.3c0.6-0.1,1.2-0.5,1.6-0.8c0.6-0.5,1.1-1.2,1.8-2c0.7-0.9,0.1-1.4-0.3-1.4L121,8.2
			c-0.3,0-0.4-0.1-0.4-0.3V7.3l0.1-0.1c0,0,1.9,0.1,2.8,0.1c1.1,0,3.2-0.1,3.2-0.1l0.1,0.1v0.6c0,0.2,0,0.3-0.3,0.3l-0.8,0.1
			c-0.5,0-1.5,0.7-2.2,1.4c-0.7,0.7-2.1,2.3-2.1,2.3c-0.1,0.1-0.1,0.4,0.1,0.6l3.2,4.7c0.5,0.7,1.1,1.2,1.6,1.2l0.8,0.1
			c0.1,0,0.2,0.1,0.2,0.2v0.7l-0.1,0.1c0,0-1.9-0.1-3-0.1c-1,0-2.3,0.1-2.3,0.1l-0.1-0.1v-0.7c0-0.4-0.1-0.7-0.4-1.4
			c-0.5-1-1.2-2.2-1.9-3.1c-0.3-0.4-0.6-0.5-1-0.5v3.7c0,0.8,0.5,0.9,1.4,1.2l0.2,0.1c0.1,0,0.2,0.1,0.2,0.2v0.6l-0.1,0.1
			c0,0-2.2-0.1-3.3-0.1c-1,0-3.3,0.1-3.3,0.1l-0.1-0.1v-0.6c0-0.2,0.1-0.2,0.2-0.2l0.3-0.1c0.9-0.1,1.3-0.4,1.3-1.2V3.7z"/>
		<path fill="#642882" d="M132.2,17.2c0,0.8,0.5,1,1.3,1.2l0.3,0.1c0.1,0,0.2,0.1,0.2,0.2v0.6l-0.1,0.1c0,0-2.2-0.1-3.3-0.1
			c-1,0-3.2,0.1-3.2,0.1l-0.1-0.1v-0.6c0-0.2,0.1-0.2,0.2-0.2l0.3-0.1c0.9-0.1,1.3-0.4,1.3-1.2v-6.8c0-1.4-0.2-1.7-0.6-1.7l-1.1-0.1
			l-0.1-0.8c1.9-0.3,3.9-0.6,4.7-0.8c0.1,0,0.2,0,0.2,0.1c0,0-0.1,2-0.1,3.4V17.2z M130.7,1.9c0.9,0,1.7,0.7,1.7,1.7
			s-0.7,1.7-1.7,1.7c-0.9,0-1.7-0.7-1.7-1.7S129.8,1.9,130.7,1.9z"/>
		<polygon fill="#642882" points="86.9,37.1 93.1,37.1 93.1,40.2 83,40.2 83,23.3 86.9,23.3 		"/>
		<path fill="#642882" d="M99.3,28c0.9,0,1.7,0.1,2.5,0.4c0.7,0.3,1.4,0.7,1.9,1.2c0.5,0.5,1,1.2,1.2,1.9c0.3,0.8,0.4,1.6,0.4,2.6
			c0,1-0.1,1.8-0.4,2.6c-0.3,0.8-0.7,1.4-1.2,2c-0.5,0.5-1.2,0.9-1.9,1.2c-0.7,0.3-1.6,0.4-2.5,0.4c-0.9,0-1.8-0.1-2.5-0.4
			c-0.8-0.3-1.4-0.7-1.9-1.2c-0.5-0.5-1-1.2-1.3-2c-0.3-0.8-0.4-1.6-0.4-2.6c0-0.9,0.1-1.8,0.4-2.6c0.3-0.8,0.7-1.4,1.3-1.9
			c0.5-0.5,1.2-0.9,1.9-1.2C97.5,28.1,98.4,28,99.3,28z M99.3,37.7c0.8,0,1.4-0.3,1.8-0.9c0.4-0.6,0.6-1.5,0.6-2.7
			c0-1.2-0.2-2.1-0.6-2.6c-0.4-0.6-1-0.9-1.8-0.9c-0.8,0-1.5,0.3-1.9,0.9c-0.4,0.6-0.6,1.5-0.6,2.6c0,1.2,0.2,2.1,0.6,2.7
			C97.8,37.4,98.4,37.7,99.3,37.7z"/>
		<path fill="#642882" d="M112.6,40.2h-3.3l-4.7-12h3c0.3,0,0.5,0.1,0.6,0.2c0.2,0.1,0.3,0.3,0.4,0.4c0,0,1.9,6.2,2,6.7
			c0.1,0.4,0.2,0.8,0.3,1.2c0.1-0.4,0.2-0.8,0.3-1.2c0.1-0.4,2.1-6.7,2.1-6.7c0.1-0.2,0.2-0.3,0.3-0.4c0.2-0.1,0.4-0.2,0.6-0.2h2.8
			L112.6,40.2z"/>
		<path fill="#642882" d="M122.5,28c0.8,0,1.5,0.1,2.2,0.4c0.7,0.2,1.2,0.6,1.7,1.1c0.5,0.5,0.8,1,1.1,1.7c0.3,0.7,0.4,1.5,0.4,2.3
			c0,0.3,0,0.5,0,0.7c0,0.2-0.1,0.3-0.1,0.4c-0.1,0.1-0.1,0.2-0.2,0.2c-0.1,0-0.2,0.1-0.4,0.1h-6.9c0.1,1,0.4,1.7,0.9,2.2
			s1.1,0.7,1.9,0.7c0.4,0,0.8-0.1,1.1-0.2c0.3-0.1,0.6-0.2,0.8-0.3c0.2-0.1,0.5-0.2,0.6-0.3c0.2-0.1,0.4-0.2,0.6-0.2
			c0.3,0,0.5,0.1,0.6,0.3l1,1.3c-0.4,0.4-0.8,0.8-1.2,1c-0.4,0.3-0.9,0.5-1.3,0.6c-0.5,0.2-0.9,0.3-1.4,0.3
			c-0.5,0.1-0.9,0.1-1.3,0.1c-0.8,0-1.6-0.1-2.4-0.4c-0.7-0.3-1.4-0.7-1.9-1.2s-1-1.2-1.3-2c-0.3-0.8-0.5-1.7-0.5-2.8
			c0-0.8,0.1-1.6,0.4-2.3c0.3-0.7,0.7-1.3,1.2-1.9c0.5-0.5,1.1-1,1.9-1.3C120.7,28.2,121.5,28,122.5,28z M122.5,30.5
			c-0.7,0-1.2,0.2-1.6,0.6c-0.4,0.4-0.6,1-0.8,1.7h4.5c0-0.3,0-0.6-0.1-0.8c-0.1-0.3-0.2-0.5-0.4-0.7c-0.2-0.2-0.4-0.4-0.7-0.5
			C123.2,30.5,122.9,30.5,122.5,30.5z"/>
		<path fill="#642882" d="M136.5,30.8c-0.1,0.1-0.2,0.3-0.3,0.3c-0.1,0.1-0.2,0.1-0.4,0.1c-0.2,0-0.3,0-0.5-0.1l-0.5-0.2
			c-0.2-0.1-0.4-0.2-0.7-0.2c-0.2-0.1-0.5-0.1-0.8-0.1c-0.5,0-0.8,0.1-1,0.3c-0.2,0.2-0.4,0.4-0.4,0.7c0,0.2,0.1,0.4,0.2,0.6
			c0.2,0.1,0.4,0.3,0.6,0.4c0.3,0.1,0.6,0.2,0.9,0.3c0.3,0.1,0.7,0.2,1,0.3c0.3,0.1,0.7,0.3,1,0.4c0.3,0.2,0.6,0.4,0.9,0.6
			c0.3,0.2,0.5,0.5,0.6,0.9c0.2,0.3,0.2,0.8,0.2,1.2c0,0.6-0.1,1.1-0.3,1.6c-0.2,0.5-0.5,0.9-1,1.3c-0.4,0.4-1,0.6-1.6,0.8
			c-0.6,0.2-1.4,0.3-2.2,0.3c-0.4,0-0.8,0-1.2-0.1c-0.4-0.1-0.8-0.2-1.2-0.3c-0.4-0.1-0.7-0.3-1.1-0.5c-0.3-0.2-0.6-0.4-0.8-0.6
			l0.8-1.3c0.1-0.2,0.2-0.3,0.4-0.4c0.1-0.1,0.3-0.1,0.5-0.1c0.2,0,0.4,0,0.6,0.1l0.5,0.3c0.2,0.1,0.4,0.2,0.7,0.3
			c0.3,0.1,0.6,0.1,1,0.1c0.3,0,0.5,0,0.7-0.1c0.2-0.1,0.3-0.1,0.5-0.2c0.1-0.1,0.2-0.2,0.3-0.3c0.1-0.1,0.1-0.3,0.1-0.4
			c0-0.2-0.1-0.4-0.2-0.6c-0.2-0.2-0.4-0.3-0.6-0.4c-0.3-0.1-0.6-0.2-0.9-0.3c-0.3-0.1-0.7-0.2-1-0.3c-0.3-0.1-0.7-0.3-1-0.4
			c-0.3-0.2-0.6-0.4-0.9-0.7c-0.3-0.3-0.5-0.6-0.6-1c-0.2-0.4-0.2-0.9-0.2-1.4c0-0.5,0.1-1,0.3-1.5c0.2-0.5,0.5-0.9,0.9-1.2
			c0.4-0.3,0.9-0.6,1.5-0.8c0.6-0.2,1.3-0.3,2.1-0.3c0.4,0,0.9,0,1.3,0.1c0.4,0.1,0.8,0.2,1.1,0.3c0.4,0.1,0.7,0.3,1,0.5
			c0.3,0.2,0.6,0.4,0.8,0.6L136.5,30.8z"/>
		<path fill="#642882" d="M82.1,44.1h3.3c0.3,0,0.6,0.1,0.9,0.2c0.2,0.2,0.4,0.4,0.4,0.6c0,0,2.5,9.4,2.5,9.7s0.1,0.7,0.2,1
			c0.1-0.4,0.2-0.7,0.3-1c0.1-0.3,3-9.7,3-9.7c0.1-0.2,0.2-0.4,0.4-0.6c0.2-0.2,0.5-0.3,0.8-0.3h1.2c0.3,0,0.6,0.1,0.8,0.2
			c0.2,0.2,0.4,0.4,0.5,0.6c0,0,2.9,9.4,3,9.7c0.1,0.3,0.2,0.6,0.2,1c0.1-0.3,0.1-0.7,0.2-1c0.1-0.3,0.1-0.6,0.2-0.9l2.3-8.8
			c0.1-0.2,0.2-0.4,0.4-0.6c0.2-0.2,0.5-0.3,0.8-0.3h3.1L101.5,61H98c0,0-3.5-11.4-3.5-11.6c-0.1,0.2-0.1,0.4-0.2,0.6
			c-0.1,0.2-0.1,0.4-0.2,0.5L90.9,61h-3.5L82.1,44.1z"/>
		<path fill="#642882" d="M111.1,48.8c0.9,0,1.7,0.1,2.5,0.4c0.7,0.3,1.4,0.7,1.9,1.2c0.5,0.5,1,1.2,1.2,1.9
			c0.3,0.8,0.4,1.6,0.4,2.6c0,1-0.1,1.8-0.4,2.6c-0.3,0.8-0.7,1.4-1.2,2c-0.5,0.5-1.2,0.9-1.9,1.2c-0.7,0.3-1.6,0.4-2.5,0.4
			c-0.9,0-1.8-0.1-2.5-0.4c-0.8-0.3-1.4-0.7-1.9-1.2c-0.5-0.5-1-1.2-1.3-2c-0.3-0.8-0.4-1.6-0.4-2.6c0-0.9,0.1-1.8,0.4-2.6
			c0.3-0.8,0.7-1.4,1.3-1.9c0.5-0.5,1.2-0.9,1.9-1.2C109.4,48.9,110.2,48.8,111.1,48.8z M111.1,58.5c0.8,0,1.4-0.3,1.8-0.9
			c0.4-0.6,0.6-1.5,0.6-2.7c0-1.2-0.2-2.1-0.6-2.6c-0.4-0.6-1-0.9-1.8-0.9c-0.8,0-1.5,0.3-1.9,0.9c-0.4,0.6-0.6,1.5-0.6,2.6
			c0,1.2,0.2,2.1,0.6,2.7C109.7,58.2,110.3,58.5,111.1,58.5z"/>
		<path fill="#642882" d="M117.8,61V49h2.2c0.2,0,0.4,0.1,0.6,0.2c0.2,0.1,0.3,0.3,0.3,0.5l0.2,0.6c0.2-0.2,0.4-0.4,0.6-0.6
			c0.2-0.2,0.4-0.3,0.7-0.5c0.3-0.1,0.5-0.2,0.8-0.3c0.3-0.1,0.6-0.1,1-0.1c0.7,0,1.3,0.2,1.8,0.6s0.8,0.9,1.1,1.5
			c0.2-0.4,0.4-0.7,0.7-0.9c0.3-0.3,0.6-0.5,0.9-0.6c0.3-0.2,0.7-0.3,1.1-0.4c0.4-0.1,0.7-0.1,1.1-0.1c0.7,0,1.3,0.1,1.8,0.3
			s1,0.5,1.3,0.9c0.4,0.4,0.6,0.9,0.8,1.4c0.2,0.6,0.3,1.2,0.3,1.9V61h-3.6v-7.6c0-1.2-0.5-1.9-1.6-1.9c-0.5,0-0.9,0.2-1.2,0.5
			c-0.3,0.3-0.5,0.8-0.5,1.4V61h-3.6v-7.6c0-0.7-0.1-1.2-0.4-1.4c-0.3-0.3-0.7-0.4-1.2-0.4c-0.3,0-0.6,0.1-0.9,0.2
			c-0.3,0.1-0.6,0.3-0.8,0.6V61H117.8z"/>
		<path fill="#642882" d="M141.5,48.8c0.8,0,1.5,0.1,2.2,0.4c0.7,0.2,1.2,0.6,1.7,1.1c0.5,0.5,0.8,1,1.1,1.7
			c0.3,0.7,0.4,1.5,0.4,2.3c0,0.3,0,0.5,0,0.7c0,0.2-0.1,0.3-0.1,0.4c-0.1,0.1-0.1,0.2-0.2,0.2c-0.1,0-0.2,0.1-0.4,0.1h-6.9
			c0.1,1,0.4,1.7,0.9,2.2c0.5,0.5,1.1,0.7,1.9,0.7c0.4,0,0.8-0.1,1.1-0.2c0.3-0.1,0.6-0.2,0.8-0.3c0.2-0.1,0.5-0.2,0.6-0.3
			c0.2-0.1,0.4-0.2,0.6-0.2c0.3,0,0.5,0.1,0.6,0.3l1,1.3c-0.4,0.4-0.8,0.8-1.2,1c-0.4,0.3-0.9,0.5-1.3,0.6c-0.5,0.2-0.9,0.3-1.4,0.3
			c-0.5,0.1-0.9,0.1-1.3,0.1c-0.8,0-1.6-0.1-2.4-0.4c-0.7-0.3-1.4-0.7-1.9-1.2c-0.6-0.5-1-1.2-1.3-2c-0.3-0.8-0.5-1.7-0.5-2.8
			c0-0.8,0.1-1.6,0.4-2.3c0.3-0.7,0.7-1.3,1.2-1.9c0.5-0.5,1.1-1,1.9-1.3C139.8,49,140.6,48.8,141.5,48.8z M141.6,51.3
			c-0.7,0-1.2,0.2-1.6,0.6c-0.4,0.4-0.6,1-0.8,1.7h4.5c0-0.3,0-0.6-0.1-0.8c-0.1-0.3-0.2-0.5-0.4-0.7c-0.2-0.2-0.4-0.4-0.7-0.5
			C142.3,51.3,142,51.3,141.6,51.3z"/>
		<path fill="#642882" d="M147.6,61V49h2.2c0.2,0,0.4,0.1,0.6,0.2c0.2,0.1,0.3,0.3,0.3,0.5l0.2,0.7c0.2-0.2,0.5-0.4,0.7-0.6
			c0.2-0.2,0.5-0.3,0.8-0.5c0.3-0.1,0.6-0.2,0.9-0.3c0.3-0.1,0.7-0.1,1.1-0.1c0.7,0,1.2,0.1,1.7,0.3c0.5,0.2,0.9,0.5,1.3,0.9
			s0.6,0.9,0.8,1.4c0.2,0.6,0.3,1.2,0.3,1.8V61h-3.6v-7.6c0-0.6-0.1-1-0.4-1.4c-0.3-0.3-0.7-0.5-1.2-0.5c-0.4,0-0.8,0.1-1.1,0.3
			c-0.3,0.2-0.7,0.4-1,0.7V61H147.6z"/>
	</g>
</g>
</svg>
