<?xml version="1.0" encoding="UTF-8"?>
<svg id="Vrstva_2" xmlns="http://www.w3.org/2000/svg" viewBox="0 0 80 64">
  <defs>
    <style>
      .cls-1 {
        fill: none;
      }

      .cls-2 {
        fill: #26313c;
      }
    </style>
  </defs>
  <g id="Vrstva_1-2" data-name="Vrstva_1">
    <g>
      <rect class="cls-1" width="80" height="64"/>
      <g>
        <path class="cls-2" d="M30.45,28.69l3.03,19.94,24.72-3.63-3.14-20.65-6.55.96-2.03-13.38-18.17,2.67,2.14,14.09h0ZM43.8,26.72l2.92,19.22-2.62.39-2.92-19.23,2.62-.39ZM32.68,38.55l4.01-.59-.1-.71-4.01.59-.35-2.32,4.01-.59-.1-.71-4.01.59-.95-6.23,9.3-1.37,2.92,19.22-9.3,1.37-1.41-9.26ZM57.38,44.38l-9.94,1.46-2.92-19.22,9.94-1.46,2.92,19.22ZM45.87,12.74l1.93,12.66-15.6,2.29-1.15.17-.39-2.57,4.01-.59-.1-.71-4.01.59-.66-4.33,8.37-1.23-.1-.71-8.38,1.23-.66-4.33,16.75-2.46Z"/>
        <path class="cls-2" d="M50.99,47.59l-18.88,2.72-.07-.44c0-.2-.04-.39-.09-.58l-5.82-37.86-4.33.54.09.71,3.64-.45,5.49,35.66c-.45-.34-1-.55-1.6-.55-1.46,0-2.64,1.17-2.64,2.61s1.19,2.61,2.64,2.61c1.04,0,1.94-.6,2.37-1.47l19.32-2.78-.1-.71ZM29.41,51.84c-1.06,0-1.92-.85-1.92-1.89s.86-1.88,1.92-1.88c.88,0,1.61.58,1.84,1.37l.08.53c0,1.03-.87,1.87-1.92,1.87Z"/>
        <path class="cls-2" d="M49.45,37.94s.47-.52.9-1.01l.61,3.96-1.43.21.11.71,3.65-.54-.11-.71-1.51.22-.6-3.89c.5.34,1.01.65,1.04.67l.38-.61s-1.16-.72-1.68-1.13l-.28-.22-.23.27c-.4.48-1.4,1.58-1.4,1.58l.53.48Z"/>
      </g>
    </g>
  </g>
</svg>