<?xml version="1.0" encoding="UTF-8"?> <!-- Generator: Adobe Illustrator 24.2.0, SVG Export Plug-In . SVG Version: 6.00 Build 0) --> <svg xmlns="http://www.w3.org/2000/svg" xmlns:xlink="http://www.w3.org/1999/xlink" version="1.1" id="Layer_1" x="0px" y="0px" viewBox="0 0 68 68" style="enable-background:new 0 0 68 68;" xml:space="preserve"> <style type="text/css"> .st0{fill:#6499C3;} .st1{clip-path:url(#SVGID_2_);fill:#6499C3;} </style> <desc>Created with Sketch.</desc> <path class="st0" d="M149.8-50.6L149.8-50.6h-6.5v-6c0-1.5-1.1-2.7-2.4-2.7h-40c-1.3,0-2.4,1.2-2.4,2.7v6h-6.6 c-1.3,0-2.4,1.2-2.4,2.8v15.1c0,4.4,1.5,8.3,4.1,11.2l0,0c2.2,2.5,5.2,4.2,8.4,4.6c3.6,6.4,9.7,10.7,16.4,11.6v6.8H108 c-1.3,0-2.4,1.3-2.4,2.8S106.7,7,108,7h25.8c1.3,0,2.4-1.2,2.4-2.7s-1.1-2.8-2.4-2.8h-10.5v-6.8c6.7-0.8,12.8-5.2,16.4-11.6 c3.2-0.4,6.1-2,8.3-4.5l0.1-0.2c2.5-2.9,4.1-6.8,4.1-11.2v-15C152.2-49.4,151.2-50.6,149.8-50.6L149.8-50.6z M97.1-25.4L97.1-25.4 c-1.7-1.9-2.7-4.5-2.7-7.4v-12.3h4.1v14.9c0.1,2.3,0.3,4.6,0.9,6.8C98.5-23.9,97.7-24.6,97.1-25.4L97.1-25.4z M147.4-32.7 L147.4-32.7c0,2.9-1,5.5-2.7,7.4l-0.1,0.1c-0.7,0.7-1.4,1.4-2.3,1.8c0.6-2.2,0.9-4.5,0.9-6.8v-0.1v-14.8h4.1L147.4-32.7L147.4-32.7z "></path> <g> <g> <defs> <rect id="SVGID_1_" x="2.2" y="1" width="61.8" height="65.8"></rect> </defs> <clipPath id="SVGID_2_"> <use xlink:href="#SVGID_1_" style="overflow:visible;"></use> </clipPath> <path class="st1" d="M63.6,18.8L46.9,1.4C46.7,1.2,46.3,1,46,1H21.1c-2.8,0-5.1,2.3-5.1,5.1v17.6H6c-2.1,0-3.8,1.7-3.8,3.8v18.9 c0,2.1,1.7,3.8,3.8,3.8h10.1v11.3c0,2.8,2.3,5,5.1,5h37.8c2.8,0,5.1-2.3,5.1-5V19.7C64,19.3,63.8,19,63.6,18.8L63.6,18.8z M46.3,4.4L60,18.7H46.3V4.4z M6,47.7c-0.7,0-1.3-0.6-1.3-1.3V27.5c0-0.7,0.6-1.3,1.3-1.3h34c0.7,0,1.3,0.6,1.3,1.3v18.9 c0,0.7-0.6,1.3-1.3,1.3H6z M61.4,61.6c0,1.4-1.1,2.5-2.5,2.5H21.1c-1.4,0-2.5-1.1-2.5-2.5V50.2H40c2.1,0,3.8-1.7,3.8-3.8V27.5 c0-2.1-1.7-3.8-3.8-3.8H18.6V6.1c0-1.4,1.1-2.5,2.5-2.5h22.7V20c0,0.7,0.6,1.3,1.3,1.3h16.4V61.6z M61.4,61.6"></path> </g> <path class="st0" d="M17.3,33c-0.4-0.5-0.9-0.9-1.6-1.1c-0.4-0.1-1.3-0.2-2.6-0.2H9.6v10.8h2.2v-4.1h1.4c1,0,1.7-0.1,2.3-0.2 c0.4-0.1,0.8-0.3,1.1-0.5c0.4-0.3,0.7-0.6,0.9-1.1c0.2-0.5,0.4-1,0.4-1.7C17.9,34.3,17.7,33.6,17.3,33L17.3,33z M15.4,36 c-0.2,0.2-0.4,0.4-0.7,0.5c-0.3,0.1-0.9,0.2-1.7,0.2h-1.2v-3.1h1.1c0.8,0,1.3,0,1.6,0.1c0.4,0.1,0.6,0.2,0.9,0.5 c0.2,0.3,0.3,0.6,0.3,1C15.6,35.5,15.6,35.8,15.4,36L15.4,36z M15.4,36"></path> <path class="st0" d="M28.4,34.8c-0.2-0.7-0.6-1.3-1-1.8c-0.5-0.5-1-0.8-1.6-1c-0.5-0.1-1.2-0.2-2.1-0.2h-4v10.8h4.1 c0.8,0,1.5-0.1,1.9-0.2c0.6-0.2,1.2-0.5,1.5-0.9c0.5-0.5,0.9-1.1,1.2-1.9c0.2-0.6,0.3-1.4,0.3-2.3C28.8,36.3,28.6,35.5,28.4,34.8 L28.4,34.8z M26.3,39.2c-0.1,0.5-0.3,0.8-0.6,1c-0.2,0.2-0.5,0.4-0.9,0.5c-0.3,0.1-0.7,0.1-1.3,0.1h-1.6v-7.2h1 c0.9,0,1.5,0,1.8,0.1c0.4,0.1,0.7,0.3,1,0.5c0.3,0.3,0.5,0.6,0.6,1c0.1,0.4,0.2,1.1,0.2,1.9C26.5,38.1,26.4,38.7,26.3,39.2 L26.3,39.2z M26.3,39.2"></path> <path class="st0" d="M38.1,33.7v-1.8h-7.4v10.8h2.2V38h4.5v-1.8h-4.5v-2.6H38.1z M38.1,33.7"></path> </g> </svg> 