<svg width="64" height="64" viewBox="0 0 64 64" fill="none" xmlns="http://www.w3.org/2000/svg">
<g clip-path="url(#clip0_804_1253)">
<path d="M22.0999 30.4C27.2999 30.4 31.4999 26.2 31.4999 21C31.4999 15.8 27.2999 11.6 22.0999 11.6C16.8999 11.6 12.6999 15.8 12.6999 21C12.6999 26.3 16.8999 30.4 22.0999 30.4ZM22.0999 30.4C31.4999 30.4 35.3999 35.6 35.3999 35.6C37.6999 32 40.1999 27.3 48.5999 27.3M22.0999 30.4C12.6999 30.4 6.4999 36.6 3.3999 42.9M48.5999 27.3C51.9999 27.3 54.7999 24.5 54.7999 21.1C54.7999 17.7 51.9999 14.9 48.5999 14.9C45.1999 14.9 42.3999 17.7 42.3999 21.1C42.3999 24.5 45.0999 27.3 48.5999 27.3ZM48.5999 27.3C53.2999 27.3 56.3999 28.9 59.4999 33.5C62.5999 38.1 61.0999 44.4 53.2999 44.4H40.7999C40.7999 46.5 40.7999 52.2 34.5999 52.2H6.4999" stroke="#2FA477" stroke-width="2.57" stroke-miterlimit="10" stroke-linecap="round" stroke-linejoin="round"/>
</g>
<defs>
<clipPath id="clip0_804_1253">
<rect width="64" height="64" fill="white"/>
</clipPath>
</defs>
</svg>
