<svg width="131" height="34" viewBox="0 0 131 34" fill="none" xmlns="http://www.w3.org/2000/svg">
<g opacity="0.7">
<path d="M9.326 24V15.888C9.326 14.328 9.664 13.262 10.418 12.534C11.146 11.806 12.316 11.338 14.344 11.338H15.67C17.646 11.338 18.868 11.78 19.622 12.534C20.376 13.262 20.688 14.328 20.688 15.888V24H17.256V16.798C17.256 15.498 17.204 14.978 16.892 14.588C16.58 14.25 16.138 14.146 15.514 14.146H14.526C13.902 14.146 13.434 14.25 13.122 14.614C12.81 15.004 12.784 15.524 12.784 16.798V24H9.326ZM28.4648 24.156C26.2288 24.156 24.9808 23.688 24.1748 22.804C23.1088 21.66 22.8748 19.918 22.8748 17.786V17.656C22.8748 15.706 23.0828 14.068 23.9408 12.924C24.7468 11.884 26.0468 11.338 28.4648 11.338H28.9588C31.1428 11.338 32.3908 11.806 33.1968 12.664C34.2888 13.782 34.5488 15.498 34.5488 17.656V17.786C34.5488 20.074 34.2628 21.842 33.0668 22.96C32.2608 23.74 31.0648 24.156 28.9588 24.156H28.4648ZM28.4128 21.348H29.0108C29.8948 21.348 30.3888 21.088 30.6748 20.594C30.9088 20.1 31.0128 19.164 31.0128 17.864V17.63C31.0128 16.304 30.9088 15.394 30.6748 14.9C30.3888 14.38 29.8948 14.146 29.0368 14.146H28.4128C27.7368 14.146 27.0608 14.302 26.7488 14.978C26.4888 15.524 26.4108 16.434 26.4108 17.63V17.864C26.4108 19.164 26.5148 20.1 26.7488 20.594C27.0348 21.088 27.5288 21.348 28.4128 21.348ZM40.5904 24L39.1084 21.66C38.6404 20.854 38.2764 20.204 37.9904 19.528C36.9764 17.63 36.4304 16.512 36.1964 14.224C36.1184 13.47 36.0924 12.716 36.0924 11.546H39.5504C39.5764 13.886 39.5764 15.446 40.2524 17.318C40.5384 18.098 40.9024 18.904 41.7864 20.412H41.8124C42.5924 19.086 43.0344 18.202 43.3724 17.318C43.9964 15.576 44.0224 14.094 44.0744 11.546H47.5324C47.5324 12.742 47.5064 13.496 47.4284 14.25C47.1944 16.564 46.6484 17.656 45.6344 19.528C45.3224 20.256 44.9064 20.984 44.3604 21.868L43.0344 24H40.5904ZM58.7851 12.352C59.6431 13.106 60.0331 14.146 60.0331 15.966V19.788C60.0331 21.556 59.6691 22.674 58.8111 23.35C58.0831 23.922 56.9131 24.156 55.2491 24.156H53.5071C52.0771 24.156 50.8551 23.87 49.9971 23.194C49.2431 22.57 48.8011 21.608 48.8011 20.178C48.8011 18.878 49.1651 17.968 49.8411 17.344C50.8291 16.382 52.1811 16.096 54.9631 16.096H56.5751V15.862C56.5751 15.16 56.4971 14.718 56.2371 14.484C55.9511 14.224 55.5091 14.146 54.8331 14.146H53.8971C52.2591 14.146 51.6611 14.354 50.9071 14.848L49.5551 12.482C50.8551 11.572 51.7651 11.338 53.9491 11.338H55.3011C56.9131 11.338 58.0311 11.676 58.7851 12.352ZM56.3151 21.088C56.4971 20.88 56.5751 20.542 56.5751 19.996V18.592H54.5471C53.4811 18.592 52.9091 18.67 52.5711 18.982C52.3111 19.216 52.2071 19.528 52.2071 19.996C52.2071 20.464 52.3371 20.802 52.5711 21.036C52.8571 21.27 53.3251 21.4 53.9231 21.4H54.9371C55.6391 21.4 56.0811 21.348 56.3151 21.088Z" fill="white"/>
</g>
<path d="M67.94 24L66.458 21.66C65.99 20.854 65.626 20.204 65.34 19.528C64.326 17.63 63.78 16.512 63.546 14.224C63.468 13.47 63.442 12.716 63.442 11.546H66.9C66.926 13.886 66.926 15.446 67.602 17.318C67.888 18.098 68.252 18.904 69.136 20.412H69.162C69.942 19.086 70.384 18.202 70.722 17.318C71.346 15.576 71.372 14.094 71.424 11.546H74.882C74.882 12.742 74.856 13.496 74.778 14.25C74.544 16.564 73.998 17.656 72.984 19.528C72.672 20.256 72.256 20.984 71.71 21.868L70.384 24H67.94ZM78.6636 9.024C77.5456 9.024 76.7136 8.218 76.7136 7.1C76.7136 5.982 77.5196 5.176 78.6636 5.176C79.7816 5.176 80.5876 6.008 80.5876 7.1C80.5876 8.244 79.7816 9.024 78.6636 9.024ZM76.9216 24V11.546H80.3796V24H76.9216ZM88.39 24.156C86.726 24.156 85.426 23.87 84.464 23.116C83.138 22.076 82.826 20.152 82.826 17.76V17.604C82.826 15.316 83.19 13.704 84.1 12.716C84.958 11.78 86.284 11.338 88.39 11.338H88.832C89.794 11.338 90.418 11.416 90.964 11.65H90.99V4.994H94.422V18.514C94.422 21.348 94.162 22.544 92.914 23.402C92.108 23.974 90.964 24.156 88.806 24.156H88.39ZM88.364 21.322H88.884C89.924 21.322 90.47 21.166 90.704 20.698C90.912 20.36 90.938 19.892 90.938 19.06V16.824C90.938 15.94 90.964 15.16 90.73 14.744C90.444 14.198 89.794 14.146 88.91 14.146H88.364C87.558 14.146 87.064 14.38 86.804 14.796C86.492 15.264 86.362 16.018 86.362 17.656V17.968C86.362 19.528 86.492 20.308 86.83 20.75C87.09 21.114 87.558 21.322 88.364 21.322ZM108.183 16.538C108.183 18.072 107.715 19.19 105.531 19.19H100.149C100.175 19.97 100.279 20.542 100.643 20.932C100.929 21.244 101.423 21.4 102.203 21.4H103.243C104.257 21.4 104.907 21.296 105.375 21.114C105.661 20.984 105.999 20.802 106.259 20.568L107.975 22.622C107.481 23.09 107.039 23.428 106.571 23.636C105.713 24.026 104.751 24.156 103.139 24.156H102.229C100.461 24.156 99.2911 23.87 98.4591 23.298C96.9511 22.258 96.6131 20.282 96.6131 17.63C96.6131 15.628 96.8211 13.678 97.9911 12.56C98.8231 11.754 100.149 11.338 102.203 11.338H102.827C104.283 11.338 105.453 11.546 106.363 12.04C107.585 12.742 108.183 13.938 108.183 15.836V16.538ZM104.803 16.408V15.732C104.803 15.108 104.673 14.718 104.387 14.484C104.075 14.224 103.581 14.146 102.879 14.146H102.229C101.423 14.146 100.929 14.302 100.617 14.666C100.253 15.056 100.175 15.758 100.149 16.694H104.569C104.803 16.694 104.803 16.668 104.803 16.408ZM115.584 24.156C113.348 24.156 112.1 23.688 111.294 22.804C110.228 21.66 109.994 19.918 109.994 17.786V17.656C109.994 15.706 110.202 14.068 111.06 12.924C111.866 11.884 113.166 11.338 115.584 11.338H116.078C118.262 11.338 119.51 11.806 120.316 12.664C121.408 13.782 121.668 15.498 121.668 17.656V17.786C121.668 20.074 121.382 21.842 120.186 22.96C119.38 23.74 118.184 24.156 116.078 24.156H115.584ZM115.532 21.348H116.13C117.014 21.348 117.508 21.088 117.794 20.594C118.028 20.1 118.132 19.164 118.132 17.864V17.63C118.132 16.304 118.028 15.394 117.794 14.9C117.508 14.38 117.014 14.146 116.156 14.146H115.532C114.856 14.146 114.18 14.302 113.868 14.978C113.608 15.524 113.53 16.434 113.53 17.63V17.864C113.53 19.164 113.634 20.1 113.868 20.594C114.154 21.088 114.648 21.348 115.532 21.348Z" fill="white"/>
</svg>
