<svg width="42" height="52" viewBox="0 0 42 52" fill="none" xmlns="http://www.w3.org/2000/svg">
<path fill-rule="evenodd" clip-rule="evenodd" d="M0.126528 0.907042C0.12088 0.825738 0.115499 0.744903 0.110383 0.664546L1.62017 0.471989C1.62511 0.549568 1.6303 0.627644 1.63576 0.706212C1.66403 1.11313 1.34909 1.48795 0.932326 1.54341C0.515563 1.59887 0.154794 1.31396 0.126528 0.907042ZM1.34782 4.94425C1.76013 4.85106 2.14872 5.09974 2.21577 5.4997C2.24233 5.65813 2.26973 5.81759 2.298 5.97802C2.36834 6.37722 2.09157 6.77898 1.67981 6.87538C1.26806 6.97177 0.877242 6.7263 0.806902 6.32709C0.777956 6.16282 0.749884 5.99951 0.722676 5.8372C0.655631 5.43724 0.935519 5.03745 1.34782 4.94425ZM2.40374 10.2083C2.80921 10.0829 3.21932 10.2981 3.31974 10.6892C3.35972 10.8449 3.40045 11.0011 3.44194 11.1578C3.54521 11.548 3.3008 11.9682 2.89605 12.0964C2.49129 12.2246 2.07946 12.0123 1.97619 11.6222C1.93383 11.4621 1.89223 11.3026 1.8514 11.1436C1.75098 10.7525 1.99827 10.3338 2.40374 10.2083ZM3.88395 15.347C4.28067 15.1923 4.7083 15.3753 4.83908 15.7557C4.89087 15.9064 4.94336 16.0573 4.99654 16.2085C5.13002 16.5879 4.91735 17.0229 4.52153 17.1802C4.12571 17.3374 3.69663 17.1574 3.56315 16.778C3.50886 16.6237 3.45529 16.4697 3.40242 16.3159C3.27164 15.9354 3.48723 15.5016 3.88395 15.347ZM5.7629 20.3365C6.14855 20.1534 6.5913 20.303 6.75181 20.6706C6.81532 20.816 6.87949 20.9615 6.94433 21.107C7.10754 21.4733 6.92814 21.9208 6.54362 22.1065C6.1591 22.2921 5.71508 22.1457 5.55187 21.7794C5.48564 21.6308 5.4201 21.4822 5.35524 21.3336C5.19473 20.966 5.37725 20.5196 5.7629 20.3365ZM8.03443 25.1368C8.40615 24.9251 8.86198 25.0388 9.05255 25.3907C9.1282 25.5304 9.20451 25.67 9.28148 25.8095C9.47483 26.1598 9.3314 26.6175 8.96112 26.8318C8.59084 27.0461 8.13393 26.9358 7.94058 26.5855C7.86185 26.4429 7.78381 26.3001 7.70646 26.1573C7.51588 25.8053 7.66272 25.3484 8.03443 25.1368ZM10.7103 29.7168C11.0645 29.476 11.5312 29.5506 11.7526 29.8833C11.8406 30.0156 11.9294 30.1477 12.0187 30.2795C12.243 30.6103 12.1391 31.0758 11.7867 31.3192C11.4343 31.5626 10.9668 31.4918 10.7425 31.161C10.6509 31.026 10.56 30.8907 10.4699 30.7551C10.2484 30.4224 10.3561 29.9575 10.7103 29.7168ZM13.7977 34.0212C14.1302 33.7511 14.6047 33.7828 14.8576 34.0921C14.9576 34.2144 15.0582 34.3363 15.1595 34.4579C15.4152 34.7649 15.3548 35.2349 15.0245 35.5077C14.6942 35.7805 14.2191 35.7528 13.9634 35.4459C13.8594 35.3211 13.7561 35.1959 13.6535 35.0704C13.4007 34.7611 13.4652 34.2914 13.7977 34.0212ZM17.3022 37.9919C17.6082 37.6926 18.0868 37.678 18.3711 37.9592C18.4838 38.0706 18.597 38.1815 18.711 38.292C18.9982 38.5704 18.9851 39.0408 18.6818 39.3427C18.3785 39.6446 17.8997 39.6636 17.6125 39.3852C17.4953 39.2716 17.3788 39.1575 17.2631 39.043C16.9787 38.7618 16.9962 38.2912 17.3022 37.9919ZM21.222 41.5676C21.4965 41.2405 21.9743 41.1765 22.2892 41.4248C22.4141 41.5233 22.5397 41.6212 22.666 41.7187C22.9836 41.9637 23.0211 42.4295 22.7497 42.7591C22.4784 43.0887 22.0009 43.1572 21.6833 42.9122C21.5533 42.8118 21.4239 42.7109 21.2952 42.6094C20.9803 42.3612 20.9476 41.8947 21.222 41.5676ZM25.538 44.6846C25.7763 44.3321 26.2476 44.2174 26.5907 44.4283C26.7267 44.5118 26.8634 44.5948 27.0007 44.6772C27.3463 44.8845 27.4361 45.3399 27.2013 45.6945C26.9666 46.049 26.4962 46.1684 26.1507 45.9611C26.009 45.8762 25.8681 45.7906 25.7279 45.7044C25.3848 45.4936 25.2998 45.037 25.538 44.6846ZM30.2124 47.2879C30.4107 46.9141 30.8695 46.7489 31.2372 46.919C31.3818 46.9859 31.527 47.0522 31.6729 47.1179C32.0426 47.2842 32.1844 47.7234 31.9898 48.0989C31.7952 48.4744 31.3378 48.644 30.9682 48.4777C30.8178 48.41 30.668 48.3417 30.5189 48.2727C30.1513 48.1026 30.014 47.6617 30.2124 47.2879ZM35.1888 49.34C35.3452 48.9496 35.786 48.7367 36.1733 48.8643C36.3252 48.9143 36.4776 48.9637 36.6307 49.0125C37.0196 49.1363 37.2111 49.554 37.0585 49.9456C36.9059 50.3372 36.467 50.5543 36.0781 50.4305C35.9204 50.3803 35.7634 50.3294 35.6069 50.2778C35.2196 50.1502 35.0324 49.7303 35.1888 49.34ZM40.3986 50.8272C40.5129 50.4255 40.9313 50.1691 41.3331 50.2545C41.3875 50.2661 41.4419 50.2776 41.4964 50.289C41.5226 50.2944 41.5488 50.2999 41.5749 50.3053L41.1679 51.7615C41.0848 51.7442 41.0019 51.7268 40.9191 51.7092C40.5173 51.6238 40.2843 51.2289 40.3986 50.8272Z" fill="black" fill-opacity="0.5"/>
</svg>
