<svg width="24" height="24" viewBox="0 0 24 24" fill="none" xmlns="http://www.w3.org/2000/svg">
<path d="M12 6V12L16 14" stroke="#E51936" stroke-width="2" stroke-linecap="round" stroke-linejoin="round"/>
<path d="M16 21.16C14.2026 21.9452 12.214 22.1845 10.2816 21.848C8.34918 21.5116 6.55841 20.6143 5.13212 19.2678C3.70583 17.9213 2.70702 16.1851 2.26 14.2753C1.81297 12.3654 1.93747 10.3663 2.618 8.52669C3.29853 6.68708 4.50505 5.08822 6.08737 3.9291C7.6697 2.76999 9.55797 2.10181 11.5172 2.00773C13.4764 1.91365 15.42 2.39781 17.1061 3.39997C18.7922 4.40213 20.1464 5.87803 21 7.64397" stroke="#E51936" stroke-width="2" stroke-linecap="round" stroke-linejoin="round"/>
<path d="M20 11.5V17.5" stroke="#E51936" stroke-width="2" stroke-linecap="round" stroke-linejoin="round"/>
<path d="M20 21.5H20.01" stroke="#E51936" stroke-width="2" stroke-linecap="round" stroke-linejoin="round"/>
</svg>
