<?xml version="1.0" encoding="UTF-8"?>
<svg id="Layer_1" xmlns="http://www.w3.org/2000/svg" viewBox="0 0 299.52 16">
  <defs>
    <style>
      .cls-1 {
        fill-rule: evenodd;
      }

      .cls-1, .cls-2 {
        fill: #eb1e25;
      }
    </style>
  </defs>
  <g>
    <path class="cls-2" d="M162.36,14.9h-2.34v-4.87h-4.57v4.87h-2.34V3.52h2.34v4.61h4.57V3.52h2.34v11.37Z"/>
    <path class="cls-2" d="M173.75,9.47c0,1.12-.2,2.1-.59,2.94-.4.84-.96,1.5-1.7,1.95-.74.46-1.58.69-2.54.69s-1.78-.23-2.52-.68c-.74-.45-1.31-1.1-1.72-1.94-.41-.84-.61-1.81-.62-2.9v-.56c0-1.12.2-2.11.61-2.96.4-.85.97-1.5,1.71-1.96.74-.46,1.58-.68,2.53-.68s1.79.23,2.53.68c.74.46,1.31,1.11,1.71,1.96.4.85.61,1.83.61,2.95v.51ZM171.38,8.95c0-1.19-.21-2.1-.64-2.72-.43-.62-1.04-.93-1.83-.93s-1.39.31-1.82.92c-.43.61-.64,1.51-.65,2.69v.55c0,1.16.21,2.06.64,2.7.43.64,1.04.96,1.84.96s1.39-.31,1.81-.93c.42-.62.64-1.52.64-2.7v-.55Z"/>
    <path class="cls-2" d="M178.52,3.52l2.92,8.25,2.91-8.25h3.08v11.37h-2.35v-3.11l.23-5.37-3.07,8.48h-1.61l-3.06-8.47.23,5.36v3.11h-2.34V3.52h3.06Z"/>
    <path class="cls-2" d="M196.32,9.97h-4.5v3.05h5.28v1.88h-7.62V3.52h7.61v1.9h-5.27v2.71h4.5v1.84Z"/>
    <path class="cls-2" d="M200.82,10.89v4.01h-2.34V3.52h4.44c.85,0,1.61.16,2.25.47s1.15.76,1.5,1.33c.35.58.52,1.23.52,1.96,0,1.11-.38,1.99-1.14,2.64-.76.64-1.82.96-3.17.96h-2.05ZM200.82,8.99h2.09c.62,0,1.09-.15,1.42-.44.33-.29.49-.71.49-1.25s-.16-1.01-.49-1.35-.78-.52-1.36-.53h-2.15v3.57Z"/>
    <path class="cls-2" d="M213.83,12.55h-4.11l-.78,2.34h-2.49l4.23-11.37h2.17l4.26,11.37h-2.49l-.79-2.34ZM210.35,10.65h2.84l-1.43-4.26-1.41,4.26Z"/>
    <path class="cls-2" d="M227,13.46c-.42.51-1.02.9-1.79,1.18-.77.28-1.62.42-2.56.42-.98,0-1.85-.21-2.59-.64s-1.32-1.05-1.72-1.87c-.4-.82-.61-1.78-.62-2.88v-.77c0-1.14.19-2.12.57-2.95.38-.83.93-1.47,1.66-1.91.72-.44,1.57-.66,2.54-.66,1.35,0,2.4.32,3.16.96.76.64,1.21,1.58,1.35,2.81h-2.28c-.1-.65-.33-1.13-.69-1.43-.36-.3-.85-.45-1.47-.45-.8,0-1.4.3-1.82.9-.42.6-.63,1.49-.63,2.67v.73c0,1.19.23,2.09.68,2.7.45.61,1.12.91,1.99.91s1.51-.19,1.88-.56v-1.96h-2.13v-1.73h4.48v4.54Z"/>
    <path class="cls-2" d="M235.75,9.97h-4.5v3.05h5.28v1.88h-7.62V3.52h7.61v1.9h-5.27v2.71h4.5v1.84Z"/>
    <path class="cls-2" d="M251.14,14.9h-2.34l-4.56-7.48v7.48h-2.34V3.52h2.34l4.57,7.5V3.52h2.34v11.37Z"/>
    <path class="cls-2" d="M259.75,12.55h-4.11l-.78,2.34h-2.49l4.23-11.37h2.17l4.26,11.37h-2.49l-.79-2.34ZM256.27,10.65h2.84l-1.43-4.26-1.41,4.26Z"/>
    <path class="cls-2" d="M272.86,11.11c-.09,1.22-.54,2.19-1.36,2.89-.82.7-1.89,1.05-3.22,1.05-1.46,0-2.61-.49-3.44-1.47-.84-.98-1.25-2.33-1.25-4.04v-.7c0-1.09.19-2.06.58-2.89.39-.83.94-1.47,1.65-1.92.72-.45,1.55-.67,2.5-.67,1.31,0,2.37.35,3.17,1.05.8.7,1.27,1.69,1.39,2.96h-2.34c-.06-.73-.26-1.27-.61-1.6-.35-.33-.89-.5-1.61-.5-.78,0-1.37.28-1.75.84-.39.56-.59,1.43-.6,2.61v.86c0,1.23.19,2.13.56,2.69.37.57.96.85,1.76.85.72,0,1.26-.17,1.62-.5.36-.33.56-.84.61-1.53h2.34Z"/>
    <path class="cls-2" d="M276.89,14.9h-2.34V3.52h2.34v11.37Z"/>
    <path class="cls-2" d="M283.65,3.52h2.34v7.88c0,.72-.16,1.36-.48,1.92s-.77.98-1.36,1.29c-.58.3-1.24.45-1.98.45-1.2,0-2.14-.31-2.81-.92-.67-.61-1.01-1.48-1.01-2.6h2.36c0,.56.12.97.35,1.23s.6.4,1.11.4c.45,0,.8-.15,1.07-.46.27-.31.4-.74.4-1.31V3.52Z"/>
    <path class="cls-2" d="M294.84,9.97h-4.5v3.05h5.28v1.88h-7.63V3.52h7.61v1.9h-5.27v2.71h4.5v1.84Z"/>
    <path class="cls-2" d="M296.97,13.79c0-.36.12-.65.36-.88.24-.22.54-.34.91-.34s.68.11.92.34c.24.22.36.52.36.88s-.12.64-.36.86c-.24.22-.55.33-.92.33s-.67-.11-.91-.33c-.24-.22-.36-.51-.36-.86Z"/>
  </g>
  <g>
    <g>
      <path id="SVGID" class="cls-1" d="M64.5,14.26c2.3-1.74,4.04-4.04,4.04-7.52,0-.35.28-.63.63-.63s.63.28.63.63c-.07,3.41-2.3,6.26-5.29,7.52ZM67.22,6.81c0,4.32-3.48,7.8-7.87,7.8h-.63c1.46.9,3.13,1.39,4.94,1.39,4.8,0,8.91-3.97,8.98-9.67,0-.07,0-3.06-2.92-3.06-1.74,0-2.51,1.04-2.51,2.92v.63Z"/>
      <path id="SVGID-2" data-name="SVGID" class="cls-1" d="M70.7.55c-.77,1.39-.97,3.06-.63,4.59l.49.28c0-1.32.35-2.71,1.04-3.97l.28-.49c.21-.28.21-.7-.14-.9-.56-.28-1.04.49-1.04.49Z"/>
    </g>
    <rect id="SVGID-3" data-name="SVGID" class="cls-2" x="77.31" y="3.82" width="2.92" height="11"/>
    <polyline id="SVGID-4" data-name="SVGID" class="cls-1" points="81.9 3.82 86.98 3.82 93.11 11.82 93.18 11.82 93.18 3.82 96.45 3.82 96.45 14.82 91.37 14.82 85.24 6.81 85.17 6.81 85.17 14.82 81.9 14.82 81.9 3.82"/>
    <path id="SVGID-5" data-name="SVGID" class="cls-1" d="M107.24,12.38c.35,0,.63,0,.84-.07.21-.07.42-.14.56-.35.14-.14.28-.35.35-.63s.07-.56.07-.97v-2.09c0-.42,0-.7-.07-.97s-.14-.49-.35-.63c-.14-.14-.35-.28-.56-.35-.21,0-.49-.07-.84-.07h-5.43v6.13h5.43ZM108.21,3.82c.84,0,1.53.07,2.09.21.56.14,1.04.35,1.39.7.35.28.63.7.77,1.18s.21,1.04.21,1.74v3.34c0,.7-.07,1.25-.21,1.74-.14.49-.42.9-.77,1.18s-.84.56-1.39.7-1.25.21-2.09.21h-10.02V3.82h10.02Z"/>
    <polyline id="SVGID-6" data-name="SVGID" class="cls-1" points="132.71 9.32 128.12 3.82 132.15 3.82 135.29 7.65 138.42 3.82 142.46 3.82 137.86 9.32 142.87 14.82 138.7 14.82 135.29 10.85 131.95 14.82 127.77 14.82 132.71 9.32"/>
    <path id="SVGID-7" data-name="SVGID" class="cls-1" d="M124.15,7.16c-.07-.21-.21-.42-.42-.56-.21-.14-.42-.21-.9-.28-.35-.07-1.67-.07-2.23-.07-.63,0-1.81,0-2.16.07s-.63.14-.84.28c-.21.14-.35.35-.42.56s-.07.56-.07.97h7.17c0-.42-.07-.77-.14-.97ZM114.13,6.26c.21-.63.56-1.11.9-1.53.42-.35.9-.63,1.39-.77.56-.14,1.18-.21,1.81-.21h3.34c.97,0,1.81.07,2.51.21.7.14,1.25.35,1.74.7.42.35.77.84.97,1.39.21.63.35,1.39.35,2.3v1.81h-10.02v.63c.14,1.46,1.25,1.46,2.23,1.46h2.51c.49,0,.9,0,1.18-.14.28-.07.49-.14.63-.28.14-.14.21-.21.28-.42,0-.14.07-.28.07-.42h3.2v.49c0,.7-.14,1.25-.35,1.67-.28.42-.63.77-1.04.97s-.97.42-1.53.49c-.56.07-1.18.14-1.88.14h-3.55c-.63,0-1.18-.07-1.81-.14-.56-.07-1.11-.35-1.6-.7-.49-.35-.84-.84-1.11-1.53s-.42-1.6-.42-2.71v-1.04c-.07-.9,0-1.74.21-2.37Z"/>
    <path class="cls-2" d="M144.44,13.79c0-.36.12-.65.36-.88.24-.22.55-.34.91-.34s.68.11.92.34c.24.22.36.52.36.88s-.12.64-.36.86c-.24.22-.55.33-.92.33s-.67-.11-.91-.33c-.24-.22-.36-.51-.36-.86Z"/>
  </g>
  <g>
    <path class="cls-2" d="M9.69,9.47c0,1.12-.2,2.1-.59,2.94-.4.84-.96,1.5-1.7,1.95-.74.46-1.58.69-2.54.69s-1.78-.23-2.52-.68c-.74-.45-1.31-1.1-1.72-1.94-.41-.84-.61-1.81-.62-2.9v-.56c0-1.12.2-2.11.61-2.96.4-.85.97-1.5,1.71-1.96.74-.46,1.58-.68,2.53-.68s1.79.23,2.53.68c.74.46,1.31,1.11,1.71,1.96.4.85.61,1.83.61,2.95v.51ZM7.31,8.95c0-1.19-.21-2.1-.64-2.72-.43-.62-1.04-.93-1.83-.93s-1.39.31-1.82.92c-.43.61-.64,1.51-.65,2.69v.55c0,1.16.21,2.06.64,2.7.43.64,1.04.96,1.84.96s1.39-.31,1.81-.93c.42-.62.64-1.52.64-2.7v-.55Z"/>
    <path class="cls-2" d="M15.42,12.08l2.58-8.55h2.61l-3.96,11.37h-2.45l-3.95-11.37h2.6l2.56,8.55Z"/>
    <path class="cls-2" d="M30.92,9.47c0,1.12-.2,2.1-.59,2.94-.4.84-.96,1.5-1.7,1.95-.74.46-1.58.69-2.54.69s-1.78-.23-2.52-.68c-.74-.45-1.31-1.1-1.72-1.94-.41-.84-.61-1.81-.62-2.9v-.56c0-1.12.2-2.11.61-2.96.4-.85.97-1.5,1.71-1.96.74-.46,1.58-.68,2.53-.68s1.79.23,2.53.68c.74.46,1.31,1.11,1.71,1.96.4.85.61,1.83.61,2.95v.51ZM28.55,8.95c0-1.19-.21-2.1-.64-2.72-.43-.62-1.04-.93-1.83-.93s-1.39.31-1.82.92c-.43.61-.64,1.51-.65,2.69v.55c0,1.16.21,2.06.64,2.7.43.64,1.04.96,1.84.96s1.39-.31,1.81-.93c.42-.62.64-1.52.64-2.7v-.55Z"/>
    <path class="cls-2" d="M41.2,3.52h2.34v7.88c0,.72-.16,1.36-.48,1.92s-.77.98-1.36,1.29c-.58.3-1.24.45-1.98.45-1.2,0-2.14-.31-2.81-.92-.67-.61-1.01-1.48-1.01-2.6h2.36c0,.56.12.97.35,1.23s.6.4,1.11.4c.45,0,.8-.15,1.07-.46.27-.31.4-.74.4-1.31V3.52Z"/>
    <path class="cls-2" d="M52.39,9.97h-4.5v3.05h5.28v1.88h-7.62V3.52h7.61v1.9h-5.27v2.71h4.5v1.84Z"/>
  </g>
</svg>