<?xml version="1.0" encoding="UTF-8"?>
<svg id="Layer_1" data-name="Layer 1" xmlns="http://www.w3.org/2000/svg" viewBox="0 0 1073.07 337.43">
  <defs>
    <style>
      .cls-1 {
        fill: #2a7093;
      }

      .cls-1, .cls-2, .cls-3 {
        stroke-width: 0px;
      }

      .cls-2 {
        fill: #000101;
      }

      .cls-3 {
        fill: #fff;
      }
    </style>
  </defs>
  <path class="cls-3" d="M168.71,8.71h0C80.6,8.71,8.71,80.92,8.71,168.71h0c0,87.79,71.89,160,160,160h0c87.79,0,160-71.89,160-160h0c-.32-87.79-72.21-160-160-160Z"/>
  <g>
    <path class="cls-2" d="M538.87,78.18v22.86h14.05v49.52h-14.05v22.45h54.2v-22.45h-13.64v-72.38h-40.63.07ZM456.16,32.45v24.31h13.08l-39.94,40.01v-40.01h17.15v-24.31h-60.33v24.72h15.7v91.11h-15.7v24.72h60.33v-24.72h-17.15v-19.42l17.63-17.15,37.67,61.29h36.02v-24.72h-19.08l-33.88-55.02,36.91-36.09h15.98v-24.72h-64.53.14Z"/>
    <polygon class="cls-2" points="700.57 78.18 700.57 100.63 715.1 100.63 704.7 137.61 684.86 87.55 666.61 87.55 646.64 137.61 636.18 100.63 648.57 100.63 648.57 78.18 597.75 78.18 597.75 101.05 611.59 101.05 634.25 176.52 652.98 176.52 674.6 123.84 696.16 176.52 714.96 176.52 737.55 101.05 751.46 101.05 751.46 78.18 700.57 78.18"/>
    <path class="cls-2" d="M904.69,175.49c-44.01,0-74.79-29.96-74.79-72.79s31.95-72.79,74.38-72.79c34.16,0,55.3,18.11,55.3,34.92,0,10.81-7.16,18.73-16.94,18.73-10.67,0-17.77-6.68-17.77-16.6,0-2.2.41-4.55,1.03-6.4-3.03-1.93-9.78-5.03-22.24-5.03-26.38,0-45.45,19.76-45.45,47.04s19.56,47.45,46.55,47.45c14.53,0,27.41-5.85,38.22-17.49l1.38-1.45,18.32,18.87-1.17,1.31c-14.05,15.43-34.71,24.31-56.68,24.31"/>
    <polygon class="cls-2" points="823.91 173.01 769.71 173.01 769.71 150.56 783.76 150.56 783.76 101.05 769.71 101.05 769.71 78.18 810.27 78.18 810.27 150.56 823.91 150.56 823.91 173.01"/>
    <path class="cls-2" d="M1022.38,152.01c-13.84,0-23.48-10.88-23.48-26.44s9.64-26.44,23.48-26.44,23.48,10.88,23.48,26.44-9.64,26.44-23.48,26.44M1022.38,76.53c-28.92,0-50.69,21.07-50.69,49.1s21.35,49.1,50.69,49.1,50.69-21.07,50.69-49.1-21.35-49.1-50.69-49.1"/>
    <path class="cls-1" d="M790.37,61.85c-4.89-1.26-8.95-4.84-11.08-9.47-6.13-13.47,6.47-27.22,20.03-23.71,4.89,1.26,8.95,4.84,11.08,9.47,6.13,13.47-6.47,27.22-20.03,23.71"/>
    <path class="cls-1" d="M563.8,62.34c-9.37,0-16.94-7.73-16.94-17.15s7.99-17.15,17.35-17.15,16.94,7.73,16.94,17.15-7.99,17.15-17.35,17.15"/>
  </g>
  <g>
    <path class="cls-2" d="M399.25,289.7c3.84,13.12,13.28,22.24,27.04,22.4,13.44.16,24.32-8,24.48-21.44,0-9.92-6.08-16.48-17.92-21.12l-15.2-5.92c-15.52-6.08-23.84-15.68-23.68-29.76.16-17.12,13.76-28.16,31.36-28,15.68.16,27.52,9.92,32.16,24.64l-9.12,3.52c-3.52-10.88-11.52-18.72-23.36-18.72s-20.96,6.72-20.96,18.72c0,9.12,6.08,15.52,17.76,20.32l14.88,6.08c16,6.56,24.32,15.68,24.32,29.76-.16,19.52-15.52,31.52-34.88,31.36-18.24-.16-31.68-11.2-36.48-28.64l9.6-3.2Z"/>
    <path class="cls-2" d="M493.81,219.14v23.68h22.24v8.64h-22.24v46.4c0,10.08,4.48,14.72,13.44,14.72,3.2,0,6.4-.96,8.96-2.4v9.12c-2.24,1.12-5.92,2.24-10.56,2.24-13.44,0-21.44-7.84-21.44-22.4v-47.68h-12.32v-8.64h12.32v-23.68h9.6Z"/>
    <path class="cls-2" d="M601.33,319.78h-9.6v-13.28c-4.64,8.48-14.08,15.04-27.04,15.04-19.36,0-31.36-13.28-31.36-33.92v-44.8h9.6v43.68c0,16,8.8,26.24,23.68,26.24s25.12-12.32,25.12-28.16v-41.76h9.6v76.96Z"/>
    <path class="cls-2" d="M621.97,281.22c0-22.56,17.12-40.16,39.2-40.16,12.96,0,25.12,6.56,30.56,16.48v-49.76h9.44v112h-9.44v-15.04c-5.6,10.08-17.92,16.8-30.56,16.8-22.08,0-39.2-17.6-39.2-40.32ZM692.37,281.22c0-17.28-13.28-31.36-30.56-31.36s-30.08,13.76-30.08,31.36,13.28,31.52,30.08,31.52,30.56-13.92,30.56-31.52Z"/>
    <path class="cls-2" d="M732.21,212.42c3.68,0,6.72,3.04,6.72,6.72s-3.04,6.72-6.72,6.72-6.72-3.04-6.72-6.72,3.04-6.72,6.72-6.72ZM737.01,242.82v76.96h-9.6v-76.96h9.6Z"/>
    <path class="cls-2" d="M797.65,321.54c-22.72,0-40-17.92-40-40.32s17.28-40.16,40-40.16,40,17.92,40,40.16-17.28,40.32-40,40.32ZM797.65,249.86c-16.96,0-30.24,14.08-30.24,31.36s13.28,31.52,30.24,31.52,30.24-14.08,30.24-31.52-13.28-31.36-30.24-31.36Z"/>
  </g>
  <g>
    <path class="cls-1" d="M168.71,0h0C75.8,0,0,76.14,0,168.71h0c0,92.58,75.8,168.71,168.71,168.71h0c92.58,0,168.71-75.8,168.71-168.71h0C337.09,76.14,261.29,0,168.71,0ZM274.37,129.81c-6.37-.67-16.44-1.68-30.52-2.35-10.73-.34-18.78,0-24.82,1.01.34.67.34,1.01.67,1.68,5.7,15.76,10.73,32.54,12.08,49.31,2.01,23.48-5.7,47.63-26.16,60.71-19.45,12.41-45.62,14.76-67.42,6.71-41.26-15.43-48.97-63.06-33.21-99.62,4.7-10.4,10.73-20.46,16.44-30.52,6.71-11.74,12.75-27.5,24.82-34.21,11.4-6.37,28.18-6.71,39.58.34,11.07,6.71,19.12,17.11,25.16,28.51,28.18.67,65.07,13.75,66.75,14.42h0c3.35,1.34,4.7,2.01,4.36,3.35,0,1.68-.34,1.34-7.71.67Z"/>
    <path class="cls-1" d="M182.8,107.67c-2.01.34-3.69,2.68-3.35,5.7.34,2.68,2.35,4.7,4.7,4.7,2.01-.34,3.69-2.68,3.35-5.7-.67-3.02-2.68-5.03-4.7-4.7Z"/>
  </g>
</svg>