<?xml version="1.0" encoding="UTF-8"?>
<svg id="Vrstva_2" xmlns="http://www.w3.org/2000/svg" viewBox="0 0 80 64">
  <defs>
    <style>
      .cls-1 {
        fill: none;
      }

      .cls-2 {
        fill: #26313c;
      }
    </style>
  </defs>
  <g id="Vrstva_1-2" data-name="Vrstva_1">
    <g>
      <rect class="cls-1" width="80" height="64"/>
      <path class="cls-2" d="M62.26,44.8l-5.71-23.22v-2.16h-16.82v1.73l-1-6.58-.41-3.01h-15.23l-.19,3.05-5.12,37.47-.05.38h12.19l1.21-22.35,1.41,22.35h11.95l-1.16-7.65h18.93ZM40.4,20.07h15.49v1.21h-15.49v-1.21ZM40.34,21.95h15.62l5.45,22.19h-3.28l-2.71-16.27h-.67l2.71,16.27h-3.39l-1.36-16.27h-.66l1.36,16.27h-3.04l-.37-16.27h-.66l.37,16.27h-2.89l.37-16.27h-.66l-.37,16.27h-3.04l1.36-16.27h-.66l-1.36,16.27h-3.29l2.71-16.27h-.67l-2.71,16.27h-2.64l4.5-22.19ZM23.72,12.21h14.04l.29,2.09h-14.45l.13-2.09ZM43.72,51.79h-10.56l-1.72-27.37h-.66s-1.48,27.37-1.48,27.37h-10.8l5.03-36.82h14.61l1.26,8.32-4.36,21.51h7.62l1.06,6.99Z"/>
    </g>
  </g>
</svg>