<svg xmlns="http://www.w3.org/2000/svg" width="130" height="40" viewBox="265 871 130 40">
  <g fill="none" fill-rule="evenodd">
    <path fill="#1A1919" d="M335.102 900.974h4.556v-14.95h-4.556v14.95zm2.278-21.914c-1.492 0-2.828 1.174-2.828 2.66 0 1.566 1.336 2.74 2.828 2.74 1.57 0 2.828-1.252 2.828-2.74 0-1.486-1.257-2.66-2.828-2.66zm4.477 15.26c0 4.463 1.964 7.045 5.578 7.045 1.885 0 3.377-.94 4.163-2.426-.08.782-.157 1.408-.157 2.19v.47c0 2.192-1.177 3.21-3.848 3.21-1.336 0-3.22-.47-4.714-1.175l-.156 4.305c1.335.39 2.984.704 4.713.704 6.755 0 8.562-3.443 8.562-7.357v-15.105c-1.65-.235-3.457-.47-5.734-.47-5.5 0-8.406 3.757-8.406 8.61zm9.584-1.173c0 2.583-1.1 4.383-2.67 4.383-1.335 0-2.042-1.174-2.042-3.678 0-3.366 1.335-4.462 3.142-4.462.63 0 1.1.08 1.57.157v3.6zm26.945-2.113c0-3.6-1.493-5.322-6.756-5.322-1.807 0-3.614.313-5.185.783v4.148c1.335-.783 3.3-1.253 4.556-1.253 2.2 0 2.75.627 2.75 1.88v.468c-4.635 0-8.484 1.566-8.484 5.48 0 2.347 1.493 4.07 4.4 4.07 2.042 0 3.848-1.018 4.477-2.505v.078c-.08.627-.08 1.41-.08 2.114h4.4c-.078-1.33-.078-2.74-.078-3.522v-6.418zm-4.635 3.992c0 1.41-1.1 2.817-2.67 2.817-.865 0-1.415-.548-1.415-1.33 0-1.252 1.257-1.957 4.085-1.957v.47zm-54.36-14.636l-4.634 1.253v4.382h-2.278v3.522h2.278v6.966c0 3.678 1.18 4.774 4.635 4.774 1.1 0 2.28-.156 3.222-.47v-3.756c-.472.235-1.1.314-1.65.314-1.178 0-1.57-.47-1.57-2.035v-5.793h3.22v-3.522h-3.22v-5.635zm9.74 8.06h-.077c.157-.86.157-1.877.157-2.425h-4.32v14.95h4.635v-6.34c0-3.758 1.492-5.088 3.927-4.54v-4.46c-2.278-.08-3.613 1.25-4.32 2.816zm29.538 12.525h4.557v-21.993h-4.557v21.993zm31.03-14.95l-1.808 5.322c-.393 1.174-.63 2.113-.865 3.68h-.078c-.393-1.645-.628-2.74-1.02-3.836l-1.73-5.165h-5.105l5.342 14.95h4.87l5.342-14.95h-4.95z"/>
    <path fill="#D8232A" d="M265.582 910.992h39.905v-39.76h-39.905v39.76zm19.952-9c-5.97 0-10.84-4.775-10.92-10.8v-10.88h21.84v3.6h-18.225v7.28c.077 3.99 3.298 7.2 7.304 7.2 4.007 0 7.227-3.21 7.306-7.2h3.613c0 6.025-4.87 10.8-10.92 10.8zm0-9c1.022 0 1.807-.784 1.807-1.8h3.693c-.08 2.973-2.514 5.4-5.5 5.4-2.984 0-5.42-2.427-5.42-5.4v-5.48h16.34v3.678h-12.725v1.8c0 1.018.785 1.8 1.806 1.8z"/>
  </g>
</svg>
