<svg xmlns="http://www.w3.org/2000/svg" viewBox="0 0 36 36"><defs><style>.cls-1,.cls-2{fill:#243858;}.cls-2{opacity:0.5;}</style></defs><title>object-team</title><g id="Layer_2" data-name="Layer 2"><g id="N700"><path class="cls-1" d="M14.15,12.87l-4-1.14h0a4.36,4.36,0,0,1-2.35.71h0a4.35,4.35,0,0,1-2.24-.65l-.1-.07h0l-4,1.14a2.2,2.2,0,0,0-1.5,2v.78H15.65v-.78A2.2,2.2,0,0,0,14.15,12.87Z"/><path class="cls-2" d="M12.52,5.12A4.92,4.92,0,0,0,7.83,0a4.92,4.92,0,0,0-4.7,5.12,5.18,5.18,0,0,0,2.35,4.4v2.21l.1.07a4.35,4.35,0,0,0,2.24.65h0a4.36,4.36,0,0,0,2.35-.71h0V9.53A5.2,5.2,0,0,0,12.52,5.12Zm-4.7,5.12h0Z"/><path class="cls-1" d="M34.49,12.87l-4-1.14h0a4.36,4.36,0,0,1-2.35.71h0a4.35,4.35,0,0,1-2.24-.65l-.1-.07h0l-4,1.14a2.2,2.2,0,0,0-1.5,2v.78H36v-.78A2.2,2.2,0,0,0,34.49,12.87Z"/><path class="cls-2" d="M32.87,5.12A4.92,4.92,0,0,0,28.17,0a4.92,4.92,0,0,0-4.7,5.12,5.18,5.18,0,0,0,2.35,4.4v2.21l.1.07a4.35,4.35,0,0,0,2.24.65h0a4.36,4.36,0,0,0,2.35-.71h0V9.53A5.2,5.2,0,0,0,32.87,5.12Zm-4.7,5.12h0Z"/><path class="cls-1" d="M9.39,23.2A.5.5,0,0,1,9,23L5.12,19.14a.5.5,0,0,1,.71-.71l3.91,3.91a.5.5,0,0,1-.35.85Z"/><path class="cls-1" d="M26.61,23.2a.5.5,0,0,1-.35-.85l3.91-3.91a.5.5,0,0,1,.71.71L27,23A.5.5,0,0,1,26.61,23.2Z"/><path class="cls-1" d="M24.32,33.22l-4-1.14h0A4.36,4.36,0,0,1,18,32.8h0a4.35,4.35,0,0,1-2.24-.65l-.1-.07h0l-4,1.14a2.2,2.2,0,0,0-1.5,2V36H25.83v-.78A2.2,2.2,0,0,0,24.32,33.22Z"/><path class="cls-2" d="M22.7,25.47A4.92,4.92,0,0,0,18,20.35a4.92,4.92,0,0,0-4.7,5.12,5.18,5.18,0,0,0,2.35,4.4v2.21l.1.07A4.35,4.35,0,0,0,18,32.8h0a4.36,4.36,0,0,0,2.35-.71h0V29.88A5.2,5.2,0,0,0,22.7,25.47ZM18,30.59h0Z"/></g></g></svg>