<svg width="64" height="64" viewBox="0 0 64 64" fill="none" xmlns="http://www.w3.org/2000/svg">
<g clip-path="url(#clip0_627_1275)">
<mask id="mask0_627_1275" style="mask-type:luminance" maskUnits="userSpaceOnUse" x="0" y="0" width="64" height="64">
<path d="M64 0H0V64H64V0Z" fill="white"/>
</mask>
<g mask="url(#mask0_627_1275)">
<path d="M61.6359 49.6101C59.8325 45.9447 56.9989 40.7689 55.4719 38.0107C55.383 37.8504 55.2634 37.709 55.1199 37.5949C54.9764 37.4807 54.8118 37.396 54.6355 37.3454C54.4592 37.2949 54.2747 37.2795 54.0925 37.3003C53.9103 37.321 53.734 37.3775 53.5736 37.4664C53.4132 37.5553 53.2719 37.6749 53.1577 37.8184C53.0436 37.9619 52.9588 38.1265 52.9082 38.3028C52.8577 38.4791 52.8423 38.6636 52.8631 38.8458C52.8839 39.028 52.9403 39.2043 53.0292 39.3647C54.5451 42.1005 57.3535 47.2316 59.1318 50.844C59.3183 51.2157 59.4158 51.6258 59.4165 52.0417C59.4165 53.5827 58.1631 54.8361 56.6221 54.8361H36.2624L39.4645 51.6341C39.7188 51.3708 39.8594 51.0182 39.8563 50.6523C39.8531 50.2863 39.7063 49.9362 39.4475 49.6774C39.1887 49.4186 38.8386 49.2718 38.4726 49.2686C38.1066 49.2654 37.754 49.4061 37.4908 49.6604L31.9074 55.2437C31.6458 55.5055 31.4988 55.8604 31.4988 56.2306C31.4988 56.6007 31.6458 56.9557 31.9074 57.2174L37.4908 62.8008C37.7548 63.0592 38.1096 63.204 38.479 63.204C38.8485 63.204 39.2033 63.0592 39.4673 62.8008C39.729 62.539 39.876 62.184 39.876 61.8139C39.876 61.4438 39.729 61.0888 39.4673 60.827L36.268 57.6278H56.6249C59.7041 57.6278 62.2082 55.1237 62.2082 52.0417C62.2082 51.2014 62.0184 50.3834 61.6359 49.6101ZM27.3124 54.8333L6.37484 54.8361C4.83663 54.8361 3.58317 53.5827 3.58317 52.0417C3.58317 51.6313 3.68088 51.2265 3.87071 50.8412C6.80755 44.8671 10.7466 37.8432 15.6879 29.2812L16.7599 33.5887C16.8494 33.9482 17.0782 34.2574 17.3957 34.4482C17.7132 34.639 18.0935 34.6959 18.453 34.6063C18.8125 34.5167 19.1216 34.288 19.3125 33.9705C19.5033 33.653 19.5602 33.2726 19.4706 32.9132L17.5611 25.2556C17.4694 24.8976 17.2406 24.5901 16.924 24.3995C16.6075 24.2088 16.2286 24.1503 15.8693 24.2367L8.20617 26.1434C7.86448 26.2486 7.57606 26.4807 7.40015 26.7919C7.22425 27.1032 7.17422 27.47 7.26034 27.817C7.34646 28.164 7.5622 28.4648 7.86323 28.6577C8.16426 28.8506 8.52773 28.9208 8.87897 28.8541L13.3512 27.7402C8.34017 36.4167 4.35088 43.5355 1.36101 49.6101C0.986271 50.3659 0.791361 51.1981 0.791504 52.0417C0.791504 55.1237 3.29563 57.6278 6.37484 57.6278L27.3124 57.625C27.6826 57.625 28.0376 57.4779 28.2994 57.2162C28.5611 56.9544 28.7082 56.5994 28.7082 56.2292C28.7082 55.859 28.5611 55.5039 28.2994 55.2422C28.0376 54.9804 27.6826 54.8333 27.3124 54.8333ZM33.9872 6.1411C36.1368 10.0299 38.8643 14.7143 41.8514 19.8454C44.0074 23.5413 46.1486 27.2459 48.275 30.959L43.786 29.8423C43.608 29.7982 43.4231 29.7895 43.2417 29.8168C43.0604 29.8441 42.8862 29.9068 42.7291 30.0014C42.4118 30.1925 42.1835 30.5018 42.0942 30.8613C42.005 31.2207 42.0623 31.6009 42.2533 31.9182C42.4444 32.2355 42.7537 32.4638 43.1132 32.553L50.7763 34.4597C50.9542 34.5053 51.1394 34.5149 51.3211 34.4881C51.5027 34.4612 51.6772 34.3985 51.8344 34.3034C52.1519 34.1122 52.3807 33.8031 52.4709 33.4436L54.3776 25.7805C54.4443 25.4292 54.3741 25.0658 54.1812 24.7647C53.9883 24.4637 53.6875 24.2479 53.3405 24.1618C52.9935 24.0757 52.6267 24.1257 52.3154 24.3016C52.0042 24.4775 51.7721 24.766 51.6669 25.1077L50.5977 29.4012C48.4993 25.7422 46.3878 22.0907 44.2634 18.4467C41.2874 13.3352 38.5712 8.67035 36.4299 4.79552C35.3914 2.91114 33.5462 1.79169 31.4999 1.79169C29.4508 1.79169 27.6083 2.91394 26.5698 4.78994C24.4425 8.63965 21.5392 13.6311 18.2813 19.2368C17.8933 19.9012 18.1808 20.6522 18.848 21.0402C19.5152 21.4282 20.4281 21.096 20.8189 20.4288C23.5955 15.6919 26.3277 10.9291 29.0153 6.1411C29.2612 5.69725 29.6214 5.32731 30.0585 5.06972C30.4957 4.81213 30.9939 4.67628 31.5013 4.67628C32.0087 4.67628 32.5068 4.81213 32.944 5.06972C33.3811 5.32731 33.7414 5.69725 33.9872 6.1411Z" fill="#2FA477"/>
</g>
</g>
<defs>
<clipPath id="clip0_627_1275">
<rect width="64" height="64" fill="white"/>
</clipPath>
</defs>
</svg>
