<svg width="33" height="42" viewBox="0 0 33 42" fill="none" xmlns="http://www.w3.org/2000/svg">
<g clip-path="url(#clip0_1183_13308)">
<path d="M22.1117 14.9343C20.1199 12.2981 16.9331 10.4088 13.6957 10.0071C11.8051 9.81248 9.88919 10.2205 8.11242 10.8858C6.62018 11.3817 5.18484 12.1412 4.03405 13.2396C2.97178 14.3318 2.08655 15.5746 1.51747 17.0057C1.44792 17.1375 0.809292 18.6063 0.765031 18.964C0.436232 20.4203 0.562693 19.9683 0.486816 21.0228C0.493139 21.2425 0.543724 21.4497 0.625924 21.6254C0.594308 22.1401 0.569016 22.6485 0.550047 23.1507C0.7018 24.8077 0.866199 25.1781 1.01163 25.8936C1.37204 27.1741 1.9917 28.3981 2.8137 29.4588C2.71253 30.5384 2.58607 31.3733 2.35844 32.9864C2.28889 33.9154 1.8273 34.9573 2.26359 35.8423C2.71253 36.9094 4.11625 37.2986 5.09 36.765C5.4757 36.9219 5.90567 36.9722 6.31035 36.9031C6.37358 36.9596 6.43048 37.0161 6.50004 37.0663C6.83516 37.3425 7.27145 37.4743 7.71406 37.4869C8.42857 37.6626 9.2316 37.4743 9.73112 36.8466C10.3128 36.288 10.825 35.6666 11.3308 35.0326C11.7355 34.5807 12.1465 34.1288 12.5575 33.6706C13.4427 33.6015 14.3153 33.476 15.1626 33.2124C18.2419 32.2081 21.2833 30.2309 22.7313 27.1866C24.4891 23.295 24.5271 18.5498 22.1117 14.9343Z" fill="#FCE965"/>
<path d="M22.3583 14.6644C21.0178 12.6622 18.3432 10.9298 16.5474 10.4904C14.0941 9.79366 11.3878 9.54886 8.90285 10.2393C5.8425 11.0804 3.17417 13.271 1.87162 16.1583C-0.480553 20.891 0.031614 25.2032 2.17513 28.8186C2.39011 29.2643 2.37114 29.1764 2.34585 29.5216C2.21307 30.4255 1.74516 32.6914 1.68193 34.3861C1.71355 34.951 2.73156 34.9573 2.76317 34.3861C2.86434 32.7228 3.40812 30.7016 3.61046 29.3208C3.59781 28.6429 3.19314 28.3227 3.09829 27.9712C1.42901 24.8077 1.02433 21.6505 2.21307 18.4368C2.84537 16.6793 3.33857 15.5244 4.50833 14.0933C6.18394 12.2353 8.94079 10.7728 11.4131 10.8293C14.4482 10.8168 16.7687 11.2938 18.9692 13.0011C22.2192 15.3235 23.6672 20.0374 23.0665 23.7721C22.6492 26.1133 21.2707 29.3835 19.2284 30.8711C17.9891 32.0135 15.2955 32.6349 13.9739 32.7981C13.3733 32.8922 12.7409 32.8169 12.1592 32.999C11.8873 33.1245 11.6787 33.3505 11.451 33.5388C10.686 34.2292 10.022 35.0201 9.35811 35.7921C9.07358 36.1813 8.63729 36.5077 8.47289 36.9722C8.39069 37.5622 9.33914 37.7254 9.63633 37.2923C10.7555 35.993 11.6091 35.1331 12.4754 34.2543C12.5323 34.2104 12.722 34.0409 12.8168 33.9467C13.6831 33.8903 15.7381 33.6204 16.9774 33.1245C18.7036 32.5847 20.2907 31.6181 21.4604 30.2372C23.2182 28.0717 24.388 24.9144 24.5651 22.6234C24.8938 19.8428 23.8758 17.2693 22.371 14.6582L22.3583 14.6644Z" fill="#FCE965"/>
<path d="M16.5538 20.7153C15.5168 20.4956 14.581 20.9162 14.0814 21.1233C12.6524 21.8012 11.7293 23.1005 10.8693 24.3872C10.2181 24.2115 9.56678 23.9541 8.9408 23.6026C9.22534 22.4289 9.38974 21.23 9.13681 20.2571C8.88389 19.3721 8.24526 18.6188 7.10079 18.4305C6.01955 18.3552 5.63384 19.6357 5.6212 20.5082C5.6212 21.4497 6.07013 22.3284 6.65186 23.0503C6.73406 23.1632 7.37901 23.9353 7.91647 24.2742C7.85324 24.5065 7.79 24.7387 7.72045 24.9521C6.87316 27.5444 5.99426 30.1305 4.91302 32.6349C4.76759 32.9801 4.45143 33.6706 4.19851 34.292C4.17322 34.3736 4.12896 34.4552 4.09734 34.5431C3.93927 34.4929 3.82545 34.4615 3.80016 34.4489C3.29432 34.3234 2.82009 34.0911 2.29527 34.066C1.87795 34.066 1.43534 33.997 1.03699 34.1225C0.531142 34.3485 0.575404 34.4175 0.423651 34.5996C0.259251 34.8695 0.158082 35.177 0.164405 35.4971C0.183375 35.6917 0.208667 35.8863 0.27822 36.0683C0.335128 36.2001 0.550112 36.5956 0.373066 36.2566C0.499527 36.5328 0.689219 36.7462 0.910525 36.9282C-0.486869 37.4116 -0.0885166 38.692 0.923172 39.2946C1.3152 39.5331 1.71988 39.7402 2.14352 39.9223C0.594373 41.4789 4.26807 42.3953 5.13432 41.8367C5.43783 41.7049 5.66546 41.3973 5.72237 41.096C6.32306 41.2216 6.93639 41.3408 7.54341 41.2279C8.35908 40.9705 8.45392 40.5939 8.55509 40.3365C8.58671 40.211 8.58671 40.0855 8.55509 39.9599C8.56142 40.0102 8.58039 40.098 8.57406 40.0478C8.57406 40.0227 8.56142 39.985 8.55509 39.9474C8.55509 39.9411 8.55509 39.9286 8.55509 39.9223C8.55509 39.9223 8.55509 39.9286 8.55509 39.9411C8.5298 39.7967 8.49819 39.6461 8.54245 39.9097C8.51083 39.69 8.48554 39.621 8.38437 39.4703C9.07358 39.6273 9.88294 39.5206 10.3319 38.9305C10.7492 38.3782 10.5469 37.6061 10.0157 37.2044C9.60472 36.9094 9.14946 36.5956 8.67523 36.401C8.49819 36.288 8.29585 36.1688 8.04925 36.0181C7.57502 35.7984 7.11976 35.6164 6.65818 35.4532C6.68979 35.3465 6.71509 35.2398 6.76567 35.1456C6.99962 34.5431 7.48017 33.2061 7.8975 32.2332C8.57406 30.5385 10.1928 27.7139 11.5522 25.6865C13.9297 26.1196 16.6612 25.7618 17.9132 24.0106C18.7668 22.5983 18.3432 20.9915 16.5727 20.709L16.5538 20.7153ZM6.9933 19.9119C7.01859 19.8365 7.04388 19.7675 7.0755 19.6922C7.09447 19.6545 7.11976 19.6043 7.15138 19.5604C7.20196 19.5729 7.24622 19.5918 7.27784 19.598C7.41062 19.6608 7.59399 19.7738 7.63193 19.7989C7.64457 19.8052 7.6509 19.8177 7.66354 19.824C7.66354 19.824 7.66354 19.824 7.67619 19.8365C7.96073 20.1127 7.89117 19.9997 8.10616 20.3826C8.19468 20.5709 8.27688 20.709 8.34643 21.0668C8.39702 21.5564 8.32746 22.297 8.18836 23.0754C7.34739 22.297 6.58862 20.9915 6.99962 19.9181L6.9933 19.9119ZM5.64649 35.1394C5.43151 35.0327 5.17226 34.926 4.90669 34.8255C6.18395 31.9005 7.33474 28.9253 8.29585 25.8811C8.40966 25.5108 8.5298 25.109 8.64362 24.7011C9.12417 24.9459 9.63001 25.153 10.1422 25.3413C10.1675 25.3476 10.1928 25.3538 10.2181 25.3664C8.25791 28.3604 6.15866 33.0178 5.64649 35.1394ZM15.15 24.4312C14.347 24.6697 13.3353 24.7638 12.2667 24.6571C12.4185 24.45 12.5639 24.2617 12.6967 24.0922C13.7526 22.7176 15.3524 21.7196 16.636 22.1966C16.6612 22.2092 16.6739 22.2217 16.6929 22.228C16.6992 22.228 16.7118 22.2468 16.7182 22.2468C16.7371 22.2719 16.7498 22.297 16.7624 22.3159C16.7814 22.3661 16.8004 22.41 16.813 22.4602C16.813 22.4916 16.8193 22.523 16.8193 22.5481C16.8383 23.113 16.4779 23.8662 15.15 24.4186V24.4312Z" fill="#2D2D2D"/>
<path d="M26.5442 6.91256C26.1775 6.91256 25.9245 7.2264 25.6527 7.43354C24.4576 8.51315 23.2183 9.59275 22.0548 10.6912C21.8525 11.2247 22.6998 11.5762 23.0665 11.2373C24.5019 10.12 25.9182 8.90858 27.1639 7.60929C27.3283 7.23896 26.8857 6.90629 26.5379 6.91256H26.5442Z" fill="#FCE965"/>
<path d="M32.9874 16.4031C33.2909 14.6832 27.9985 16.4658 27.1512 16.7044C26.7529 16.8801 26.1964 16.8927 25.9309 17.2567C25.7285 17.7275 26.3229 18.1794 26.7655 18.0664C27.9732 17.6584 29.2062 17.3132 30.4519 17.0496C31.1474 16.9052 31.8493 16.8048 32.5511 16.7232C32.7345 16.7044 32.5195 16.7232 32.4879 16.7232C32.6965 16.7295 32.9431 16.6165 32.9874 16.4031Z" fill="#FCE965"/>
<path d="M31.7355 25.517C31.3055 24.9772 30.4962 24.9646 29.8765 24.7638C29.0419 24.6194 28.1124 24.3558 27.284 24.5755C26.677 24.9458 27.341 25.7932 27.91 25.6927C28.8964 25.6613 29.9713 26.0379 31.2802 26.3518C31.7418 26.4083 32.0074 25.8622 31.7355 25.5107V25.517Z" fill="#FCE965"/>
<path d="M9.54154 2.08566C9.79446 2.35556 9.72491 2.751 9.76285 3.08995C9.76917 4.69681 9.80711 6.33505 9.78182 7.92308C9.52257 8.4315 8.69425 8.05489 8.68793 7.55275C8.54882 5.75131 8.48559 3.89338 8.60573 2.10449C8.77013 1.73416 9.31391 1.83459 9.54154 2.09194V2.08566Z" fill="#FCE965"/>
<path d="M17.3441 1.00601C19.0577 0.604291 17.5654 5.95212 17.3757 6.81204C17.2177 7.21375 17.2429 7.77239 16.8952 8.05484C16.4336 8.28708 15.9467 7.72217 16.0289 7.27024C16.3704 6.04627 16.6486 4.80974 16.8446 3.55438C16.9458 2.85766 17.009 2.15466 17.0533 1.45166C17.0659 1.26963 17.0533 1.48304 17.0533 1.51443C17.0343 1.30729 17.1355 1.05622 17.3504 0.999729L17.3441 1.00601Z" fill="#FCE965"/>
<path d="M1.39742 6.10915C2.06766 6.29117 2.39014 7.02556 2.82011 7.51515C3.28169 8.22443 3.8887 8.96509 4.00252 9.81245C3.90135 10.5155 2.85172 10.2393 2.71894 9.68064C2.35852 8.76423 1.59343 7.92942 0.790405 6.86236C0.556453 6.46692 0.961128 6.00872 1.39742 6.11542V6.10915Z" fill="#FCE965"/>
</g>
<defs>
<clipPath id="clip0_1183_13308">
<rect width="33" height="41" fill="white" transform="translate(0 0.987305)"/>
</clipPath>
</defs>
</svg>
