<svg width="93" height="55" viewBox="0 0 93 55" fill="none" xmlns="http://www.w3.org/2000/svg">
<g filter="url(#filter0_d_14545_372704)">
<path d="M37.9645 27.8551L38.2306 28.2625L38.5073 28.5708L38.933 28.8131C39.0501 28.8571 39.1459 28.8681 39.2204 28.8571C39.2842 28.8461 39.4226 28.747 39.6355 28.5488L40.3166 27.9542L40.902 27.3486L41.5513 26.7319L42.1154 26.0382C42.3495 25.7299 42.4559 25.4546 42.4027 25.2013C42.3814 24.948 42.2857 24.7388 42.1367 24.5957C42.0515 24.5076 41.9557 24.4195 41.8386 24.3424C41.7216 24.2653 41.6151 24.2323 41.5406 24.2543C41.4555 24.2653 41.3703 24.3204 41.2852 24.4195C41.2 24.5076 41.1468 24.5736 41.1255 24.5957L40.7956 25.0141L40.157 25.6638L39.5078 26.2804L39.2523 26.4566C39.1885 26.4676 39.114 26.4566 39.0182 26.4016C38.9224 26.3575 38.8585 26.2914 38.8266 26.2144L38.3476 25.6858L37.4855 24.904L37.2514 24.8489C37.1556 24.893 37.0704 24.959 37.0066 25.0581C36.8256 25.3334 36.7511 25.6087 36.7724 25.884C36.7937 26.0272 36.9321 26.3355 37.1556 26.787C37.3046 27.1283 37.4749 27.3706 37.6665 27.5027L37.9432 27.8441L37.9645 27.8551Z" fill="white"/>
<path d="M41.8698 48.7991C41.8379 48.6559 41.7953 48.5348 41.7421 48.4357C41.6144 48.2155 41.327 48.0173 40.8694 47.8191C40.7097 47.764 40.4969 47.753 40.2201 47.786C39.9434 47.8191 39.7731 47.8301 39.7093 47.8191C39.6667 47.808 39.5709 47.786 39.4219 47.742C39.2729 47.7089 39.1664 47.6979 39.0813 47.7089L38.4746 47.8301L37.6445 47.9292C37.5593 47.9402 37.4422 48.0063 37.2826 48.1164C37.1229 48.2265 37.0059 48.2815 36.9207 48.3036L36.3673 48.5458L35.1433 48.9092L34.5047 49.1955C34.3238 49.3386 34.1641 49.4267 34.047 49.4488C33.9832 49.4598 33.9406 49.4267 33.898 49.3497C33.898 49.3056 33.898 49.2506 33.93 49.1845C33.9619 49.1184 34.0045 49.0193 34.0683 48.8982C34.1322 48.7771 34.1747 48.7 34.1854 48.678L34.9091 47.4557L35.5371 46.3876C35.6755 46.1233 35.9415 45.7269 36.3141 45.2093C36.6972 44.6918 36.9526 44.3064 37.1016 44.0641L37.8999 42.7317C37.9638 42.5886 38.166 42.2802 38.5172 41.7957C38.8578 41.3332 39.4538 40.6065 40.2946 39.5934L41.1674 38.4812L41.8486 37.336L42.7532 36.2459C42.7958 36.1468 42.9235 35.9816 43.1258 35.7504C43.328 35.5191 43.4557 35.3319 43.5089 35.1888C43.6366 34.9465 43.7963 34.7153 43.9985 34.4951C44.2007 34.2748 44.3072 34.1427 44.3285 34.1207L45.0416 32.9975C45.3715 32.5901 45.5311 32.0285 45.5311 31.3347L45.5099 31.0154L45.1906 30.4538L44.8606 30.1895C44.7435 30.1235 44.5945 29.9913 44.4136 29.7821C44.2327 29.5729 44.0836 29.4408 43.9666 29.3747C43.8069 29.2976 43.5834 29.2425 43.3067 29.2205C43.03 29.1985 42.849 29.1765 42.7532 29.1434C42.5297 29.0774 42.3701 29.0553 42.2636 29.0774L41.9656 29.1985C41.6676 29.4077 41.2632 29.5619 40.7523 29.661L40.2627 29.7601L39.6348 29.9803H39.3793C39.3367 29.9803 39.2729 30.0134 39.1665 30.1014C39.0707 30.1895 38.9642 30.2336 38.8684 30.2556L38.3469 30.3217C38.1021 30.3657 37.8999 30.4538 37.7296 30.5749C37.3784 30.8172 37.0271 30.9824 36.6866 31.0705L36.1331 31.3127H35.9096L35.6967 31.5219L35.42 31.577C34.7601 31.8963 34.3344 32.0835 34.1322 32.1166C34.047 32.1276 33.93 32.2157 33.7597 32.3478C33.7064 32.4029 33.5681 32.4689 33.3552 32.557C33.004 32.6892 32.6421 32.8874 32.2909 33.1516C32.259 33.1847 32.1845 33.2287 32.078 33.2948C31.9716 33.3609 31.8971 33.4269 31.8332 33.504C31.7694 33.5811 31.7481 33.6692 31.7694 33.7793C31.7907 33.8894 31.929 34.0326 32.1845 34.2418C32.4399 34.451 32.6102 34.5942 32.6953 34.6823C33.0998 35.0787 33.5681 35.2328 34.1002 35.1337C34.2599 35.1007 34.4621 35.0346 34.7069 34.9355C34.9517 34.8364 35.1433 34.7373 35.271 34.6492C35.4626 34.5281 35.75 34.3849 36.1438 34.2198C37.091 33.8784 37.6019 33.7022 37.6551 33.6802C37.719 33.6582 37.7935 33.6141 37.8893 33.5591C38.1979 33.3939 38.6875 33.1957 39.3687 32.9755C40.0498 32.7552 40.433 32.6341 40.5288 32.5901C41.1567 32.3148 41.6996 32.1386 42.1679 32.0505C42.3062 32.0175 42.3914 32.0505 42.402 32.1386C42.402 32.1826 42.3062 32.3148 42.0934 32.524C41.8805 32.7332 41.7528 32.8874 41.7315 32.9534C41.6783 33.2508 41.6038 33.4159 41.508 33.46C41.3803 33.5481 41.1674 33.7683 40.8694 34.1097C40.7842 34.1977 40.6778 34.3409 40.5714 34.5391C40.4649 34.7483 40.3585 34.9135 40.2521 35.0456L39.5177 36.0367C39.4325 36.1358 39.3048 36.323 39.1452 36.5873C38.9855 36.8515 38.8365 37.0387 38.7194 37.1819L38.166 37.7765C37.868 38.25 37.6445 38.5473 37.4742 38.6574L37.1868 38.9768L36.8994 39.4613L35.9309 40.5955L35.3987 41.4874L34.4195 42.8859C34.1109 43.2713 33.8661 43.6126 33.6852 43.9099C33.6213 44.0091 33.5149 44.2073 33.3659 44.4936C33.2169 44.7799 33.0998 45.0001 32.9933 45.1543L32.259 46.3435L31.6416 47.4777C31.5991 47.5768 31.482 47.786 31.3011 48.1054C31.1201 48.4247 30.9924 48.678 30.9179 48.8652C30.5986 49.669 30.4283 50.1535 30.3964 50.3407C30.3644 50.5169 30.3645 50.671 30.3857 50.8032C30.407 50.9133 30.4709 51.0454 30.588 51.2106C30.705 51.3758 30.7582 51.4749 30.7689 51.5189C30.8008 51.552 30.8647 51.6951 30.9818 51.9154C31.0988 52.1466 31.2053 52.3118 31.2904 52.4219C31.3862 52.532 31.4714 52.6201 31.5352 52.6641L31.9822 52.8734C32.1312 52.9725 32.3228 53.0165 32.5676 52.9835C32.9082 53.0055 33.1423 53.0055 33.2594 52.9835C33.4404 52.9504 33.6 52.8734 33.7277 52.7633C34.0257 52.554 34.3238 52.4109 34.6324 52.3228L36.0905 51.8163L36.8143 51.6401C36.9952 51.607 37.1655 51.53 37.3145 51.4088C37.5593 51.2547 37.7083 51.1666 37.7722 51.1556L38.1766 51.1115L38.6875 50.9463C39.0494 50.8362 39.2942 50.7371 39.4219 50.638L39.656 50.5609H39.7199C39.7199 50.5499 39.9008 50.4839 39.9008 50.4839C39.9434 50.4839 40.0392 50.4398 40.1988 50.3627C40.3585 50.2856 40.4969 50.2416 40.6139 50.2196L41.0503 50.1645C41.0929 50.1645 41.178 50.1645 41.3164 50.1755C41.4548 50.1865 41.5718 50.1865 41.6783 50.1755C41.8379 50.1425 41.9763 50.0764 42.0934 49.9663C42.2104 49.8562 42.253 49.7351 42.2317 49.6139C42.2104 49.4928 42.1572 49.3717 42.0721 49.2726C41.9869 49.1735 41.9337 49.0303 41.9018 48.8652" fill="white"/>
<path d="M18.9765 16.9317C19.0935 16.0618 19.0403 15.1919 18.8275 14.311C18.753 14.0026 18.6252 13.6943 18.4975 13.397C18.0824 12.483 17.4545 11.6462 16.5711 11.1286C16.007 10.7983 15.5493 10.578 15.2407 10.4569C14.6659 10.3358 14.3786 10.2807 13.7932 10.1596C13.5165 10.0605 13.2823 10.0385 13.0907 10.0935C12.963 10.1266 12.7927 10.1486 12.5905 10.1376C12.4308 10.0935 12.3457 10.0715 12.186 10.0165C12.0158 10.1046 11.9306 10.1486 11.7603 10.2367C11.739 10.2367 11.7177 10.2367 11.6965 10.2587C11.5581 10.2477 11.4836 10.2367 11.3452 10.2257C11.1111 10.3468 11.0046 10.4019 10.7705 10.523C10.5363 10.556 10.4086 10.567 10.1745 10.6001C9.86581 10.7432 9.7168 10.8093 9.40815 10.9524C8.98241 11.1396 8.57797 11.3599 8.2161 11.6021C7.68393 11.9215 7.41785 12.0756 6.89633 12.395C6.82183 12.439 6.63025 12.5601 6.34288 12.7473C6.05551 12.9345 5.832 13.0667 5.69364 13.1327C5.44884 13.2428 5.31048 13.3309 5.25726 13.364C5.21469 13.397 5.18276 13.4411 5.17212 13.4851C5.14019 13.6613 5.1189 13.7384 5.08697 13.9146C4.96989 14.0797 4.81024 14.2559 4.58673 14.4431C4.45901 14.6083 4.38451 14.6854 4.25679 14.8505C4.07586 15.0157 3.98007 15.1038 3.78849 15.269C3.75656 15.302 3.67141 15.3461 3.55433 15.3901C3.42662 15.4452 3.35211 15.5002 3.32018 15.5443C3.2989 15.5773 3.25632 15.6544 3.23504 15.7755C3.21375 15.8966 3.20311 15.9627 3.21375 15.9847C3.08603 16.1499 3.02217 16.227 2.88381 16.3922C2.78802 16.5683 2.7348 16.6564 2.63901 16.8436C2.50065 16.9758 2.37293 17.1519 2.30907 17.3502C1.98977 18.3082 1.93655 19.09 2.06427 19.5194C2.12813 19.7397 2.23457 19.9379 2.37293 20.092C2.61773 20.3673 3.11796 20.6096 3.78849 20.8518C4.19293 20.995 4.45901 21.0831 4.5548 21.05C4.63995 21.028 4.69317 20.9509 4.73574 20.8408C4.76767 20.7307 4.77831 20.6316 4.75703 20.5545C4.7251 20.4554 4.60802 20.3453 4.4058 20.2242C4.20358 20.1141 4.0865 19.9929 4.04393 19.8718C3.96942 19.6296 4.07586 19.2441 4.35258 18.7266C4.4803 18.4843 4.86346 17.9888 5.49141 17.3612C5.55527 17.2951 5.66171 17.174 5.80007 16.9978C5.92779 16.8216 6.05551 16.6785 6.16194 16.5904C7.14112 15.6984 8.19481 14.9496 9.17399 14.311C9.22721 14.2779 9.7168 14.0247 10.6428 13.5842C10.8769 13.4411 10.994 13.364 11.2281 13.2098C11.5581 13.0777 11.7284 13.0116 12.0583 12.8685C12.2925 12.8024 12.7714 12.7583 13.3994 12.6592C13.9954 12.5601 14.4744 12.4941 14.7298 12.5491C15.0917 12.6372 15.4003 12.7804 15.6451 12.9455C15.8899 13.1107 16.0496 13.2208 16.1028 13.2649C16.3689 13.5071 16.5711 13.9145 16.7094 14.4321C16.7946 14.7624 16.8159 15.1699 16.7839 15.6434C16.7839 15.7755 16.7307 15.9517 16.6669 16.1609C16.5924 16.3701 16.5392 16.5133 16.5285 16.5793C16.3795 17.1189 16.305 17.5153 16.2624 17.6144C15.8367 18.5174 15.3684 19.5635 14.7085 20.3453C14.3253 20.8188 14.1338 21.05 13.7506 21.5235C13.6229 21.6997 13.4739 21.8429 13.3036 21.953C13.0801 22.1072 12.8991 22.2944 12.7501 22.4815C12.4734 22.8339 12.0903 23.1863 11.6858 23.5166C11.2814 23.847 10.8769 24.0782 10.4938 24.1883C10.3554 24.2214 10.2809 24.2324 10.1425 24.2544C9.95095 24.2874 9.84452 24.2544 9.80195 24.1223C9.7913 24.0782 9.7913 24.0232 9.80195 23.9351C9.80195 23.858 9.84452 23.7369 9.90838 23.5827C9.9616 23.4285 10.0042 23.3405 10.0148 23.3184C10.1319 22.911 10.1851 22.7018 10.2915 22.2944C10.5363 21.2372 10.8237 20.2132 11.1536 19.2331C11.3772 18.5174 11.4836 18.154 11.7071 17.4383C11.8135 17.0969 11.8455 16.8326 11.7922 16.6454C11.7603 16.5463 11.6858 16.4252 11.5581 16.2931C11.4304 16.1609 11.3133 16.0728 11.2069 16.0067C11.1324 15.9627 10.9727 15.8636 10.7492 15.7094C10.5257 15.5553 10.3448 15.5002 10.1957 15.5332C10.1319 15.5553 10.0574 15.5993 9.9616 15.6654C9.86581 15.7425 9.80195 15.8085 9.78066 15.8526C9.67423 16.0178 9.56779 16.238 9.47201 16.5023C9.37622 16.7665 9.31236 16.9537 9.26978 17.0528C9.2485 17.1079 9.18464 17.163 9.09949 17.24C9.01434 17.3061 8.97177 17.3612 8.95048 17.3832C8.95048 17.4933 8.95048 17.5374 8.95048 17.6475C8.9292 17.7246 8.87598 17.8237 8.80148 17.9448C8.72697 18.0659 8.67376 18.165 8.65247 18.2421C8.65247 18.3412 8.65247 18.3852 8.65247 18.4733C8.62054 18.5394 8.59925 18.5724 8.56732 18.6385C8.56732 18.7707 8.56732 18.8367 8.56732 18.9799C8.37575 19.4534 8.27996 19.6846 8.08838 20.1581C7.96066 20.6646 7.8968 20.9179 7.77972 21.4244C7.59879 21.953 7.503 22.2173 7.32206 22.7458C7.26884 23.0211 7.23691 23.1533 7.1837 23.4285C7.10919 23.6488 7.07726 23.7589 7.0134 23.9901C6.89633 24.0672 6.84311 24.1002 6.73668 24.1773C6.71539 24.3425 6.70475 24.4306 6.69411 24.5958C6.63025 24.794 6.59832 24.8821 6.53446 25.0803C6.48124 25.4216 6.45995 25.5868 6.41738 25.9282C6.35352 26.1594 6.32159 26.2805 6.25773 26.5118C6.19387 26.71 6.16194 26.7981 6.09808 26.9963C6.09808 27.3046 6.09808 27.4808 6.08744 27.5248C6.0768 27.5579 6.06615 27.6019 6.05551 27.657C5.97036 27.8111 5.91715 27.8772 5.832 28.0314C5.80007 28.1305 5.7575 28.2626 5.71492 28.4058C5.67235 28.5599 5.61913 28.7581 5.56592 29.0224C5.5127 29.2867 5.48077 29.4629 5.45948 29.562C5.34241 30.2447 5.28919 30.5861 5.18276 31.2688C4.99118 32.1827 4.96989 32.8434 5.08697 33.2509C5.15083 33.4601 5.36369 33.6693 5.68299 33.9005C5.88522 34.0437 6.11937 34.1979 6.39609 34.33C6.67282 34.4511 6.89633 34.4842 7.07726 34.4291C7.17305 34.3961 7.2582 34.352 7.31142 34.2859C7.36463 34.2199 7.48171 33.9336 7.5775 33.4601C7.59879 33.372 7.64136 33.2068 7.72651 32.9756C7.81165 32.7443 7.86487 32.5681 7.86487 32.458C7.91808 31.6652 8.00323 30.9605 8.10966 30.3989C8.13095 30.2557 8.18417 30.1016 8.26931 29.9254C8.35446 29.7492 8.40768 29.595 8.42896 29.4519C8.54604 28.7141 8.62054 28.2296 8.67376 28.0314C8.7589 27.7231 8.80148 27.5689 8.88662 27.2606C8.88662 27.2165 8.93984 27.0844 9.0037 26.8752C9.0782 26.6659 9.16335 26.5448 9.25914 26.5118C9.323 26.4898 9.40814 26.4898 9.52522 26.5008C9.6423 26.5008 9.80195 26.5338 10.0255 26.5668C10.249 26.5999 10.366 26.6329 10.398 26.6439C10.6853 26.721 11.1643 26.6109 11.5474 26.5008C12.1115 26.3356 12.7608 26.0273 13.442 25.5758C13.9422 25.2455 14.3573 24.9151 14.6659 24.6178C15.2726 24.0452 15.9751 23.2193 16.7839 22.2503C17.2629 21.6667 17.7525 20.7858 18.274 19.6736C18.6039 18.9689 18.87 18.0439 19.019 16.9427" fill="white"/>
<path d="M64.3697 6.56976C64.4762 6.71291 64.5294 6.77898 64.6465 6.92213C64.7423 7.08731 64.7955 7.1754 64.8913 7.34057C64.9977 7.47271 65.0509 7.53878 65.1574 7.65991C65.3276 7.77002 65.4128 7.82508 65.5831 7.92419C65.7002 7.97925 65.796 7.99026 65.8811 7.97925C65.945 7.97925 66.094 7.88014 66.3388 7.69294C66.6368 7.47271 66.7858 7.3626 67.0944 7.14237C67.3605 6.91112 67.4882 6.80101 67.7437 6.58078C68.031 6.34953 68.18 6.23942 68.4674 6.00817C68.7229 5.7439 68.8506 5.61176 69.1167 5.34748C69.3934 5.06118 69.4998 4.77488 69.4892 4.53262C69.4679 4.29037 69.3934 4.07014 69.255 3.91598C69.1805 3.82788 69.0847 3.72878 68.9676 3.64069C68.8506 3.5526 68.7441 3.51956 68.659 3.53057C68.5739 3.53057 68.4781 3.58563 68.3823 3.67372C68.2865 3.76182 68.2226 3.81687 68.2013 3.8389C68.0523 4.00407 67.9672 4.08115 67.8182 4.23531C67.5308 4.47757 67.3818 4.59869 67.0944 4.84095C66.8071 5.07219 66.6581 5.18231 66.3707 5.41355C66.2643 5.47962 66.2004 5.51265 66.094 5.57872C66.0301 5.57872 65.9556 5.56771 65.8598 5.51265C65.764 5.45759 65.7002 5.39153 65.6682 5.31445C65.4873 5.09421 65.3915 4.9841 65.2106 4.75286C64.87 4.42251 64.6997 4.25733 64.3591 3.92699C64.2633 3.90496 64.2207 3.88294 64.125 3.86092C64.0185 3.89395 63.9334 3.96002 63.8482 4.05913C63.6354 4.32341 63.5289 4.60971 63.5502 4.87398C63.5609 5.01713 63.7099 5.33647 63.8908 5.79895C64.0292 6.1293 64.1782 6.39358 64.3804 6.54774" fill="white"/>
<path d="M85.2952 9.75214C85.1568 9.79619 84.9652 10.0164 84.8482 10.3358C84.8056 10.4569 84.7417 10.6 84.6353 10.7212C84.5289 10.8423 84.4544 10.9304 84.4118 10.9744C83.9754 11.6351 83.7519 11.9765 83.3155 12.6372C83.0814 12.8574 82.9537 12.9785 82.7195 13.1988C82.6557 13.2648 82.5812 13.386 82.4854 13.5401C82.3896 13.6943 82.3257 13.8044 82.2831 13.8484C81.8574 14.377 81.3891 14.8395 80.9634 15.1808C80.825 15.291 80.7079 15.368 80.6015 15.368C80.5483 15.335 80.5164 15.313 80.4631 15.2799C80.4844 15.2029 80.4951 15.1588 80.5057 15.0817C80.5696 14.7954 80.6015 14.6523 80.6654 14.355C80.6973 14.1788 80.7824 13.9145 80.9208 13.5621C81.155 13.1767 81.272 12.9895 81.5168 12.6041C81.8574 12.0205 82.2406 11.4699 82.5705 10.9744C82.6237 10.8863 82.6982 10.7982 82.794 10.7101C82.8792 10.6331 83.2517 10.2807 83.8903 9.67506C84.3905 9.20156 84.8269 8.95931 85.1888 8.93729C85.3378 8.93729 85.4655 8.97032 85.5826 9.06943C85.6996 9.16853 85.7529 9.26763 85.7635 9.37775C85.7635 9.53191 85.5932 9.63102 85.2739 9.73012M42.6582 18.3191C42.5411 18.4072 42.4134 18.4623 42.275 18.4953C42.1899 18.4953 42.1366 18.4953 42.0515 18.5063C42.0089 18.4953 41.9664 18.4733 41.9238 18.4513C41.8919 18.4293 41.8919 18.3962 41.8919 18.3742C41.8919 18.3191 41.9238 18.176 42.0196 18.0218C42.3282 17.5153 42.4772 17.262 42.7859 16.7555C42.8391 16.6784 42.9136 16.6123 43.02 16.5463C43.1265 16.4802 43.201 16.4362 43.2329 16.4031C43.3074 16.3371 43.4351 16.1278 43.6054 15.8085C43.7331 15.5883 43.797 15.4782 43.9247 15.2579C43.9673 15.1588 44.0524 15.0377 44.1695 14.8945C44.2866 14.7514 44.3505 14.6633 44.3717 14.6413C44.7123 14.1347 44.9784 13.8705 45.17 13.8374C45.2977 13.8154 45.3722 13.8705 45.3935 14.0246C45.4148 14.1458 45.3722 14.388 45.2764 14.7294C45.17 15.0707 45.0423 15.357 44.9145 15.5552C44.4037 16.3591 44.095 16.9317 43.9354 17.1189C43.5948 17.5043 43.169 17.9117 42.6369 18.3191M33.9413 17.3061C33.803 17.3721 33.6539 17.6144 33.5901 17.9447C33.5688 18.0659 33.5262 18.22 33.4304 18.3632C33.3453 18.5063 33.2814 18.6054 33.2495 18.6495C32.9089 19.3763 32.7386 19.7396 32.398 20.4554C32.1958 20.7086 32.0894 20.8408 31.8872 21.1051C31.8339 21.1821 31.7807 21.3033 31.7062 21.4795C31.6317 21.6446 31.5785 21.7658 31.5466 21.8098C31.1953 22.3934 30.8015 22.922 30.429 23.3294C30.312 23.4615 30.1949 23.5496 30.0991 23.5717C30.0459 23.5496 30.0139 23.5276 29.9501 23.5056C29.9501 23.4285 29.9607 23.3845 29.9714 23.3074C29.9927 23.0101 30.0033 22.8669 30.0352 22.5696C30.0352 22.3934 30.0884 22.1181 30.1736 21.7437C30.3545 21.3253 30.4503 21.1271 30.6313 20.7086C30.8867 20.081 31.1847 19.4754 31.4508 18.9358C31.4934 18.8477 31.5572 18.7376 31.6317 18.6495C31.7062 18.5504 32.0149 18.154 32.5683 17.4602C32.9941 16.9207 33.3985 16.6123 33.7497 16.5353C33.8987 16.5022 34.0371 16.5353 34.1542 16.6123C34.2819 16.6894 34.3564 16.7885 34.3777 16.8876C34.4096 17.0308 34.2393 17.1629 33.9413 17.3171M90.9574 9.53191C90.9574 9.44382 90.9042 9.35573 90.851 9.34471C90.8084 9.3337 90.702 9.44382 90.5956 9.63102C90.4891 9.81821 90.404 9.95035 90.3401 10.0164C90.2018 10.2146 90.1272 10.3137 89.9782 10.523C89.6164 10.9744 89.4354 11.1947 89.0842 11.6351C88.3498 12.5821 87.6899 13.3089 87.211 13.8154C87.1684 13.8595 87.0833 13.9586 86.9449 14.1237C86.8065 14.2779 86.6682 14.421 86.5298 14.5422C86.3915 14.6633 86.2531 14.7184 86.1254 14.7294C86.0189 14.7294 85.9338 14.6853 85.8806 14.5642C85.8167 14.4541 85.7848 14.333 85.7741 14.2008C85.7741 14.1347 85.7741 14.1017 85.7741 14.0356C85.8912 13.5291 86.2957 12.7473 86.9875 11.6902C87.3387 11.1506 87.5622 10.7101 87.6793 10.4238C87.8815 9.92833 88.0305 9.58697 88.0518 9.44382C88.0731 9.30067 88.0837 9.20157 88.0837 9.1355C88.0731 8.88223 87.8389 8.5739 87.3813 8.21052C86.9875 7.93523 86.7959 7.8031 86.4021 7.53882C86.1254 7.38466 85.9764 7.31859 85.6996 7.16442C85.5187 7.02127 85.4336 6.95521 85.2526 6.81205C85.1568 6.79003 85.1143 6.77902 85.0185 6.76801C84.9014 6.79003 84.8482 6.80104 84.7311 6.82307C84.6566 6.84509 84.614 6.8561 84.5395 6.86711C84.3905 6.88914 84.3054 6.90015 84.1564 6.92217C83.9435 6.93318 83.7093 7.03229 83.4646 7.19746C83.4113 7.25252 83.39 7.28555 83.3475 7.34061C83.39 7.38466 83.4113 7.41769 83.4539 7.46174C83.4539 7.57185 83.4007 7.62691 83.273 7.63792C83.0814 7.6159 82.975 7.60489 82.7834 7.58286C82.7408 7.58286 82.6982 7.62691 82.645 7.69298C82.5918 7.75905 82.5599 7.80309 82.5386 7.82512C82.5173 7.84714 82.4747 7.86916 82.4002 7.9022C82.3257 7.93523 82.2831 7.96827 82.2619 8.01232C82.1554 8.17749 82.1022 8.25457 82.0064 8.41974C81.9426 8.48581 81.8042 8.61795 81.57 8.79414C81.3359 8.97032 81.1656 9.13549 81.0485 9.27864C80.7612 9.66405 80.6122 9.86226 80.3248 10.2477C80.2609 10.3137 80.1438 10.4789 79.9523 10.7432C79.7607 11.0075 79.6117 11.2167 79.5478 11.3378C79.5265 11.3819 79.5159 11.4589 79.5052 11.5801C79.5052 11.6351 79.4946 11.6792 79.4733 11.7122C79.4627 11.7232 79.452 11.7452 79.4414 11.7562C79.4414 11.7562 79.4307 11.7562 79.4201 11.7562C79.3669 11.7342 79.3456 11.7232 79.2924 11.7012C79.2285 11.7452 79.2072 11.7673 79.1434 11.8113C79.0369 12.0756 78.9837 12.2077 78.8773 12.483C78.8666 12.516 78.856 12.5381 78.8454 12.5711C78.409 13.1657 78.0045 13.6833 77.6533 14.1127C77.0999 14.7844 76.6316 15.2469 76.291 15.5002C75.993 15.7094 75.7588 15.8415 75.5992 15.8636C75.4289 15.8856 75.3437 15.8085 75.3224 15.6323C75.3544 15.4451 75.3756 15.357 75.4076 15.1698C75.4501 14.9936 75.5566 14.7404 75.7056 14.4321C75.8546 14.1127 75.9504 13.9255 75.9823 13.8595C76.1207 13.4741 76.1952 13.2758 76.3442 12.8904C76.5996 12.439 76.7273 12.2187 76.9828 11.7673C77.3234 11.0845 77.483 10.7542 77.8236 10.0715C78.0152 9.62 78.111 9.32269 78.1003 9.16853C78.1003 9.08044 78.0578 8.98133 78.0045 8.84919C77.9513 8.72807 77.8981 8.62896 77.8555 8.57391C77.7278 8.44177 77.515 8.2876 77.2489 8.13344C76.9828 7.97928 76.7699 7.9022 76.5996 7.92422C76.5251 7.95726 76.4826 7.97928 76.408 8.0013C76.3442 8.03434 76.2697 8.07838 76.1952 8.13344C76.11 8.19951 76.0675 8.23255 76.0462 8.26558C75.8865 8.33165 75.8014 8.36468 75.6417 8.43075C75.4395 8.54087 75.216 8.70604 74.9818 8.9483C74.4497 9.50989 74.1942 9.78518 73.6621 10.3468C73.1406 10.9194 72.7255 11.4259 72.4275 11.8664C72.1933 12.2077 72.0762 12.3729 71.8421 12.7032C71.6505 12.9345 71.5228 13.0666 71.4589 13.0666C71.427 13.0226 71.4164 12.9895 71.3844 12.9455C71.3844 12.8574 71.4802 12.5931 71.6824 12.1306C71.8421 11.7893 71.9166 11.6241 72.0762 11.2828C72.1082 11.1947 72.2039 10.9964 72.3636 10.6881C72.5232 10.3798 72.6403 10.1375 72.6935 9.97237C72.7468 9.8072 72.8 9.65304 72.8213 9.5209C72.8213 9.39977 72.8213 9.34471 72.8213 9.2346C72.7893 8.91526 72.502 8.56289 71.9804 8.2876C71.7676 8.17749 71.5866 8.13344 71.4802 8.14446C71.3525 8.15547 71.2354 8.22154 71.1396 8.30963C71.0864 8.36469 70.9268 8.56289 70.8097 8.86021C70.7671 8.95931 70.6926 9.03639 70.6074 9.08044C70.4904 9.1355 70.3946 9.24561 70.3414 9.3337C70.3094 9.39977 70.2881 9.5209 70.2881 9.69708C70.2881 9.87327 70.2562 9.9944 70.2349 10.0605C70.1072 10.3358 69.9901 10.6441 69.8411 10.8533C69.7454 10.9964 69.6708 11.0956 69.6815 11.1616C69.7028 11.2277 69.7134 11.2607 69.7347 11.3158C69.7347 11.3598 69.607 11.4589 69.4473 11.6131C69.426 11.6351 69.3941 11.7562 69.3515 11.9434C69.3515 11.9765 69.3409 12.0095 69.3196 12.0425C69.128 12.3729 68.8726 12.7032 68.6278 13.0006C68.532 13.1217 68.2446 13.4741 67.7763 14.0577C67.2974 14.6413 66.8823 15.1258 66.5843 15.4892C66.5311 15.5552 66.3821 15.7204 66.1479 15.9847C65.9138 16.238 65.7328 16.4251 65.5945 16.5243C65.4561 16.6234 65.371 16.6894 65.3284 16.7225C65.2539 16.7775 65.0836 16.9097 64.8175 17.1189C64.5621 17.3281 64.3598 17.4823 64.2215 17.5593C63.6574 17.8677 63.1784 18.0218 62.8911 18.0659C62.6463 18.0989 62.4334 18.0659 62.2525 17.9337C62.0715 17.8016 61.9757 17.6144 61.9332 17.3611C61.9012 17.1519 61.9332 16.7775 62.0396 16.238C62.1141 15.9076 62.146 15.7314 62.2205 15.4011C62.327 15.1038 62.5505 14.6413 62.8804 14.0467C63.1359 13.5842 63.4552 13.0446 63.8383 12.516C64.0618 12.2077 64.2108 11.9545 64.2747 11.8443C64.3811 11.6241 64.594 11.4589 64.7324 11.3598C64.9452 11.2167 65.0942 11.0845 65.1794 11.0735C65.2645 11.0735 65.3177 11.1176 65.3284 11.2497C65.3603 11.481 65.2645 11.7562 65.1687 12.0205C65.1368 12.1196 65.0091 12.3839 64.7749 12.7253C64.7536 12.7473 64.6685 12.8464 64.5195 13.0226C64.3705 13.1988 64.2747 13.3199 64.2428 13.419C64.2215 13.5291 64.2002 13.5842 64.1789 13.6833C64.1896 13.8154 64.296 13.9035 64.4663 13.9475C64.6472 14.0026 64.8281 14.0136 65.0197 13.9916C65.1049 13.9696 65.1474 13.9586 65.2326 13.9255C65.6051 13.7934 65.8393 13.6612 65.9563 13.5732C66.0841 13.463 66.3076 13.2098 66.6056 12.8464C66.8717 12.505 67.1484 12.0536 67.3187 11.525C67.4145 11.2277 67.4464 10.9304 67.4145 10.6661C67.3932 10.4789 67.3293 10.3137 67.2229 10.1706C66.9142 9.75214 66.5204 9.38876 66.0734 9.17954C65.9244 9.11347 65.6264 9.08044 65.222 9.09145C64.9984 9.06942 64.8814 9.05841 64.6579 9.03639C64.6153 9.03639 64.3279 9.19055 63.8064 9.47685C63.5616 9.63101 63.4445 9.69709 63.1997 9.85125C62.9869 10.0935 62.8698 10.2036 62.6569 10.4459C62.444 10.6331 62.3376 10.7212 62.1354 10.9084C61.848 11.3268 61.7097 11.536 61.4329 11.9434C61.2094 12.3399 60.9646 12.6702 60.7518 12.9125C60.5602 13.1437 60.4005 13.5401 60.2728 14.0467C60.2409 14.1017 60.1983 14.1678 60.1664 14.2338C59.8258 14.8505 59.4107 15.5332 58.9424 16.271C58.2825 17.3061 57.8461 17.9447 57.6439 18.154C57.133 18.6935 56.7605 18.9798 56.5902 19.0019C56.4625 19.0239 56.388 18.9468 56.3667 18.7816C56.3561 18.6715 56.3667 18.4513 56.4093 18.1209C56.4519 17.7906 56.5157 17.5483 56.5796 17.4162C56.7392 17.0308 56.8244 16.8326 56.984 16.4472C57.1756 16.1058 57.2714 15.9296 57.4736 15.5883C57.5162 15.3901 57.5481 15.2799 57.5907 15.0817C57.6865 14.9276 57.7291 14.8505 57.8249 14.6853C57.91 14.5642 57.9952 14.377 58.0697 14.1237C58.1442 13.8705 58.1974 13.7163 58.2293 13.6392C58.3996 13.2318 58.4954 13.0336 58.6657 12.6262C58.9211 11.9985 59.0276 11.525 58.985 11.1836C58.9424 10.9084 58.836 10.6991 58.6337 10.556C58.4422 10.4238 58.357 10.3688 58.1654 10.2367C57.9739 10.0935 57.8355 10.0274 57.7504 10.0384C57.7291 10.0384 57.6759 10.0605 57.5907 10.0935C57.5056 10.1265 57.3672 10.4128 57.1224 10.7212C57.0053 10.8753 56.8776 11.0075 56.8563 11.1176C56.835 11.2277 56.8244 11.2828 56.7925 11.3819C56.5477 11.6902 56.4306 11.8443 56.1964 12.1637C56.0261 12.5381 55.9516 12.7253 55.7813 13.1107C55.7068 13.2979 55.6536 13.419 55.5898 13.5621C55.5153 13.6723 55.4408 13.7824 55.3663 13.9145C55.1108 14.3109 54.9512 14.5752 54.8873 14.6963C54.8235 14.8175 54.6638 15.0817 54.419 15.5002C54.1742 15.9186 53.972 16.238 53.8123 16.4582C53.3334 17.0418 53.0992 17.3391 52.6309 17.9227C52.1946 18.5394 51.7369 19.0239 51.2579 19.3652C51.1089 19.4754 50.9706 19.5414 50.8429 19.5634C50.6619 19.5965 50.5448 19.5194 50.5129 19.3322C50.5129 19.2661 50.5342 19.0679 50.6087 18.7266C50.7577 18.3191 50.8322 18.1209 50.9919 17.7135C51.0344 17.5924 51.077 17.4272 51.1196 17.218C51.1622 17.0088 51.1941 16.8546 51.226 16.7555C51.3005 16.5243 51.4282 16.2269 51.6198 15.8746C51.8114 15.5112 51.9285 15.2689 51.9711 15.1588C52.0668 14.9276 52.2265 14.5752 52.4074 14.1127C52.5777 13.6502 52.7054 13.3309 52.7587 13.1767C53.0992 12.472 53.2695 12.1086 53.6208 11.4039C53.6527 11.3158 53.7059 11.1396 53.7911 10.8863C53.8762 10.6331 53.9613 10.4128 54.0465 10.2256C54.1423 10.0384 54.2806 9.88428 54.4509 9.79619C54.5467 9.75214 54.6212 9.7081 54.6532 9.63102C54.6212 9.58697 54.5999 9.56495 54.568 9.50989C54.6319 9.47685 54.6532 9.45483 54.717 9.42179C54.8447 9.42179 54.9192 9.42179 55.047 9.43281C55.196 9.36674 55.2705 9.3337 55.4195 9.27864C55.5578 9.2346 55.6217 9.21257 55.7601 9.15752C55.9836 9.11347 56.1006 9.08044 56.3348 9.03639C56.5051 9.02538 56.5902 9.01437 56.7499 9.00336C56.9308 8.95931 57.016 8.9483 57.1969 8.90425C57.5907 8.7611 57.7929 8.69503 58.1974 8.56289C58.5167 8.40873 58.6763 8.33165 58.9956 8.1885C59.134 8.10041 59.1978 7.97928 59.1766 7.8031C59.1233 7.68197 59.0914 7.6159 59.0382 7.49477C59.0063 7.45072 58.953 7.35162 58.8679 7.19746C58.7828 7.03229 58.6976 6.93318 58.6231 6.87813C58.5273 6.80104 58.357 6.76801 58.1122 6.757C57.8674 6.757 57.6759 6.757 57.5268 6.77902C57.2608 6.83408 57.1224 6.8561 56.8563 6.91116C56.5902 6.98824 56.4625 7.03228 56.1964 7.10937C56.0474 7.13139 55.941 7.12038 55.8771 7.07633C55.8133 7.03229 55.7813 6.99925 55.7813 6.97723C55.7707 6.88914 55.8239 6.76801 55.9516 6.59182C56.1219 6.22844 56.2071 6.04124 56.3774 5.67786C56.6435 5.22639 56.7499 4.852 56.7073 4.55468C56.6754 4.34546 56.569 4.14726 56.3774 3.97107C56.1858 3.79489 55.941 3.68477 55.7494 3.59668C55.5046 3.48656 55.2492 3.37645 55.0576 3.40948C54.9937 3.40948 54.9299 3.45353 54.8767 3.50859C54.8235 3.56364 54.7596 3.65174 54.7064 3.79489C54.6532 3.93804 54.6106 4.02613 54.5999 4.07017C54.5254 4.25737 54.4829 4.34546 54.3977 4.52165C54.3658 4.65379 54.3445 4.71986 54.3126 4.86301C54.1423 5.17133 54.0678 5.3365 53.8975 5.64483C53.525 6.26148 53.344 6.5698 52.9822 7.19746C52.7906 7.54983 52.6416 7.75905 52.5245 7.82512C52.0775 7.92422 51.854 7.97928 51.4176 8.07839C50.7471 8.30963 50.4065 8.43075 49.736 8.662C49.2996 8.80515 49.0761 8.87122 48.6397 9.01437C48.5546 9.0474 48.512 9.11347 48.5013 9.20156C48.5652 9.34471 48.5971 9.4218 48.661 9.56495C48.8419 9.88428 48.9696 10.0605 49.0335 10.1155C49.0974 10.1706 49.1506 10.2036 49.1932 10.2146C49.2889 10.2367 49.4379 10.2587 49.6402 10.2697C49.853 10.2697 50.0127 10.2917 50.0872 10.3247C50.2255 10.3798 50.3852 10.4459 50.5342 10.4459C50.6406 10.4459 50.6939 10.4459 50.7896 10.4349C50.9174 10.4018 50.9812 10.3798 51.0983 10.3468C51.2473 10.3247 51.3325 10.3578 51.3431 10.4679C51.3431 10.534 51.3431 10.6 51.3325 10.6771C51.3112 10.7542 51.2047 10.9964 51.0025 11.4039C50.8429 11.7342 50.7684 11.8994 50.6087 12.2187C50.5129 12.483 50.4597 12.6152 50.3533 12.8794C50.2788 12.9785 50.2468 13.0336 50.1723 13.1437C50.1404 13.2648 50.1191 13.3309 50.0978 13.452C50.0978 13.4741 49.9701 13.6943 49.7253 14.1237C49.4699 14.5532 49.3528 14.8175 49.3741 14.9166C49.406 14.9166 49.4167 14.9276 49.4379 14.9386C49.4912 14.9166 49.5124 14.9056 49.555 14.8835C49.555 14.9056 49.5657 14.9166 49.5763 14.9276C49.555 14.9276 49.5444 14.9276 49.5231 14.9276C49.4592 14.9386 49.3954 14.9826 49.3422 15.0707C49.2783 15.1588 49.2464 15.2139 49.2251 15.2359C49.1187 15.368 48.959 15.5332 48.8206 15.7314C48.6823 15.9296 48.512 16.2269 48.3098 16.6123C48.1075 16.9978 47.9798 17.24 47.9372 17.3391C47.5009 18.154 46.9687 18.9248 46.4578 19.5745C46.1172 20.0149 45.7767 20.3343 45.5425 20.5325C45.2019 20.8298 44.9145 21.05 44.6804 21.0941C44.4995 21.1271 44.3292 21.083 44.1695 20.9509C44.0205 20.8188 43.9141 20.6536 43.8609 20.4774C43.8076 20.3343 43.7864 20.2572 43.7331 20.114C43.6906 19.8608 43.7544 19.6515 43.9034 19.4864C43.9886 19.3873 44.1482 19.2661 44.3717 19.145C44.5953 19.0239 44.7443 18.9358 44.8188 18.8807C45.1168 18.5504 45.2658 18.3852 45.5744 18.0439C46.1172 17.3721 46.4685 16.8986 46.6175 16.6234C46.7665 16.3481 46.8516 16.1388 46.8942 15.9957C46.9368 15.7865 46.9581 15.6874 47.0006 15.4892C47.1071 15.324 47.1496 15.2469 47.2561 15.0817C47.4264 14.6853 47.4796 14.333 47.437 14.0356C47.3731 13.6502 47.3412 13.463 47.2774 13.0886C47.2454 12.9565 47.2241 12.8794 47.1816 12.7473C47.0219 12.45 46.7452 12.2297 46.3514 12.0866C46.2343 12.0425 46.0853 12.0095 45.8937 11.9765C45.7021 11.9434 45.5425 11.9434 45.4148 11.9765C45.0103 12.0536 44.5952 12.2848 44.1482 12.6922C43.7119 13.0886 43.1797 13.7604 42.5624 14.6853C42.2963 15.1368 42.1579 15.357 41.8919 15.7975C41.7109 15.9847 41.5832 16.0838 41.53 16.0948C41.498 16.0948 41.4874 16.0838 41.4661 16.0728C41.4768 15.9957 41.4874 15.9517 41.4981 15.8746C41.6896 15.4561 41.7854 15.2469 41.9876 14.8285C42.0515 14.5752 42.2005 14.2008 42.4027 13.7273C42.6688 13.1217 43.0413 12.3509 43.5629 11.4369C43.8502 11.0405 43.9886 10.8423 44.276 10.4459C44.4569 10.0825 44.5527 9.9063 44.7443 9.54292C44.84 9.35572 44.8933 9.25662 44.989 9.06943C45.0103 9.0474 45.0636 8.99234 45.1593 8.90425C45.2551 8.81616 45.319 8.73908 45.3509 8.67301C45.4893 8.27659 45.5638 8.0894 45.7128 7.69298C45.9257 7.28555 46.0215 7.08734 46.2343 6.67991C46.4046 6.26148 46.4898 6.04124 46.6494 5.6228C46.7878 5.4246 46.8836 5.24841 46.9261 5.11627C46.99 4.91807 47.0219 4.82997 47.0751 4.63177C47.2348 4.14726 47.3093 3.86096 47.2986 3.77286C47.2986 3.42049 47.3093 3.24431 47.3199 2.89194C47.288 2.72676 47.2029 2.55058 47.0538 2.3854C46.9048 2.22023 46.7346 2.11012 46.543 2.05506C46.362 2.03303 46.2769 2.02202 46.096 2C45.9682 2.02202 45.8299 2.08809 45.6809 2.20922C45.5319 2.31934 45.3722 2.52856 45.2019 2.81486C45.0316 3.11217 44.9252 3.28835 44.8933 3.3324C44.8081 3.4315 44.691 3.60769 44.5846 3.84994C44.4675 4.0922 44.3824 4.23535 44.3611 4.2794C44.3079 4.3785 44.2227 4.51064 44.0844 4.62075C43.9992 4.73087 43.9566 4.78593 43.8609 4.89604C43.5735 5.25943 43.2116 5.88708 42.7965 6.80104C42.5517 7.21948 42.4347 7.41769 42.1899 7.83613C42.1473 7.97928 42.1047 8.16648 42.0621 8.41974C42.0196 8.67301 41.9876 8.81616 41.977 8.86021C41.9238 9.08044 41.7429 9.46584 41.4874 9.97237C41.4023 10.1375 41.3171 10.4679 41.2 10.9194C41.1894 10.9634 41.1575 11.0625 41.1255 11.2167C41.083 11.3708 41.051 11.4699 41.0191 11.514C40.9872 11.569 40.8807 11.6571 40.7104 11.8003C40.6147 11.9765 40.5614 12.0646 40.4657 12.2408C40.4231 12.3399 40.3699 12.516 40.3379 12.7583C40.306 12.9785 40.1889 13.2869 39.9548 13.6612C39.8696 13.7824 39.8377 13.9145 39.859 14.0356C39.8909 14.1347 39.9122 14.1788 39.9441 14.2779C39.9654 14.366 39.9548 14.4871 39.9016 14.5862C39.8483 14.6853 39.7738 14.7624 39.7845 14.8065C39.8164 14.9936 39.7951 15.1038 39.71 15.1148C39.678 15.0928 39.6674 15.0817 39.6355 15.0597C39.6355 14.9386 39.6355 14.8835 39.6355 14.7624C39.6035 14.7404 39.5929 14.7294 39.561 14.7073C39.5078 14.7734 39.4865 14.8065 39.4333 14.8615C39.38 14.9166 39.3694 15.0267 39.4013 15.1919C39.4439 15.324 39.4652 15.4011 39.4971 15.5332C39.4652 15.5773 39.4545 15.5993 39.4226 15.6433C39.3375 15.6213 39.2949 15.6103 39.2204 15.5883C39.1565 15.6543 39.1246 15.6874 39.0607 15.7534C39.0288 15.8415 39.0075 15.8856 38.9756 15.9737C39.0395 16.0287 39.0714 16.0508 39.1352 16.1058C39.1565 16.0838 39.1672 16.0838 39.1885 16.0618C39.2097 16.0948 39.2204 16.1168 39.2417 16.1499C39.2097 16.1939 39.1991 16.2159 39.1672 16.26C39.0501 16.326 38.9862 16.3591 38.8692 16.4252C38.8266 16.4582 38.784 16.5353 38.7414 16.6674C38.6882 16.7995 38.6669 16.8986 38.6563 16.9647C38.6563 17.0858 38.6669 17.1409 38.6776 17.251C38.6776 17.3061 38.6776 17.3391 38.6776 17.3721C38.4115 17.8236 38.2625 18.0769 37.9858 18.5394C37.3897 19.5855 36.8363 20.4003 36.4425 20.9729C36.4106 21.017 36.3361 21.1381 36.219 21.3143C36.1019 21.4905 35.9848 21.6556 35.8678 21.7878C35.7507 21.9199 35.623 22.008 35.4952 22.03C35.3888 22.0521 35.3037 22.008 35.2292 21.9089C35.1547 21.8098 35.1014 21.6887 35.0801 21.5676C35.0695 21.5015 35.0589 21.4684 35.0482 21.4134C35.0908 20.8958 35.3888 20.059 35.921 18.9138C36.1871 18.3302 36.3467 17.8567 36.4212 17.5593C36.5489 17.0418 36.6554 16.6784 36.6554 16.5353C36.6554 16.3921 36.6554 16.293 36.6447 16.2269C36.5915 15.9737 36.3254 15.7094 35.8252 15.4231C35.3994 15.2139 35.1866 15.1038 34.7608 14.8945C34.4628 14.7844 34.3138 14.7404 34.0158 14.6303C33.8242 14.5201 33.7178 14.4541 33.5262 14.344C33.4304 14.344 33.3879 14.344 33.2921 14.333C33.1856 14.366 33.1218 14.388 33.0153 14.4321C32.9408 14.4651 32.9089 14.4761 32.8344 14.5091C32.6854 14.5532 32.6109 14.5752 32.4619 14.6303C32.249 14.6743 32.0362 14.8065 31.8127 15.0047C31.7701 15.0707 31.7488 15.0928 31.7169 15.1588C31.7701 15.2029 31.7914 15.2249 31.8339 15.2579C31.8552 15.368 31.802 15.4341 31.6743 15.4561C31.4827 15.4561 31.3763 15.4561 31.1847 15.4671C31.1421 15.4671 31.0996 15.5222 31.0676 15.5993C31.0251 15.6764 31.0038 15.7204 30.9825 15.7534C30.9612 15.7755 30.9186 15.8085 30.8548 15.8526C30.7909 15.8856 30.7483 15.9296 30.7377 15.9847C30.6525 16.1609 30.6206 16.249 30.5355 16.4252C30.4822 16.5022 30.3545 16.6454 30.1523 16.8656C29.9501 17.0748 29.8011 17.262 29.6946 17.4162C29.4605 17.8456 29.3434 18.0549 29.1093 18.4843C29.056 18.5614 28.9603 18.7486 28.8112 19.0349C28.6622 19.3212 28.5452 19.5524 28.5026 19.6846C28.4919 19.7286 28.4919 19.8167 28.5026 19.9378C28.5026 20.059 28.4919 20.125 28.4494 20.136C28.3962 20.125 28.3642 20.114 28.311 20.103C28.2578 20.1581 28.2259 20.1801 28.1727 20.2352C28.1088 20.5104 28.0769 20.6536 28.0024 20.9399C27.9704 21.05 27.9491 21.1381 27.9385 21.2262C27.2254 22.4485 26.6613 23.3734 26.2249 23.924C25.7779 24.5076 25.3841 24.9371 25.1074 25.2234C24.8307 25.5097 24.6071 25.6639 24.4475 25.7079C24.3304 25.7409 24.2453 25.6859 24.2133 25.5317C24.1921 25.4436 24.224 25.2014 24.3198 24.7719C24.4262 24.4526 24.4794 24.2984 24.5859 23.9791C24.82 23.3624 24.9264 23.0541 25.1606 22.4375C25.2351 22.2833 25.4693 21.8759 25.8631 21.2042C26.2569 20.5325 26.5017 19.9709 26.6294 19.6295C26.7784 19.2221 26.8742 18.8367 26.7997 18.5284C26.7464 18.3191 26.6507 18.143 26.5123 17.9888C26.3633 17.8346 26.1824 17.6805 25.9695 17.5153C25.7566 17.3501 25.597 17.24 25.5331 17.196C25.2245 16.9647 25.0116 16.7335 24.9052 16.7115C24.7987 16.6784 24.7136 16.6784 24.6497 16.6894C24.5433 16.7115 24.4262 16.7885 24.2878 16.8986C24.1495 17.0088 24.0324 17.0748 23.9579 17.0969C23.8408 17.1299 23.7876 17.1409 23.6812 17.1629C23.5854 17.262 23.5428 17.3171 23.447 17.4272C23.2448 17.5043 23.1384 17.5483 22.9362 17.6254C22.702 17.7686 22.5849 17.8346 22.3614 17.9778C22.2124 18.0108 21.9463 17.9447 21.5419 17.7575C21.4461 17.7025 21.4035 17.6695 21.3077 17.6144C21.2119 17.6144 21.1694 17.6254 21.0842 17.6364C20.9991 17.6364 20.9671 17.6364 20.882 17.6254C20.8288 17.6805 20.7968 17.7025 20.7436 17.7575C20.7011 17.8567 20.6798 17.9117 20.6372 18.0218C20.584 18.1319 20.5521 18.187 20.4988 18.2861C20.4988 18.3962 20.4988 18.4403 20.4988 18.5504C20.5627 18.7376 20.584 18.8257 20.6478 19.0129C20.7011 19.2441 20.7117 19.4533 20.6691 19.6405C20.6266 19.8277 20.6159 19.9489 20.6266 20.0149C20.6266 20.1581 20.6266 20.2352 20.6266 20.3783C20.5414 20.5765 20.4988 20.6756 20.4137 20.8628C20.2328 21.3253 20.1476 21.5565 19.9773 22.008C19.7751 22.4705 19.6793 22.7017 19.4771 23.1752C19.3281 23.5606 19.2536 23.7589 19.1046 24.1443C18.9556 24.4856 18.8811 24.6618 18.732 25.0142C18.5298 25.3665 18.434 25.5317 18.2318 25.8841C18.1147 26.0933 18.0615 26.1924 17.9444 26.4016C17.9019 26.4787 17.8806 26.5228 17.8274 26.5998C17.7954 26.765 17.7742 26.8531 17.7422 27.0183C17.6677 27.2165 17.6358 27.3486 17.6464 27.4147C17.6571 27.4587 17.7848 27.4918 17.8806 27.5468C17.9125 27.5689 17.9444 27.6569 17.9764 27.7671C18.0083 27.8772 18.0296 27.9432 18.0615 27.9653C18.1147 27.9983 18.2212 28.0203 18.3702 28.0424C18.466 28.0424 18.5085 28.0424 18.5937 28.0424C18.6575 27.9873 18.6895 27.9543 18.7533 27.8992C18.8066 27.8992 18.8278 27.8992 18.8811 27.8992C18.9023 27.9102 18.9343 27.8772 18.9662 27.7781C18.9981 27.679 19.0194 27.6239 19.0301 27.5909C19.2429 27.2495 19.3494 27.0843 19.5622 26.743C19.7112 26.4237 19.7857 26.2585 19.9454 25.9391C19.988 25.8621 20.0625 25.6859 20.1583 25.4216C20.254 25.1573 20.3392 24.9481 20.4137 24.816C20.5627 24.5517 20.6798 24.2874 20.7649 24.0231C20.9352 23.6487 21.0204 23.4615 21.18 23.0761C21.3929 22.6026 21.4993 22.3714 21.7122 21.9089C21.808 21.6667 21.8612 21.5455 21.957 21.3143C22.0847 20.9839 22.1485 20.8298 22.2869 20.4994C22.3401 20.3563 22.4678 20.2462 22.6701 20.1691C22.8829 20.081 23 20.048 23.2129 19.9599C23.3193 19.9599 23.3725 19.9599 23.479 19.9599C23.5641 19.9819 23.6067 19.9819 23.6918 20.0039C23.6599 20.092 23.6493 20.136 23.6173 20.2241C23.5428 20.4113 23.5109 20.5104 23.4364 20.6976C23.2661 20.9509 23.1703 21.083 23 21.3363C22.8829 21.5676 22.6914 22.0741 22.404 22.7898C22.3188 23.0101 22.2656 23.1532 22.2763 23.1862C22.3295 23.2964 22.3508 23.3404 22.404 23.4505C22.4253 23.5386 22.3827 23.6928 22.2869 23.913C22.1592 24.1443 22.0953 24.2654 21.9783 24.4966C21.9783 24.5407 21.925 24.6508 21.8399 24.816C21.7654 24.9811 21.7122 25.1133 21.6909 25.2014C21.6696 25.3115 21.6909 25.4987 21.7654 25.7519C21.8505 26.0272 21.8825 26.1594 21.9676 26.4237C22.1166 27.0073 22.3508 27.4477 22.6701 27.668C22.8829 27.8111 23.149 27.9102 23.4257 27.9653C23.7025 28.0313 23.9473 28.0313 24.1708 27.9653C24.8626 27.7891 25.448 27.4037 25.9376 26.9742C26.0866 26.8421 26.3846 26.5007 26.7997 25.9612C27.119 25.5537 27.4702 25.0032 27.864 24.3535C28.0236 24.882 28.2259 25.3115 28.4919 25.6088C28.9496 26.1153 29.4605 26.2915 30.0352 26.1594C30.3439 26.0823 30.61 25.9281 30.8441 25.763C31.0996 25.5758 31.3018 25.4326 31.3869 25.3005C31.4721 25.0802 31.504 24.9701 31.5891 24.7609C31.8872 24.1993 32.0468 23.924 32.3448 23.3624C32.6109 22.7898 32.7918 22.5035 32.8983 22.4815C32.9834 22.4595 33.0473 22.4925 33.1111 22.5806C33.175 22.6687 33.2282 22.7788 33.2601 22.911C33.3027 23.0431 33.324 23.1202 33.324 23.1422C33.3985 23.3955 33.5262 23.5937 33.6007 23.7038C33.9094 24.1553 34.2393 24.4746 34.548 24.5407C34.7183 24.5737 34.9311 24.5847 35.1546 24.5407C35.623 24.4306 36.187 24.0231 36.7618 23.3294C36.9214 23.1312 37.113 22.9 37.3152 22.6247C37.3152 22.7017 37.3259 22.7788 37.3365 22.8449C37.4004 23.1422 37.56 23.4946 37.7729 23.902C37.8474 24.0341 37.9964 24.1332 38.1561 24.2103C38.4328 24.3425 38.6137 24.4746 38.6563 24.4636C38.7202 24.4526 38.7734 24.4085 38.8266 24.3425C38.8798 24.2764 38.9224 24.1663 38.9649 24.0121C39.0075 23.858 39.0395 23.7699 39.0607 23.7478C39.1672 23.5496 39.3055 23.1532 39.4758 22.6137C39.6461 22.0741 39.7845 21.6997 39.8909 21.4795C40.1144 21.039 40.2209 20.8188 40.4444 20.3783C40.4763 20.3122 40.5189 20.2352 40.5934 20.1471C40.6679 20.07 40.7317 20.0149 40.7956 20.0039C40.9233 19.9819 41.0298 20.0369 41.1149 20.1691C41.2 20.4774 41.2426 20.6316 41.3278 20.9399C41.4236 21.1711 41.4661 21.2813 41.5619 21.5125C41.7322 21.8539 41.9238 22.1622 42.1473 22.4044C42.3921 22.6797 42.754 22.911 43.169 23.0982C43.5841 23.2854 43.9247 23.3514 44.1908 23.3074C44.8826 23.1642 45.5425 22.8449 46.1492 22.3384C46.5749 21.975 47.0645 21.3363 47.6605 20.5875C47.7669 20.4554 47.9798 20.081 48.3098 19.5304C48.3098 19.5414 48.3098 19.5634 48.3204 19.5855C48.331 19.8057 48.3417 19.9158 48.3523 20.136C48.4055 20.3783 48.4375 20.4884 48.4907 20.7307C48.5546 20.9619 48.7248 21.2042 49.0016 21.4574C49.2038 21.6556 49.4592 21.8098 49.7572 21.8869C50.0553 21.975 50.3213 21.997 50.5448 21.953C51.0557 21.8649 51.6198 21.5676 52.1839 21.083C52.7693 20.5655 53.4079 19.7947 54.121 18.7926C54.121 18.9358 54.121 19.0569 54.1423 19.156C54.2061 19.5745 54.3871 20.0369 54.6851 20.4334C54.9725 20.8078 55.2598 21.061 55.4514 21.1161C55.7388 21.2042 56.0687 21.2152 56.3774 21.1601C56.835 21.083 57.2927 20.8738 57.7078 20.5215C58.1122 20.1691 58.6763 19.4643 59.3788 18.4403C59.5065 18.2641 59.6129 18.1319 59.7087 17.9998C59.7087 18.0218 59.73 18.0439 59.7407 18.0549C59.7726 18.1099 59.8258 18.187 59.9109 18.2751C59.9961 18.3632 60.0387 18.4182 60.0493 18.4623C60.0493 18.5284 60.0493 18.5614 60.0493 18.6275C60.1025 18.7266 60.1238 18.7706 60.177 18.8697C60.2196 18.9798 60.2409 19.0349 60.2835 19.145C60.3367 19.2221 60.4431 19.2882 60.5921 19.3432C60.7518 19.3983 60.8369 19.4313 60.8582 19.4533C60.8795 19.4754 60.9114 19.5304 60.9433 19.6185C60.9753 19.7066 61.0178 19.7837 61.0498 19.8497C61.0924 19.9048 61.1456 19.9599 61.1775 19.9929C61.2307 20.0369 61.4968 20.0369 61.699 20.114C61.7203 20.114 61.8374 20.1691 62.029 20.2131C62.2205 20.2572 62.444 20.2682 62.6995 20.2352C63.1784 20.1691 63.6042 20.0259 63.9341 19.8057C63.9767 19.7837 64.147 19.6956 64.4556 19.5524C64.7643 19.4093 64.9878 19.2771 65.1155 19.156C65.19 19.0789 65.371 18.9138 65.669 18.6605C65.967 18.4072 66.2118 18.231 66.3821 18.1099C66.5524 17.9888 66.861 17.6254 67.2974 17.0528C67.2974 17.0418 67.3187 17.0308 67.3293 17.0198C67.3293 17.0308 67.3293 17.0418 67.3293 17.0528C67.2761 17.1519 67.2548 17.196 67.2016 17.2951C67.1484 17.4052 67.1484 17.6144 67.1803 17.9117C67.191 18.0108 67.2016 18.0659 67.2122 18.165C67.2761 18.5063 67.4251 18.7486 67.6806 18.9138C67.9253 19.0679 68.0531 19.145 68.2872 19.2882C68.3724 19.3212 68.4362 19.3212 68.4788 19.2882C68.6278 19.2661 68.7981 19.134 69.0003 18.8697C69.16 18.5944 69.2345 18.4513 69.3941 18.176C69.7134 17.6034 70.4584 16.4912 71.6718 14.8725C72.1401 14.2338 72.3742 13.9255 72.8532 13.2869C73.1299 12.9565 73.2683 12.7913 73.5344 12.472C73.5982 12.439 73.6302 12.428 73.6834 12.3949C73.7259 12.439 73.7472 12.461 73.7898 12.516C73.7685 12.6041 73.7685 12.6592 73.7472 12.7473C73.5769 13.1327 73.4811 13.3639 73.4599 13.441C73.4492 13.5181 73.4386 13.5732 73.4492 13.6172C73.5131 13.7604 73.545 13.8374 73.6089 13.9916C73.6195 14.1237 73.5237 14.2999 73.4918 14.421C73.4918 14.4321 73.4492 14.4981 73.3641 14.5752C73.2789 14.6633 73.2363 14.7294 73.2257 14.7844C73.2257 14.8395 73.2257 14.8725 73.2257 14.8945C73.247 15.0157 73.2683 15.0817 73.2896 15.2139C73.2896 15.302 73.2576 15.3901 73.1618 15.4892C73.0873 15.4231 73.0554 15.379 72.9809 15.313C72.9383 15.357 72.9064 15.3791 72.8638 15.4231C72.7893 15.5222 72.768 15.7204 72.8 16.0397C72.8213 16.271 72.8958 16.4692 72.9916 16.6344C73.2576 17.0858 73.396 17.3832 73.4279 17.4602C73.5131 17.6805 73.7259 17.8897 73.992 18.0439C74.3007 18.231 74.6413 18.2971 74.9925 18.2641C75.5992 18.198 76.3123 17.7906 77.1531 17.0748C77.3234 16.9317 77.5895 16.6564 77.9513 16.271C78.0471 16.1719 78.1535 16.0397 78.2706 15.8966C78.3558 16.3921 78.4941 16.8106 78.707 17.1189C79.0795 17.6805 79.5797 17.9447 80.1545 17.8897C80.4631 17.8567 80.7612 17.7465 81.0166 17.6254C81.2933 17.4823 81.5168 17.3721 81.6126 17.251C81.7191 17.0528 81.7829 16.9427 81.8893 16.7445C82.2619 16.238 82.4534 15.9847 82.8366 15.4782C83.1772 14.9606 83.4007 14.6963 83.5071 14.6853C83.5923 14.6853 83.6561 14.7184 83.7093 14.8175C83.7626 14.9056 83.7945 15.0267 83.8158 15.1588C83.8371 15.302 83.8477 15.3791 83.8477 15.4011C83.8903 15.6543 83.9861 15.8746 84.0499 15.9957C84.2947 16.4912 84.5714 16.8546 84.8695 16.9647C85.0398 17.0308 85.242 17.0638 85.4761 17.0528C85.9551 17.0198 86.5724 16.7004 87.2429 16.0948C87.7538 15.6323 88.5201 14.8835 89.1374 13.9806C89.18 13.9255 89.2971 13.7604 89.5099 13.5071C89.7228 13.2538 89.9037 13.0226 90.074 12.8023C90.2443 12.5821 90.3827 12.3619 90.4998 12.1637C90.6168 11.9655 90.7126 11.7783 90.7871 11.6021C90.8404 11.4699 90.8829 11.3378 90.8936 11.1947C90.9042 11.0515 90.9149 10.8863 90.9149 10.6771C90.9149 10.4679 90.9149 10.3247 90.9149 10.2477C90.9468 9.93934 90.9681 9.78518 91 9.46584" fill="white"/>
<path d="M67.2542 36.8737C67.1159 36.9397 66.9988 37.1489 66.8924 37.5013C66.8711 37.6335 66.8178 37.7766 66.7327 37.9087C66.6369 38.0409 66.5837 38.14 66.5518 38.195L65.6684 39.9679L65.1468 40.5956C65.0936 40.6726 65.0298 40.7938 64.9553 40.9589C64.8808 41.1241 64.8276 41.2342 64.7956 41.2893C64.4444 41.8839 64.0506 42.3684 63.6355 42.7538C63.5078 42.886 63.4014 42.963 63.2949 42.9851L63.1565 42.919L63.1885 42.7208L63.2736 41.983C63.2736 41.8068 63.3375 41.5315 63.4439 41.1682L63.9229 40.1551C64.1889 39.5385 64.4763 38.9548 64.7743 38.4263C64.8169 38.3272 64.8808 38.2391 64.9553 38.14C65.0298 38.0519 65.3491 37.6665 65.9025 36.9948C66.3389 36.4772 66.7221 36.1799 67.0733 36.1139C67.2117 36.0918 67.35 36.1139 67.4671 36.2019C67.5842 36.29 67.6587 36.3781 67.68 36.4882C67.7012 36.6314 67.5629 36.7745 67.2436 36.8957M46.3082 42.2913C46.4147 41.928 46.5637 41.6306 46.7872 41.4104C46.8936 41.3003 47.0107 41.1351 47.1384 40.9039C47.2661 40.6726 47.3513 40.5185 47.4045 40.4414C47.479 40.2983 47.5961 40.1441 47.7451 39.9789C47.8941 39.8247 48.0324 39.7256 48.1495 39.7036C48.1921 39.7036 48.224 39.7036 48.2666 39.7256C48.2985 39.7477 48.3198 39.7807 48.3305 39.8248C48.3411 39.9128 48.2985 40.1331 48.2027 40.5075C48.1176 40.8488 47.9899 41.2122 47.8302 41.5866C47.6919 41.8949 47.5003 42.1922 47.2342 42.4895C47.0852 42.6217 46.9255 42.7538 46.734 42.875C46.5424 42.9961 46.404 43.0732 46.2976 43.0842C46.2337 43.0952 46.1911 43.0622 46.1486 42.9851C46.1166 42.8199 46.1699 42.5776 46.3082 42.2693M72.6929 36.7305V35.9487C72.661 35.8606 72.6184 35.8055 72.5546 35.7725C72.4907 35.7835 72.4269 35.8936 72.3417 36.0918C72.2672 36.29 72.1927 36.4332 72.1501 36.5103L71.8734 37.0498L71.1497 38.2721C70.5536 39.2962 70.0321 40.1 69.5957 40.6616C69.5638 40.7167 69.4893 40.8268 69.3722 41.003C69.2552 41.1792 69.1381 41.3333 69.0104 41.4655C68.8826 41.5976 68.7656 41.6747 68.6378 41.6967C68.5314 41.7187 68.4463 41.6747 68.3824 41.5646C68.3079 41.4545 68.2653 41.3443 68.2441 41.2122L68.2121 41.058C68.2653 40.5515 68.574 39.7257 69.1274 38.5915C69.4042 38.0189 69.5745 37.5674 69.6383 37.248C69.798 36.7195 69.8725 36.3781 69.8831 36.235C69.8831 36.0918 69.8831 35.9927 69.8831 35.9267C69.8405 35.6734 69.5745 35.3981 69.1062 35.1008L68.095 34.5502L67.3819 34.2639L66.9136 33.9666L66.6901 33.9446L66.424 34.0327L66.2431 34.0987L65.8812 34.1978C65.679 34.2419 65.4661 34.352 65.2533 34.5502L65.1575 34.7044L65.2746 34.8145C65.2959 34.9246 65.2426 34.9797 65.1149 35.0127H64.636C64.5934 35.0127 64.5508 35.0567 64.5189 35.1228C64.4763 35.1999 64.455 35.2439 64.4337 35.266C64.4125 35.288 64.3805 35.321 64.306 35.3541C64.2422 35.3871 64.1996 35.4311 64.189 35.4752L63.9867 35.9046C63.9335 35.9817 63.8058 36.1139 63.6036 36.3231C63.4013 36.5213 63.2417 36.6975 63.1459 36.8516L62.5392 37.8867C62.486 37.9638 62.3902 38.14 62.2199 38.4263C62.0603 38.7126 61.9539 38.9218 61.89 39.065C61.8794 39.109 61.8687 39.1971 61.8687 39.3182C61.8687 39.3733 61.8687 39.4173 61.8581 39.4504C61.8581 39.4614 61.8368 39.4834 61.8261 39.4944C61.8261 39.4944 61.8155 39.4944 61.8049 39.5054L61.6665 39.4614L61.5281 39.5825L61.3366 40.2762L61.3153 40.3643C60.9427 40.992 60.6022 41.5536 60.2935 42.0161C59.8146 42.7428 59.4101 43.2383 59.0802 43.5246C58.8141 43.7779 58.5906 43.91 58.4309 43.9431C58.2713 43.9761 58.1755 43.91 58.1436 43.7339L58.1861 43.2714C58.2181 43.0952 58.2926 42.8419 58.4096 42.5116C58.5267 42.1812 58.6012 41.983 58.6332 41.917L58.8992 40.9149L59.4101 39.7367L60.07 37.9748C60.219 37.5123 60.2829 37.204 60.2509 37.0608C60.2403 36.9728 60.1977 36.8737 60.1339 36.7525C60.07 36.6314 60.0168 36.5433 59.9636 36.4882C59.8146 36.3671 59.6123 36.235 59.3463 36.1028C59.0802 35.9707 58.8673 35.9156 58.7077 35.9487L58.5374 36.0478C58.4842 36.0808 58.4203 36.1359 58.3458 36.2019C58.2713 36.268 58.2287 36.3121 58.2181 36.3451L57.8456 36.5433C57.654 36.6644 57.4624 36.8516 57.2495 37.1159L56.1 38.6135C55.6424 39.2301 55.2912 39.7587 55.0357 40.2212L54.5355 41.1021C54.3652 41.3554 54.2588 41.4875 54.1949 41.4985L54.1098 41.3884C54.0991 41.3003 54.1736 41.025 54.3439 40.5625L54.6632 39.6816C54.6845 39.5935 54.7696 39.3843 54.8974 39.065C55.0251 38.7456 55.1209 38.5034 55.1634 38.3272C55.206 38.151 55.2379 38.0078 55.2592 37.8647L55.2379 37.5784C55.1847 37.2591 54.8867 36.9728 54.3546 36.7085C54.131 36.6204 53.9607 36.5874 53.865 36.6094C53.7479 36.6314 53.6415 36.6975 53.5563 36.7966C53.5031 36.8516 53.4073 37.0388 53.2796 37.3692C53.2583 37.4793 53.1944 37.5564 53.0986 37.6004C52.9922 37.6885 52.9071 37.7766 52.8645 37.8757C52.8326 37.9418 52.8219 38.0739 52.8326 38.2391C52.8326 38.4153 52.8326 38.5364 52.8006 38.6025C52.7048 38.8998 52.5984 39.1751 52.4707 39.4173C52.3749 39.5715 52.3323 39.6706 52.343 39.7367L52.4068 39.8908C52.4068 39.9349 52.3323 40.034 52.1514 40.1991C52.1301 40.2212 52.1088 40.3423 52.0875 40.5405C52.0875 40.5735 52.0769 40.6176 52.0556 40.6726L51.7576 41.1571L51.0126 42.2473L50.2675 43.3705C50.0972 43.6237 49.7886 44.0091 49.3416 44.5267C48.7668 45.1874 48.1389 45.771 47.4471 46.2996C47.4258 46.2996 47.2661 46.4207 46.9681 46.6409C46.6701 46.8611 46.3614 47.0043 46.0315 47.0704C45.7016 47.1364 45.4568 47.0704 45.2971 46.8501C45.1694 46.696 45.0842 46.5308 45.0523 46.3436C45.0097 46.0903 45.0097 45.782 45.0736 45.4296C45.1055 45.2535 45.1694 45.0442 45.2652 44.824C45.361 44.6038 45.4674 44.4716 45.5951 44.4496C45.659 44.4386 45.7548 44.4496 45.8931 44.5047C46.0315 44.5597 46.1166 44.5817 46.1592 44.6038C46.4253 44.6809 46.6169 44.7139 46.7446 44.6919C46.9894 44.6478 47.3726 44.4276 47.8941 44.0422C48.82 43.3374 49.4267 42.6988 49.7247 42.1152C49.9269 41.7077 50.0759 41.2563 50.193 40.7717C50.2995 40.2762 50.3314 39.8468 50.2569 39.4724C50.225 39.3072 50.1292 39.065 49.9589 38.7676C49.7886 38.4593 49.6821 38.2941 49.6289 38.2611C49.3735 38.0078 49.1287 37.8537 48.8839 37.7986C48.6391 37.7436 48.4795 37.7215 48.3943 37.7105H47.8302C47.7131 37.7436 47.5641 37.7986 47.4045 37.8867C47.2448 37.9748 47.1171 38.0519 47.0213 38.14C46.8085 38.3382 46.6488 38.4483 46.553 38.4924C46.5317 38.4924 46.4466 38.5144 46.2976 38.5584C46.1486 38.6025 46.0421 38.6465 45.9889 38.7016L45.6271 39.1641L45.3716 39.6706L44.9033 40.2212L44.5414 40.8158L43.839 42.1592L43.3068 43.5687C43.1046 44.0642 42.9556 44.8791 42.8598 46.0022L42.8917 46.1894L43.0194 46.718L43.0407 47.1695C43.0407 47.1915 43.0407 47.2135 43.0514 47.2355C43.0514 47.2576 43.1365 47.3236 43.2749 47.4558L43.4133 47.72C43.4133 47.7421 43.4345 47.8191 43.4665 47.9513C43.4984 48.0834 43.541 48.1715 43.5942 48.2046L44.0199 48.4468L44.3179 48.8432C44.4669 48.9423 44.6372 49.0304 44.8394 49.0855C45.0417 49.1405 45.2013 49.1846 45.329 49.2066C45.6483 49.2286 45.9783 49.2066 46.3295 49.1405C46.8617 49.0414 47.3513 48.8212 47.8196 48.4909C48.6391 47.9183 49.3096 47.3236 49.8312 46.696L50.3846 45.9582L50.342 46.0463C50.2995 46.1674 50.3101 46.3656 50.3633 46.6629L50.4059 46.9162C50.491 47.2465 50.6613 47.4888 50.9168 47.6319L51.5447 47.9733C51.6299 47.9953 51.6937 47.9953 51.7363 47.9733C51.8747 47.9403 52.045 47.7971 52.2259 47.5218L52.5665 46.8061C52.8326 46.2115 53.5031 45.0552 54.5674 43.3485L55.5892 41.6747L56.1852 40.8048L56.3236 40.7167L56.4406 40.8268L56.4193 41.058C56.281 41.4545 56.2065 41.6967 56.1958 41.7738C56.1958 41.8509 56.1958 41.9059 56.1958 41.95L56.3874 42.3024C56.4087 42.4235 56.3874 42.5776 56.3129 42.7428C56.3129 42.7648 56.281 42.8199 56.2065 42.908C56.132 42.9961 56.0894 43.0732 56.0894 43.1282C56.0894 43.1833 56.0894 43.2163 56.0894 43.2383L56.1746 43.5467C56.1852 43.6348 56.1533 43.7228 56.0681 43.833L55.8765 43.6678L55.7701 43.7889C55.7063 43.888 55.6956 44.0972 55.7595 44.4166C55.802 44.6478 55.8765 44.835 55.9936 44.9892C56.281 45.4296 56.4513 45.6939 56.4832 45.782C56.6109 46.0022 56.8025 46.1784 57.0899 46.3216C57.4092 46.4757 57.7498 46.5198 58.0903 46.4537C58.6757 46.3436 59.3569 45.8811 60.1126 45.0773C60.2722 44.9121 60.5064 44.6258 60.8257 44.2074C60.9108 44.0972 60.996 43.9651 61.1024 43.7999C61.2301 44.2844 61.4111 44.6809 61.6452 44.9782C62.0816 45.5067 62.5818 45.7159 63.1459 45.6058C63.4546 45.5508 63.7207 45.4296 63.9654 45.2535C64.2528 45.0883 64.4337 44.9451 64.5189 44.824L64.7424 44.2954L65.5407 42.93C65.8174 42.3794 66.009 42.0931 66.1154 42.0711C66.2005 42.0601 66.2644 42.0931 66.3283 42.1812C66.3815 42.2693 66.4347 42.3794 66.4666 42.5116C66.4985 42.6437 66.5198 42.7208 66.5198 42.7428C66.605 43.0071 66.7008 43.1943 66.7859 43.3154C67.0626 43.8219 67.3713 44.1193 67.7012 44.1853C67.8822 44.2404 68.0844 44.2404 68.3079 44.1963C68.7762 44.1083 69.319 43.7228 69.9257 43.0291C70.3727 42.4895 70.9049 41.7077 71.5222 40.6947C71.5541 40.6286 71.6499 40.4524 71.8202 40.1771C71.9905 39.9018 72.1501 39.6486 72.2779 39.4063C72.4162 39.1641 72.5227 38.9328 72.6078 38.7236C72.6929 38.5144 72.7674 38.3162 72.8207 38.129C72.8632 37.9858 72.8739 37.8537 72.8739 37.7105C72.8739 37.5674 72.8526 37.4022 72.8313 37.193C72.81 36.9948 72.7887 36.8516 72.7675 36.7635" fill="white"/>
</g>
<defs>
<filter id="filter0_d_14545_372704" x="0" y="0" width="93" height="55" filterUnits="userSpaceOnUse" color-interpolation-filters="sRGB">
<feFlood flood-opacity="0" result="BackgroundImageFix"/>
<feColorMatrix in="SourceAlpha" type="matrix" values="0 0 0 0 0 0 0 0 0 0 0 0 0 0 0 0 0 0 127 0" result="hardAlpha"/>
<feOffset/>
<feGaussianBlur stdDeviation="1"/>
<feComposite in2="hardAlpha" operator="out"/>
<feColorMatrix type="matrix" values="0 0 0 0 0 0 0 0 0 0 0 0 0 0 0 0 0 0 0.2 0"/>
<feBlend mode="normal" in2="BackgroundImageFix" result="effect1_dropShadow_14545_372704"/>
<feBlend mode="normal" in="SourceGraphic" in2="effect1_dropShadow_14545_372704" result="shape"/>
</filter>
</defs>
</svg>
