<?xml version="1.0" encoding="UTF-8"?>
<svg viewBox="0 0 220 60" xmlns="http://www.w3.org/2000/svg">
<path d="m2.55 43h6.65v-13.85c0-2.45 0.05-3.45 0.65-4.2 0.6-0.7 1.5-0.9 2.7-0.9h1.9c1.2 0 2.05 0.2 2.65 0.85 0.6 0.75 0.7 1.75 0.7 4.25v13.85h6.6v-15.6c0-3-0.6-5.05-2.05-6.45-1.45-1.45-3.8-2.3-7.6-2.3h-2.55c-3.9 0-6.15 0.9-7.55 2.3-1.45 1.4-2.1 3.45-2.1 6.45v15.6zm36.806 0.3h0.95c4.05 0 6.35-0.8 7.9-2.3 2.3-2.15 2.85-5.55 2.85-9.95v-0.25c0-4.15-0.5-7.45-2.6-9.6-1.55-1.65-3.95-2.55-8.15-2.55h-0.95c-4.65 0-7.15 1.05-8.7 3.05-1.65 2.2-2.05 5.35-2.05 9.1v0.25c0 4.1 0.45 7.45 2.5 9.65 1.55 1.7 3.95 2.6 8.25 2.6zm-0.1-5.4c-1.7 0-2.65-0.5-3.2-1.45-0.45-0.95-0.65-2.75-0.65-5.25v-0.45c0-2.3 0.15-4.05 0.65-5.1 0.6-1.3 1.9-1.6 3.2-1.6h1.2c1.65 0 2.6 0.45 3.15 1.45 0.45 0.95 0.65 2.7 0.65 5.25v0.45c0 2.5-0.2 4.3-0.65 5.25-0.55 0.95-1.5 1.45-3.2 1.45h-1.15zm23.418 5.1h4.7l2.55-4.1c1.05-1.7 1.85-3.1 2.45-4.5 1.95-3.6 3-5.7 3.45-10.15 0.15-1.45 0.2-2.9 0.2-5.2h-6.65c-0.1 4.9-0.15 7.75-1.35 11.1-0.65 1.7-1.5 3.4-3 5.95h-0.05c-1.7-2.9-2.4-4.45-2.95-5.95-1.3-3.6-1.3-6.6-1.35-11.1h-6.65c0 2.25 0.05 3.7 0.2 5.15 0.45 4.4 1.5 6.55 3.45 10.2 0.55 1.3 1.25 2.55 2.15 4.1l2.85 4.5zm34.99-22.4c-1.45-1.3-3.6-1.95-6.7-1.95h-2.6c-4.2 0-5.95 0.45-8.45 2.2l2.6 4.55c1.45-0.95 2.6-1.35 5.75-1.35h1.8c1.3 0 2.15 0.15 2.7 0.65 0.5 0.45 0.65 1.3 0.65 2.65v0.45h-3.1c-5.35 0-7.95 0.55-9.85 2.4-1.3 1.2-2 2.95-2 5.45 0 2.75 0.85 4.6 2.3 5.8 1.65 1.3 4 1.85 6.75 1.85h3.35c3.2 0 5.45-0.45 6.85-1.55 1.65-1.3 2.3503-3.45 2.3503-6.85v-7.35c0-3.5-0.7503-5.5-2.4003-6.95zm-4.75 16.8c-0.45 0.5-1.3 0.6-2.65 0.6h-1.95c-1.15 0-2.05-0.25-2.6-0.7-0.45-0.45-0.7-1.1-0.7-2s0.2-1.5 0.7-1.95c0.65-0.6 1.75-0.75 3.8-0.75h3.9v2.7c0 1.05-0.15 1.7-0.5 2.1z" fill="#fff" opacity=".7"/>
<path d="m115.55 43.3h1.85c4.4 0 6.5-0.7 7.9-2 1.4-1.4 2-3.3 2-5.4v-0.8c0-1.95-0.1-3.7-1.85-4.95-1.1-0.85-2.5-1.15-3.95-1.4l-6.2-1.15c-0.5-0.05-0.8-0.25-1.05-0.5-0.2-0.3-0.35-0.65-0.35-1.2 0-0.8 0.3-1.15 0.6-1.4 0.45-0.3 0.9-0.45 2.95-0.45h1.65c1.8 0 3 0.4 4.15 1.5l3.6-4.25c-2.05-1.85-4.3-2.65-7.6-2.65h-2.4c-2.85 0-5.5 0.5-7.15 2-1.15 1.05-1.95 2.55-1.95 4.65v1.1c0 1.55 0.15 3.1 1.1 4.2 0.75 0.9 2.1 1.6 3.9 1.95l6.7 1.2c0.65 0.1 1.05 0.3 1.3 0.55 0.2 0.25 0.25 0.65 0.25 1.3 0 0.9-0.1 1.4-0.5 1.75-0.55 0.5-1.5 0.55-3.45 0.55h-1.1c-2.45 0-4.2-0.4-5.95-2.1l-3.45 4.1c2.75 2.95 4.55 3.4 9 3.4zm15.585 10.2h6.55v-10.8h0.05c0.95 0.45 2.2 0.6 4 0.6h1.2c3.6 0 6-0.7 7.6-2.3 2.1-1.85 2.9-5.1 2.9-9.8v-0.3c0-4.6-0.65-8.25-3.15-10.25-1.85-1.45-4.35-2-7.55-2h-0.95c-4.15 0-6.15 0.4-7.8 1.55-2.4 1.6-2.85 4.3-2.85 9.75v23.55zm10.55-15.6c-1.7 0-2.95-0.1-3.5-1.15-0.45-0.8-0.4-2.35-0.4-4v-4.3c0-1.6 0.05-2.5 0.45-3.15 0.45-0.9 1.5-1.2 3.5-1.2h1c1.6 0 2.5 0.4 3 1.15 0.65 0.85 0.85 2.4 0.85 5.3v0.6c0 3.25-0.2 4.7-0.85 5.6-0.5 0.7-1.5 1.15-2.95 1.15h-1.1zm26.889 5.4h0.95c4.05 0 6.35-0.8 7.9-2.3 2.3-2.15 2.85-5.55 2.85-9.95v-0.25c0-4.15-0.5-7.45-2.6-9.6-1.55-1.65-3.95-2.55-8.15-2.55h-0.95c-4.65 0-7.15 1.05-8.7 3.05-1.65 2.2-2.05 5.35-2.05 9.1v0.25c0 4.1 0.45 7.45 2.5 9.65 1.55 1.7 3.95 2.6 8.25 2.6zm-0.1-5.4c-1.7 0-2.65-0.5-3.2-1.45-0.45-0.95-0.65-2.75-0.65-5.25v-0.45c0-2.3 0.15-4.05 0.65-5.1 0.6-1.3 1.9-1.6 3.2-1.6h1.2c1.65 0 2.6 0.45 3.15 1.45 0.45 0.95 0.65 2.7 0.65 5.25v0.45c0 2.5-0.2 4.3-0.65 5.25-0.55 0.95-1.5 1.45-3.2 1.45h-1.15zm16.178 5.1h6.65v-13.9c0-2.95 0.1-3.55 0.55-4.15 0.4-0.55 1-0.9 2.35-0.9h3.8v-5.4h-4.35c-3.15 0-5.1 0.55-6.6 1.8-1.65 1.4-2.4 3.65-2.4 6.8v15.75zm29.559-5.5c-1.2 0-1.85-0.35-2.15-0.85-0.4-0.6-0.5-1.35-0.5-4.25v-7.95h5.9v-5.4h-5.9v-8.5h-6.65v8.5h-3.95v5.4h3.95v10c0 3.4 0.5 5.3 1.85 6.65 1.3 1.25 3.1 1.9 6.2 1.9h5.1v-5.5h-3.85z" fill="#fff"/>
</svg>
