<svg xmlns="http://www.w3.org/2000/svg" width="89" height="49" viewBox="0 0 89 49">
  <title>
    wiener
  </title>
  <g fill="none" fill-rule="evenodd">
    <path fill="#010101" d="M16.027 10.86h2.096v10.665h-2.096V10.86zm46.266 10.664l-2.4-4.598c1.042-.374 1.96-1.303 1.96-2.802 0-1.782-1.296-3.265-3.482-3.265h-4.206v10.663h2.096V17.27h1.508l2.095 4.254h2.43zm-2.534-7.4c0 .825-.606 1.41-1.525 1.41H56.26v-2.817h1.976c.92 0 1.523.583 1.523 1.407zM13.197 10.86H11.01l-1.674 6.726-1.96-6.727h-1.57l-1.96 6.725-1.66-6.727H0l2.866 10.664h1.75l1.975-6.47 1.978 6.47h1.75l2.88-10.662zm15.6 10.664v-1.857H23.82v-2.592h4.24v-1.857h-4.24v-2.5h4.978v-1.86h-7.074v10.666h7.074zm11.582 0V10.86h-2.098v6.53l-4.252-6.53h-1.87v10.664h2.096v-6.546l4.254 6.546h1.87zm10.632 0v-1.857h-4.978v-2.592h4.24v-1.857h-4.24v-2.5h4.978v-1.86h-7.074v10.666h7.074zm7.91 11.32h-2.627l1.336-3.904 1.294 3.904zm3.326 3.664l-3.86-10.735H56.77l-3.844 10.735h2.152l.638-1.9h3.756l.623 1.9h2.153zm-44.75-3.155c0-.948-.25-1.73-.81-2.27-.44-.422-1.045-.692-2-.828l-1.237-.182c-.424-.06-.763-.225-.97-.42-.22-.21-.31-.495-.31-.767 0-.736.53-1.353 1.62-1.353.69 0 1.487.09 2.148.737l1.295-1.31c-.897-.886-1.942-1.247-3.383-1.247-2.268 0-3.65 1.338-3.65 3.25 0 .9.25 1.593.75 2.104.47.466 1.133.753 2.03.888l1.266.18c.485.075.72.18.926.377.22.21.324.525.324.902 0 .857-.647 1.322-1.854 1.322-.97 0-1.867-.225-2.53-.9l-1.324 1.35c1.03 1.07 2.236 1.416 3.825 1.416 2.192 0 3.884-1.174 3.884-3.25zm2.174-7.52h2.03v10.674h-2.03V25.832zm32.476 10.675l-2.338-4.603c1.015-.374 1.91-1.304 1.91-2.803 0-1.784-1.264-3.27-3.395-3.27h-4.103V36.51h2.044v-4.26h1.47l2.044 4.258h2.368zm-2.47-7.406c0 .825-.59 1.41-1.485 1.41h-1.927v-2.82h1.927c.896 0 1.485.585 1.485 1.41zm22.04 7.406V25.833h-2.05v6.537l-4.154-6.537h-1.827v10.675h2.048v-6.55l4.157 6.55h1.826zm16.762-.003v-1.86h-4.876v-2.593h4.152v-1.86h-4.152V27.69h4.877v-1.86h-6.93v10.675h6.93zm-81.088-9.65c-.738-.735-1.686-1.142-2.83-1.142-1.144 0-2.077.407-2.813 1.143C.693 27.91.71 29.096.71 31.158c0 2.06-.015 3.248 1.04 4.3.735.738 1.668 1.144 2.81 1.144 1.146 0 2.094-.406 2.832-1.143 1.053-1.055 1.022-2.24 1.022-4.303 0-2.06.03-3.248-1.022-4.302zM3.25 34.153c-.437-.517-.526-1.06-.526-3.005 0-1.945.09-2.49.526-3.006.313-.365.8-.597 1.327-.597.527 0 1.014.232 1.328.6.438.516.525 1.06.525 3.005 0 1.944-.087 2.488-.525 3.005-.314.367-.8.6-1.328.6-.526 0-1.014-.232-1.327-.6zm28.588-3.624h-3.976v1.76h1.945c-.017 1.52-.212 1.5-.517 1.9-.267.347-.798.51-1.34.542-.53.033-1.063-.176-1.38-.543-.444-.517-.507-1.096-.507-3.04 0-1.945.09-2.49.534-3.006.317-.365.797-.58 1.33-.58.536 0 1.046.214 1.364.58.228.265.36.536.44.994h2.06c-.09-.925-.36-1.606-.99-2.277-.716-.767-1.71-1.143-2.87-1.143-1.16 0-2.108.407-2.856 1.143-1.07 1.054-1.055 2.24-1.055 4.302 0 2.06-.016 3.247 1.054 4.3.748.737 1.694 1.143 2.855 1.143 1.16 0 2.132-.396 2.87-1.143.708-.715 1.007-1.776 1.033-3.172h.006v-1.76h-.002zm9.862.662h-.002v-5.36h-2.026v5.345c0 2.14-.036 2.492-.5 2.997-.327.355-.834.587-1.363.587-.53 0-1.02-.23-1.335-.595-.44-.514-.477-.725-.472-2.992V25.83h-2.028v5.44c0 2.434.034 3.157 1.02 4.18.723.75 1.65 1.15 2.797 1.15 1.15 0 2.122-.395 2.863-1.13 1.058-1.045 1.09-2.183 1.044-4.282v.002zm37.33 0v-5.36h-2.027v5.345c0 2.14.023 2.604-.44 3.11-.327.354-.79.472-1.32.472-.528 0-.84-.277-1.245-.613L72.652 35.5c.862.75 1.418 1.067 2.52 1.067 1.53 0 2.187-.353 2.928-1.087 1.058-1.046.978-2.195.93-4.294v.004zM2.508 48.827h-.583L.3 44.122h.777l1.14 3.423 1.137-3.423h.792l-1.638 4.705zm2.34-4.705h.75v4.705h-.75v-4.705zm2.062 4.705v-4.705h3.157v.64h-2.41v1.375h2.056v.634H7.658v1.417h2.41v.64H6.91zm7.24 0l-2.285-3.31v3.31h-.75v-4.705h.687l2.284 3.304v-3.304h.75v4.705h-.686zm5.03 0l-2.282-3.31v3.31h-.75v-4.705h.687l2.284 3.304v-3.304h.747v4.705h-.687zm4.84 0l-.34-.945h-1.95l-.34.945h-.8l1.812-4.705h.604l1.812 4.705h-.798zm-1.298-3.64l-.77 2.087h1.52l-.75-2.088zm4.505-1.065h.75v4.705h-.75v-4.705zm5.095 4.705l-2.284-3.31v3.31h-.75v-4.705h.688l2.284 3.304v-3.304h.75v4.705h-.688zm3.31.04c-.742 0-1.276-.166-1.75-.62l.5-.47c.363.342.758.45 1.265.45.646 0 1.02-.266 1.02-.72 0-.207-.062-.38-.194-.49-.125-.113-.25-.16-.542-.2l-.58-.08c-.403-.05-.722-.184-.937-.375-.243-.218-.36-.515-.36-.898 0-.82.623-1.38 1.65-1.38.653 0 1.11.157 1.534.534l-.48.45c-.304-.278-.658-.364-1.075-.364-.58 0-.9.317-.9.733 0 .172.055.324.187.436.123.106.325.185.554.218l.563.08c.457.068.714.174.923.35.27.226.402.563.402.966 0 .866-.743 1.38-1.777 1.38h-.002zm4.498 0c-1.005 0-1.768-.655-1.768-1.626v-3.117h.75v3.086c0 .626.4 1.016 1.02 1.016.617 0 1.027-.39 1.027-1.017v-3.087h.747v3.12c0 .97-.77 1.624-1.777 1.624zm5.742-.04l-1.042-1.983h-.937v1.983h-.75v-4.705h1.917c.937 0 1.534.575 1.534 1.374 0 .675-.43 1.104-.986 1.25l1.14 2.08h-.876zm-.868-4.064h-1.11v1.474h1.11c.5 0 .84-.27.84-.734 0-.462-.34-.74-.84-.74zm5.546 4.064l-.34-.945h-1.95l-.34.945h-.798l1.812-4.705h.603l1.812 4.705h-.8zm-1.298-3.64l-.77 2.087h1.52l-.75-2.088zm5.853 3.64l-2.284-3.31v3.31h-.747v-4.705h.687l2.282 3.304v-3.304h.75v4.705h-.687zm3.595.04c-.513 0-.957-.18-1.297-.503-.486-.463-.48-.984-.48-1.89 0-.905-.006-1.427.48-1.89.34-.323.784-.502 1.297-.502.62 0 1.014.212 1.382.556l-.5.482c-.257-.245-.472-.397-.882-.397-.29 0-.555.106-.728.285-.243.25-.292.52-.292 1.466 0 .945.05 1.216.292 1.467.173.18.437.286.728.286.41 0 .625-.152.882-.396l.5.48c-.37.345-.763.556-1.382.556zm2.41-.04v-4.705h3.158v.64h-2.41v1.375h2.056v.634H61.86v1.417h2.408v.64H61.11zm8.836-.503c-.347.35-.806.542-1.346.542-.514 0-.96-.18-1.3-.502-.485-.463-.477-.984-.477-1.89 0-.905-.008-1.427.478-1.89.34-.323.773-.502 1.3-.502.674 0 1.05.198 1.493.622l-.507.482c-.312-.297-.54-.463-.985-.463-.29 0-.562.113-.735.292-.243.25-.292.515-.292 1.46 0 .944.05 1.215.292 1.466.173.18.444.286.736.286.327 0 .598-.118.79-.33.18-.192.245-.456.245-.747v-.258H68.6v-.607h1.784v.707c0 .607-.112 1.004-.438 1.334v-.002zm4.254.503l-1.04-1.983h-.937v1.983h-.75v-4.705h1.916c.935 0 1.532.575 1.532 1.374 0 .675-.43 1.104-.986 1.25l1.14 2.08H74.2zm-.867-4.064h-1.11v1.474h1.11c.5 0 .84-.27.84-.734 0-.462-.34-.74-.84-.74zm5.61 3.6c-.34.324-.778.503-1.306.503s-.958-.18-1.297-.502c-.487-.463-.48-.984-.48-1.89 0-.905-.007-1.427.48-1.89.34-.323.77-.502 1.297-.502.528 0 .965.18 1.305.502.486.463.472.985.472 1.89 0 .906.014 1.427-.472 1.89zm-.57-3.35c-.174-.177-.444-.29-.736-.29-.29 0-.562.113-.736.29-.24.253-.29.517-.29 1.46 0 .946.05 1.21.29 1.46.176.18.447.29.738.29.292 0 .562-.11.736-.29.243-.25.292-.514.292-1.46 0-.943-.05-1.207-.292-1.46h-.002zm3.867 3.853c-1.007 0-1.77-.654-1.77-1.625v-3.117h.75v3.086c0 .626.402 1.016 1.02 1.016s1.027-.39 1.027-1.017v-3.087h.75v3.12c0 .97-.77 1.624-1.777 1.624zm4.887-1.89h-1.125v1.85h-.75v-4.704h1.875c.965 0 1.582.608 1.582 1.427 0 .82-.62 1.426-1.584 1.426zm-.043-2.214H86v1.566h1.084c.52 0 .874-.285.874-.78 0-.496-.354-.787-.875-.787v.002z"/>
    <path fill="#FFF" d="M73.582.193h7.45v7.4h-7.45"/>
    <path fill="#ED1C24" d="M.283 39.54H88.72v1.34H.283M73.582 7.592h7.45v7.4h-7.45"/>
    <path fill="#ED1C24" d="M66.132.193h7.45v7.4h-7.45v-7.4zm14.898 0h7.45v7.4h-7.45v-7.4z"/>
    <path fill="#FFF" d="M73.582 14.99V7.592h-7.45v3.763c0 1.328.177 2.54.497 3.634h6.952zm0 6.964c.65.2 1.324.344 2.013.435h3.442c.683-.09 1.35-.235 1.994-.43v-6.97h-7.447v6.963z"/>
    <path fill="#FFF" d="M81.03 14.99h6.956c.32-1.096.495-2.307.495-3.634V7.59h-7.45v7.4z"/>
    <path fill="#ED1C24" d="M87.986 14.99H81.03v6.97c3.245-.993 5.898-3.34 6.956-6.97zm-14.404 6.964V14.99H66.63c1.058 3.622 3.712 5.97 6.952 6.964z"/>
    <path fill="#ED1C24" d="M77.316 22.695c-3.07 0-5.888-1.023-7.93-2.88-2.256-2.048-3.448-4.973-3.448-8.46V0h22.737v11.356c0 3.487-1.19 6.412-3.437 8.46-2.04 1.856-4.852 2.88-7.922 2.88zM66.326.385v10.97c0 7.567 5.52 10.954 10.99 10.954 5.46 0 10.97-3.39 10.97-10.955V.385h-21.96z"/>
  </g>
</svg>
