<?xml version="1.0" encoding="utf-8"?>
<!DOCTYPE svg PUBLIC "-//W3C//DTD SVG 1.1//EN" "http://www.w3.org/Graphics/SVG/1.1/DTD/svg11.dtd">
<svg xmlns="http://www.w3.org/2000/svg" xml:space="preserve" width="48" height="48">
  <radialGradient id="a" cx="-333.0796" cy="-17.6035" r="9.6875" gradientTransform="matrix(2.1829 0 0 -.7675 751.3722 27.8712)" gradientUnits="userSpaceOnUse">
    <stop offset="0"/>
    <stop offset="1" stop-opacity="0"/>
  </radialGradient>
  <path fill="url(#a)" d="M45.436 41.383c0 4.105-9.469 7.436-21.147 7.436-11.679 0-21.147-3.33-21.147-7.436 0-4.107 9.468-7.436 21.147-7.436 11.678 0 21.147 3.328 21.147 7.436z" opacity=".4091"/>
  <path fill="#F57900" stroke="#914900" stroke-linecap="round" stroke-linejoin="round" stroke-width=".9821" d="M45.088 21.404c0 11.482-9.308 20.79-20.79 20.79S3.507 32.886 3.507 21.404h0c0-11.482 9.308-20.79 20.791-20.79 11.482 0 20.79 9.308 20.79 20.79h0z"/>
  <path fill="none" stroke="#FCAF3E" stroke-linecap="round" stroke-linejoin="round" stroke-width=".9821" d="M44.555 21.313c0 11.111-9.006 20.117-20.117 20.117S4.32 32.424 4.32 21.313h0c0-11.111 9.007-20.118 20.118-20.118 11.111 0 20.117 9.007 20.117 20.118h0z"/>
  <path fill="#FFFEFF" fill-opacity=".2139" d="M43.676 20.477c0 10.831-6.052-4.306-18.674.387-12.723 4.729-20.567 10.444-20.567-.387C4.435 9.646 13.225.856 24.056.856s19.62 8.79 19.62 19.621z"/>
  <path fill="#FFF" d="M29.159 7.772c5.433 0 9.843 4.41 9.843 9.843 0 5.434-4.41 9.842-9.843 9.842-2.323 0-4.373-.924-6.057-2.271.137.672.052 1.359-.505 1.844l-7.318 6.359c-.824.715-2.062.621-2.777-.203-.714-.822-.621-2.061.203-2.775l7.318-6.36c.448-.389.996-.505 1.539-.43-1.326-1.676-2.246-3.703-2.246-6.006 0-5.433 4.411-9.843 9.843-9.843zm.051 2.12c-4.18 0-7.571 3.393-7.571 7.571s3.392 7.572 7.571 7.572 7.571-3.393 7.571-7.572-3.392-7.571-7.571-7.571z"/>
  <radialGradient id="b" cx="-301.8413" cy="246.6074" r="6.6561" gradientTransform="matrix(1.7253 0 0 -1.4985 546.5916 394.7777)" gradientUnits="userSpaceOnUse">
    <stop offset="0" stop-color="#fff"/>
    <stop offset="1" stop-color="#fff" stop-opacity=".2476"/>
  </radialGradient>
  <path fill="url(#b)" d="M29.456 10.644c3.465 0 6.271 2.807 6.271 6.271 0 1-.279 1.921-.696 2.761-.833.308-1.719.517-2.658.517-4.106 0-7.386-3.235-7.639-7.277 1.151-1.362 2.801-2.272 4.722-2.272z" opacity=".8342"/>
</svg>