<svg width="32" height="46" viewBox="0 0 32 46" fill="none" xmlns="http://www.w3.org/2000/svg">
<path fill-rule="evenodd" clip-rule="evenodd" d="M30.6592 0.454453C30.7313 0.415522 30.8034 0.376713 30.8756 0.338024L31.5992 1.66182C31.5285 1.69968 31.4579 1.73766 31.3874 1.77576C31.0251 1.97152 30.5684 1.83443 30.3673 1.46956C30.1662 1.10469 30.2969 0.650214 30.6592 0.454453ZM27.4701 3.17967C27.6991 3.52803 27.6046 3.99188 27.2592 4.21569C27.1252 4.30251 26.9917 4.38988 26.8586 4.47781C26.5152 4.70465 26.0489 4.60774 25.8169 4.26134C25.585 3.91494 25.6754 3.45023 26.0188 3.22339C26.1555 3.13305 26.2927 3.0433 26.4303 2.95414C26.7757 2.73033 27.2412 2.8313 27.4701 3.17967ZM23.1014 6.24336C23.3651 6.56646 23.3198 7.03831 23.0002 7.29725C22.8766 7.3974 22.7535 7.49818 22.631 7.59962C22.3141 7.86191 21.8408 7.8148 21.5738 7.49439C21.3068 7.17399 21.3472 6.70163 21.664 6.43934C21.7906 6.33459 21.9177 6.23054 22.0453 6.12717C22.3649 5.86823 22.8377 5.92025 23.1014 6.24336ZM19.1063 9.77545C19.4067 10.0649 19.4188 10.5396 19.1334 10.8357C19.0231 10.9501 18.9134 11.0652 18.8044 11.181C18.5225 11.4805 18.0477 11.4914 17.7441 11.2054C17.4404 10.9194 17.4227 10.4448 17.7046 10.1454C17.8177 10.0253 17.9313 9.90597 18.0456 9.78743C18.331 9.49135 18.8059 9.48599 19.1063 9.77545ZM15.5927 13.7857C15.9279 14.0337 16.0023 14.5036 15.7588 14.8351C15.6651 14.9627 15.572 15.091 15.4796 15.2201C15.2402 15.5546 14.772 15.628 14.4338 15.3839C14.0956 15.1399 14.0155 14.6709 14.2549 14.3364C14.3508 14.2023 14.4474 14.0691 14.5447 13.9367C14.7882 13.6052 15.2574 13.5376 15.5927 13.7857ZM12.6497 18.2333C13.0143 18.4351 13.1504 18.8918 12.9537 19.2533C12.8775 19.3932 12.8021 19.5339 12.7273 19.6754C12.5349 20.0394 12.0814 20.1744 11.7144 19.9769C11.3474 19.7795 11.2059 19.3244 11.3983 18.9604C11.4759 18.8136 11.5541 18.6677 11.6331 18.5226C11.8299 18.161 12.285 18.0315 12.6497 18.2333ZM7.03932 45.5375C6.74632 45.8261 6.27128 45.8194 5.97828 45.5224L1.20362 40.6838C0.910623 40.3868 0.836013 40.1002 1.12901 39.8116C1.42201 39.523 1.707 39.6355 2 39.9324L6.5 44.5L11 40C11.293 39.7114 11.707 39.5031 12 39.8C12.293 40.0969 12.107 40.546 11.814 40.8346L7.03932 45.5375ZM10.3202 23.0395C10.7067 23.194 10.8992 23.6307 10.75 24.0149C10.6927 24.1623 10.6361 24.3104 10.5801 24.4594C10.4352 24.8452 10.003 25.036 9.61479 24.8856C9.22662 24.7353 9.02947 24.3006 9.17446 23.9148C9.23233 23.7608 9.29087 23.6076 9.35008 23.4551C9.49927 23.071 9.93359 22.8849 10.3202 23.0395ZM8.59815 28.1015C8.99913 28.2116 9.23951 28.6244 9.13506 29.0236C9.09509 29.1763 9.05571 29.3298 9.01693 29.484C8.91629 29.8842 8.50886 30.1225 8.1069 30.0162C7.70495 29.9099 7.46069 29.4994 7.56134 29.0992C7.60127 28.9404 7.64182 28.7823 7.68299 28.625C7.78744 28.2258 8.19717 27.9915 8.59815 28.1015ZM7.43581 33.3235C7.8451 33.3939 8.12448 33.7818 8.05983 34.1898C8.03472 34.3483 8.01018 34.5074 7.98621 34.6672C7.92492 35.0758 7.54302 35.3527 7.13322 35.2856C6.72342 35.2186 6.44089 34.833 6.50218 34.4244C6.52676 34.2605 6.55193 34.0973 6.57768 33.9348C6.64233 33.5268 7.02653 33.2531 7.43581 33.3235ZM6.76383 38.6376C7.17708 38.6738 7.48747 39.0375 7.45712 39.45C7.44533 39.6102 7.43406 39.771 7.4233 39.9324C7.3958 40.3451 7.03835 40.6527 6.6249 40.6193C6.21145 40.586 5.89858 40.2243 5.92608 39.8116C5.93706 39.6468 5.94857 39.4825 5.96062 39.3189C5.99097 38.9064 6.35058 38.6014 6.76383 38.6376Z" fill="black" fill-opacity="0.5"/>
</svg>
