<svg xmlns="http://www.w3.org/2000/svg" width="333.375" height="88.848" viewBox="0 0 333.375 88.848">
  <g id="Group_1" data-name="Group 1" transform="translate(-44.429 -44.403)">
    <rect id="Rectangle_1" data-name="Rectangle 1" width="88.848" height="88.848" transform="translate(44.429 44.403)" fill="#005039"/>
    <path id="Path_1" data-name="Path 1" d="M117.428,58.575a93.377,93.377,0,0,0-12.269-.216A52.323,52.323,0,0,0,75.307,69.413C67.379,75.754,61.79,83.572,59.7,92.5h.426c3.744-11.953,14.6-21.394,30.25-23.878a56.46,56.46,0,0,1,16.128.347Z" fill="#e13512"/>
    <path id="Path_2" data-name="Path 2" d="M85.935,89.2l3.135-9.336L92.1,89.2Z" fill="#fff"/>
    <path id="Path_3" data-name="Path 3" d="M91.428,90.59l2.85-3.289h6.23l2.671,3.289Z" fill="#fff"/>
    <path id="Path_4" data-name="Path 4" d="M77.917,92.541l1.713-3.289h6.1l1.9,3.289Z" fill="#fff"/>
    <path id="Path_5" data-name="Path 5" d="M89.966,95.938l3.666,21.356a39.246,39.246,0,0,0,7.334-2.537Z" fill="#c9ca00"/>
    <path id="Path_6" data-name="Path 6" d="M112.964,105.843l-20.042-9.9L106.816,111.4a33.123,33.123,0,0,0,6.148-5.556" fill="#c9ca00"/>
    <path id="Path_7" data-name="Path 7" d="M98.616,95.938l17.2,5.9a23.47,23.47,0,0,0,2.464-5.9Z" fill="#c9ca00"/>
    <path id="Path_8" data-name="Path 8" d="M86.619,118.3l1.412-22.359L78.018,117.69a34.406,34.406,0,0,0,6.753.653c.622,0,1.233-.016,1.848-.047" fill="#c9ca00"/>
    <path id="Path_9" data-name="Path 9" d="M70.882,115.3,85.231,95.938,63.263,109.351a22.7,22.7,0,0,0,7.619,5.95" fill="#c9ca00"/>
    <path id="Path_10" data-name="Path 10" d="M59.162,95.938a18.309,18.309,0,0,0,.872,7.612l21.042-7.612Z" fill="#c9ca00"/>
    <path id="Path_11" data-name="Path 11" d="M187.375,68.286H170.457v5.246H182V80.5a37.244,37.244,0,0,1-9.425,1.41c-6.691,0-11.168-4.52-11.168-11.365,0-6.634,4.949-11.11,12.393-11.11a61.2,61.2,0,0,1,9.472,1.225l1.129-5.276a46.76,46.76,0,0,0-11.024-1.415c-10.745,0-17.907,6.645-17.907,16.576,0,10.142,6.833,16.881,17.1,16.881a37.9,37.9,0,0,0,14.8-3.487ZM205.8,63.722A83.619,83.619,0,0,0,192.092,65.1V86.722h5.419V69.372c2.734-.223,5.419-.312,8.293-.312Zm13.578-.275c-7.445,0-12.487,4.795-12.487,11.96,0,7.311,5.042,12.162,12.487,12.162,7.4,0,12.44-4.851,12.44-12.162,0-7.165-5.043-11.96-12.44-11.96m0,19.175c-4.194,0-7.023-2.876-7.023-7.215a6.64,6.64,0,0,1,7.023-7.032c4.145,0,6.925,2.794,6.925,7.032,0,4.339-2.78,7.215-6.925,7.215m38.227-18.194h-5.467V82.337a47.076,47.076,0,0,1-6.172.427c-3.393,0-5.089-1.742-5.089-5.277V64.428h-5.467V78.759c0,6.221,3.816,8.669,9.376,8.669a79.216,79.216,0,0,0,12.819-1.179Zm17.583-.706a76.633,76.633,0,0,0-12.2,1.086V95.586h5.42v-9a50.741,50.741,0,0,0,7.209.376c6.455,0,10.79-4.757,10.79-11.5-.141-7.081-4.051-11.734-11.214-11.734m-.331,18.663a32.19,32.19,0,0,1-6.454-.473V68.673a48.047,48.047,0,0,1,6.032-.387c4.806,0,6.643,3.124,6.643,7.314,0,3.818-2.45,6.785-6.221,6.785m26.174-18.841a50.48,50.48,0,0,0-9.708,1.038l.567,4.567a56.761,56.761,0,0,1,8.718-.863c3.3,0,5.088,1.24,5.088,3.914v.294l-6.551.374c-6.833.281-10.083,2.588-10.083,7.022,0,4.852,3.063,7.538,8.67,7.538,2.876,0,5.088,0,13.006-1.179V72.063c0-5.828-3.11-8.519-9.707-8.519m-1.98,19.5c-3.157,0-4.852-1.082-4.852-3.013s1.506-2.923,4.57-3.109l6.927-.38v5.985a49.193,49.193,0,0,1-6.645.517m43.9-19.321a30.827,30.827,0,0,0-9.471,1.471,11.353,11.353,0,0,0-6.221-1.471A65.67,65.67,0,0,0,315.629,64.9V86.722h5.417V69.015a34.644,34.644,0,0,1,5.042-.342c3.489,0,5.183,1.562,5.183,5.179v12.87h5.468V72.353a11.3,11.3,0,0,0-.378-2.981,19.345,19.345,0,0,1,5.419-.7c3.488,0,5.186,1.741,5.186,5.277V86.722h5.418V72.4c0-6.222-3.771-8.681-9.426-8.681m24.962-.178a50.533,50.533,0,0,0-9.71,1.038l.568,4.567a56.787,56.787,0,0,1,8.72-.863c3.3,0,5.087,1.24,5.087,3.914v.294l-6.549.374c-6.832.281-10.087,2.588-10.087,7.022,0,4.852,3.067,7.538,8.673,7.538,2.876,0,5.089,0,13.006-1.179V72.063c0-5.828-3.111-8.519-9.708-8.519m-1.978,19.5c-3.157,0-4.853-1.082-4.853-3.013s1.508-2.923,4.57-3.109l6.926-.38v5.985a49.147,49.147,0,0,1-6.643.517" fill="#005039"/>
    <path id="Path_12" data-name="Path 12" d="M261.869,111.415v-.044a7.954,7.954,0,1,1,15.906-.045c.023.024.023.024,0,.045a7.954,7.954,0,1,1-15.906.044m14.08,0v-.044a6.2,6.2,0,0,0-6.148-6.437,6.126,6.126,0,0,0-6.1,6.392v.045a6.2,6.2,0,0,0,6.149,6.438,6.126,6.126,0,0,0,6.1-6.394" fill="#005039"/>
    <path id="Path_13" data-name="Path 13" d="M280.25,117.7l.869-1.225a6.729,6.729,0,0,0,3.987,1.47c1.381,0,2.384-.713,2.384-1.826v-.045c0-1.158-1.359-1.6-2.874-2.027-1.8-.513-3.809-1.136-3.809-3.252v-.045c0-1.983,1.648-3.3,3.921-3.3a7.879,7.879,0,0,1,4.143,1.269l-.779,1.292a6.521,6.521,0,0,0-3.408-1.114c-1.36,0-2.229.713-2.229,1.671v.045c0,1.092,1.426,1.515,2.963,1.982,1.782.536,3.7,1.226,3.7,3.3v.044c0,2.184-1.8,3.453-4.1,3.453a7.916,7.916,0,0,1-4.768-1.693" fill="#005039"/>
    <path id="Path_14" data-name="Path 14" d="M292.348,103.24h1.96v1.894h-1.96Zm.111,4.411h1.715v11.518h-1.715Z" fill="#005039"/>
    <path id="Path_15" data-name="Path 15" d="M298.028,121.174l.779-1.337a7.358,7.358,0,0,0,4.434,1.47c2.54,0,4.188-1.4,4.188-4.1v-1.36a5.46,5.46,0,0,1-4.522,2.428,5.325,5.325,0,0,1-5.414-5.391v-.044a5.453,5.453,0,0,1,9.914-3.12v-2.071h1.715v9.513a5.554,5.554,0,0,1-1.47,4.077,6.06,6.06,0,0,1-4.389,1.537,9.031,9.031,0,0,1-5.235-1.6m9.445-8.31v-.045a4.035,4.035,0,0,0-4.232-3.9,3.809,3.809,0,0,0-3.988,3.877v.044a3.9,3.9,0,0,0,3.988,3.92,4.063,4.063,0,0,0,4.232-3.9" fill="#005039"/>
    <path id="Path_16" data-name="Path 16" d="M312.776,114.8v-7.151h1.716v6.727c0,2.139,1.158,3.476,3.185,3.476a3.4,3.4,0,0,0,3.453-3.61v-6.593h1.694v11.517H321.13v-2a4.386,4.386,0,0,1-3.943,2.25c-2.784,0-4.411-1.871-4.411-4.611" fill="#005039"/>
    <path id="Path_17" data-name="Path 17" d="M326.679,107.651h1.715v3.008a4.931,4.931,0,0,1,4.7-3.208V109.3h-.134c-2.517,0-4.567,1.8-4.567,5.281v4.589h-1.715Z" fill="#005039"/>
    <path id="Path_18" data-name="Path 18" d="M334.272,115.827v-.044c0-2.474,2.005-3.766,4.924-3.766a12.092,12.092,0,0,1,3.52.49v-.356c0-2.05-1.248-3.119-3.409-3.119a8.031,8.031,0,0,0-3.5.824l-.511-1.4a9.439,9.439,0,0,1,4.187-.981,5.109,5.109,0,0,1,3.721,1.271,4.553,4.553,0,0,1,1.2,3.385v7.04h-1.693v-1.715a5.051,5.051,0,0,1-4.144,1.961c-2.161,0-4.3-1.226-4.3-3.587m8.466-.891v-1.069a11.846,11.846,0,0,0-3.364-.491c-2.139,0-3.364.936-3.364,2.317v.045c0,1.448,1.336,2.295,2.9,2.295,2.116,0,3.832-1.271,3.832-3.1" fill="#005039"/>
    <path id="Path_19" data-name="Path 19" d="M348.041,107.651h1.715v2a4.364,4.364,0,0,1,3.943-2.25c2.785,0,4.411,1.871,4.411,4.611v7.152h-1.715v-6.728c0-2.139-1.159-3.476-3.186-3.476a3.39,3.39,0,0,0-3.453,3.609v6.6h-1.715Z" fill="#005039"/>
    <path id="Path_20" data-name="Path 20" d="M359.76,122.688v-1.4a5.572,5.572,0,0,0,.846.067c.78,0,1.315-.468,1.315-1.537V107.651h1.715v12.185c0,2.028-1.07,2.963-2.807,2.963a4.212,4.212,0,0,1-1.069-.111m2.049-19.448h1.961v1.894h-1.961Z" fill="#005039"/>
    <path id="Path_21" data-name="Path 21" d="M372.7,117.943a4.77,4.77,0,0,0,3.632-1.626l1.069.958a5.948,5.948,0,0,1-4.746,2.161,5.731,5.731,0,0,1-5.747-6.016c0-3.34,2.339-6.014,5.524-6.014,3.409,0,5.369,2.718,5.369,6.1,0,.156,0,.334-.022.6h-9.134a4.024,4.024,0,0,0,4.055,3.831m3.364-5.213c-.2-2.094-1.4-3.876-3.676-3.876-1.983,0-3.5,1.648-3.743,3.876Z" fill="#005039"/>
  </g>
</svg>
