<?xml version="1.0" encoding="utf-8"?>
<svg id="Layer_1" viewBox="0 0 192 34" xmlns="http://www.w3.org/2000/svg">
  <style>.st0{fill:#FFF}</style>
  <path class="st0" d="M26.8 26.3c-2.3-2.4-3.7-5.7-3.7-9.3 0-3.6 1.3-6.9 3.7-9.3 2 2 3.3 4.4 3.7 7.3h23c-1-8.4-8.1-15-17.1-15-3.6 0-6.9 1.1-9.6 2.9-2.7-1.8-6-2.9-9.6-2.9C7.7 0 0 7.6 0 17s7.7 17 17.2 17c3.6 0 6.9-1.1 9.6-2.9 2.8 1.8 6.1 2.9 9.6 2.9 8.9 0 16.1-6.7 17.1-15H30.4c-.4 2.9-1.6 5.2-3.6 7.3zm9.7-22.7c5.5 0 10.2 3.3 12.3 8H33.6c-.8-2.3-2.2-4.5-3.8-6.3 1.9-1.1 4.3-1.7 6.7-1.7zM17.2 30.4c-7.5 0-13.4-6-13.4-13.4 0-7.3 5.8-13.4 13.4-13.4 2.5 0 4.8.7 6.7 1.8-2.8 3-4.6 7.1-4.6 11.5 0 4.5 1.8 8.6 4.6 11.6-2 1.1-4.3 1.9-6.7 1.9zm31.6-8c-2 4.9-6.8 8-12.3 8-2.5 0-4.8-.6-6.7-1.8 1.6-1.8 3-3.9 3.8-6.2h15.2zM71.6 15.2c2.4 0 4.4-.9 5.2-1.5l-.7-2.6c-1.4 1.1-2.8 1.6-4.3 1.6-2.4 0-3.8-1.5-3.8-4C68 6.5 69.5 5 71.9 5c1.4 0 2.8.4 4.2 1.4l.7-2.6c-.8-.7-2.5-1.5-4.8-1.5-4.3 0-7.3 2.3-7.3 6.4 0 4.3 2.7 6.5 6.9 6.5zM111.2 12.9h5.2l.9 1.9h3.3l-5.5-12.2h-2.3l-5.3 12.2h2.8l.9-1.9zm2.6-6.1l1.7 3.8h-3.3l1.6-3.8zM148.1 12.9l.9 1.9h3.3l-5.5-12.2h-2.3l-5.3 12.2h2.8l.8-1.9h5.3zm-2.7-6.1l1.7 3.8h-3.3l1.6-3.8zM124.2 14.9h3.1V5.1h4V2.7h-11.2v2.4h4.1zM106.6 8.8c0-4.2-3.2-6.4-6.9-6.4-3.6 0-6.9 2.2-6.9 6.4s3.3 6.4 6.9 6.4c3.6 0 6.9-2.2 6.9-6.4zm-6.9 4c-2.3 0-3.6-1.5-3.6-4 0-2.4 1.4-4 3.6-4 2.3 0 3.6 1.6 3.6 4s-1.3 4-3.6 4zM82.6 10.5l2.6-.3 2.3 4.6h3.3l-2.7-5.2c1.8-.7 2.7-1.8 2.7-3.5 0-2.1-1.4-3.5-3.8-3.5h-7.4v12.2h3.1v-4.3zm0-5.4H86c1.1 0 1.7.4 1.7 1.2 0 1.1-1.1 1.5-2.2 1.6l-2.8.3V5.1zM133.9 2.7h3.1v12.2h-3.1zM175 27.2c0 1.2-.2 1.9-1.4 1.9-.6 0-1.3-.3-2.2-.9l-.7 2.5c.9.6 2.2.9 3 .9 2.5 0 4.4-1.2 4.4-3.9v-8.6H175v8.1zM183.9 28.9v-3h4.9v-2.3h-4.9v-2h6.9v-2.4h-9.9v12.2H191v-2.5zM113.2 24.5h-6v2.3h3.1v2c-.8.2-1.6.3-2.4.3-2.4 0-3.8-1.6-3.8-4 0-2.3 1.5-3.7 3.9-3.7 1.4 0 2.8.4 4.2 1.4l.7-2.6c-.9-.6-2.5-1.4-4.8-1.4-4.2 0-7.3 2.3-7.3 6.4 0 4.2 2.7 6.4 6.9 6.4 2.3 0 4.1-.6 5.4-1.3h.1v-5.8zM141.5 22.7c0-2.1-1.4-3.5-3.8-3.5h-7.4v12.2h3.1V27l2.6-.3 2.3 4.6h3.3l-2.7-5.2c1.7-.6 2.6-1.8 2.6-3.4zm-5.3 1.6l-2.8.3v-3.1h3.4c1.1 0 1.7.4 1.7 1.2 0 1.1-1.2 1.5-2.3 1.6zM71.6 18.9c-3.6 0-6.9 2.2-6.9 6.4s3.3 6.4 6.9 6.4c3.6 0 6.9-2.2 6.9-6.4 0-4.3-3.2-6.4-6.9-6.4zm0 10.4c-2.3 0-3.6-1.5-3.6-4 0-2.4 1.4-4 3.6-4 2.3 0 3.6 1.6 3.6 4s-1.3 4-3.6 4zM94.9 19.2H98v12.2h-3.1zM86.1 23.6c-1.8-.3-2.1-.6-2.1-1.2 0-.5.5-1 2.3-1 1.8 0 3.3.5 4.4 1.4l.7-2.6c-.9-.6-2.5-1.3-5-1.3-3.6 0-5.4 1.7-5.4 3.8 0 2.4 1.7 3.5 5.7 4 1.8.3 2.2.6 2.2 1.2 0 .8-.8 1.2-2.8 1.2-1.5 0-2.7-.3-4.4-1.3l-.7 2.6c1.5.7 3 1.2 5.2 1.2 3.4 0 5.8-1.4 5.8-4.1-.1-2.7-1.9-3.3-5.9-3.9zM148.1 19.2l-5.3 12.2h2.9l.8-1.9h5.2l.9 1.9h3.3l-5.5-12.2h-2.3zm-.7 8l1.6-3.8 1.7 3.8h-3.3zM124.6 26.3c0 1.9-.7 2.9-2.7 2.9-1.9 0-2.6-1-2.6-2.9v-7.1h-3.1v7.2c0 3.6 1.9 5.3 5.8 5.3 3.7 0 5.4-1.9 5.4-4.8v-7.7h-2.7v7.1zM166.7 26.3l-6.5-7.1h-2.6v12.2h2.7v-7.5l6.8 7.5h2.3V19.2h-2.7zM155.2 5.6h.5c.1.1.2.2.4.5l.1.3c.2.3.2.4.3.5h.7c-.1-.1-.3-.3-.4-.6l-.2-.4c-.1-.2-.2-.4-.4-.5.4-.1.7-.5.7-.9 0-.5-.3-.9-1-.9h-1.3v3.2h.6V5.6zm0-1.5h.6c.4 0 .6.2.6.5s-.2.6-.6.6h-.5V4.1z" style="fill: rgb(19, 47, 130);"/>
  <path class="st0" d="M 155.7 8.5 C 157.5 8.5 158.9 7.1 158.9 5.3 C 158.9 3.5 157.5 2.1 155.7 2.1 C 153.9 2.1 152.5 3.6 152.5 5.3 C 152.5 7.1 153.9 8.5 155.7 8.5 Z M 155.7 2.6 C 157.2 2.6 158.4 3.8 158.4 5.3 C 158.4 6.8 157.2 8 155.7 8 C 154.2 8 153 6.8 153 5.3 C 153 3.8 154.2 2.6 155.7 2.6 Z" transform="matrix(0, -1, 1, 0, 150.39999, 160.999989)" style="fill: rgb(19, 47, 130);"/>
</svg>