<svg width="148" height="29" viewBox="0 0 148 29" fill="none" xmlns="http://www.w3.org/2000/svg">
<g id="links-logo 1">
<g id="Group 1">
<path id="Vector" d="M15.9839 28.6978H18.8102C21.4261 28.6978 23.6468 27.7825 25.4779 25.9557C27.3082 24.1304 28.2196 21.9104 28.2196 19.2986V0.500977H9.4055C6.79502 0.500977 4.57272 1.41323 2.74547 3.23774C0.914393 5.06682 0 7.28687 0 9.89865V12.7604C0.330981 12.0333 0.799997 11.3665 1.40781 10.7591C2.7386 9.42995 4.35766 8.76462 6.25813 8.76462H19.9588V22.4545C19.9588 24.3568 19.2945 25.974 17.963 27.3031C17.3612 27.9037 16.7008 28.3686 15.9839 28.6978Z" fill="#00627D"/>
<path id="Vector_2" d="M7.90372 11.1101H6.5653C5.02327 11.1101 3.71231 11.6489 2.63166 12.7281C1.55026 13.8072 1.00879 15.1188 1.00879 16.6629V27.7677L6.5653 27.7692H12.1233C13.6692 27.7692 14.9809 27.2297 16.0608 26.1482C17.1399 25.0691 17.6799 23.7582 17.6799 22.2164V20.8614C17.6189 20.9308 17.554 20.9993 17.4862 21.0679C16.7006 21.8552 15.7443 22.2485 14.6187 22.2485H10.5722L6.52565 22.2462V14.1601C6.52565 13.0337 6.91916 12.0795 7.70696 11.2945C7.77178 11.2298 7.83737 11.1688 7.90372 11.1101Z" fill="#009BD0"/>
</g>
<path id="Union" fill-rule="evenodd" clip-rule="evenodd" d="M121.687 26.553L121.687 28.5566H117.675C117.119 28.5566 116.646 28.3638 116.254 27.9728C115.865 27.5826 115.669 27.1093 115.669 26.553V21.209H103.303V26.4974C103.303 27.7602 102.804 28.5566 101.298 28.5566H99.2928L97.2871 28.5597V2.50437L97.2893 0.5H101.298C101.855 0.5 102.329 0.695102 102.719 1.08378C103.109 1.47399 103.303 1.94726 103.303 2.50437V15.1967H108.316V9.85195C108.316 9.29636 108.511 8.82233 108.902 8.43288C109.292 8.04344 109.766 7.8491 110.323 7.8491H114.338L114.333 9.85195V15.1967H116.84C118.177 15.1967 119.319 15.67 120.266 16.6165C121.213 17.5623 121.687 18.7039 121.687 20.0399V26.553ZM147.876 23.7141C147.876 25.0493 147.403 26.191 146.455 27.1375C145.508 28.0848 144.366 28.5574 143.03 28.5574H125.482L123.476 28.5581V24.5486C123.476 23.9923 123.671 23.519 124.061 23.1296C124.452 22.7394 124.925 22.545 125.482 22.545H141.86V21.209H128.322C126.986 21.209 125.844 20.735 124.897 19.7892C123.95 18.8426 123.476 17.701 123.476 16.3658V12.6908C123.476 11.3556 123.95 10.214 124.897 9.26817C125.844 8.32085 126.986 7.8491 128.322 7.8491H147.872L147.876 9.85195V11.8563C147.876 12.4127 147.681 12.8859 147.291 13.2761C146.901 13.6656 146.428 13.8607 145.871 13.8607H129.493V15.1967H143.03C144.366 15.1967 145.508 15.67 146.455 16.6157C147.403 17.5631 147.876 18.7039 147.876 20.0399V23.7141ZM93.4929 28.5566L95.4971 28.5597V12.6916C95.4971 11.3548 95.0235 10.214 94.0771 9.2674C93.1306 8.32238 91.9882 7.84834 90.6506 7.84834L71.0823 7.84453L71.0983 26.5538C71.0983 27.1101 71.2935 27.5834 71.6832 27.9728C72.0737 28.3623 72.5473 28.5566 73.104 28.5566H75.1097L77.1147 28.5536V13.8607H89.4815V26.5538C89.4815 27.1101 89.6767 27.5834 90.0656 27.9728C90.4561 28.3623 90.9289 28.5566 91.4857 28.5566H93.4929ZM69.3092 26.553C69.3092 27.1093 69.114 27.5826 68.7243 27.9728C68.3338 28.3638 67.8602 28.5566 67.3035 28.5566H63.2928V9.85195C63.2928 9.29636 63.4888 8.82233 63.8785 8.43289C64.2682 8.04344 64.7411 7.8491 65.2986 7.8491H69.3123L69.3092 9.85195V26.553ZM60.9186 27.9728C61.3083 27.5826 61.5028 27.1093 61.5028 26.553V22.5443H43.1196V9.85195L43.1204 7.8491H39.109C38.5515 7.8491 38.0786 8.04344 37.6889 8.43289C37.2985 8.82233 37.104 9.29636 37.104 9.85195V28.5566H59.4978C60.0546 28.5566 60.5274 28.3638 60.9186 27.9728Z" fill="#23211F"/>
</g>
</svg>
